STARTFONT 2.1
COMMENT
COMMENT Converted from OpenType font "Galmuri11.ttf" by "otf2bdf 3.0".
COMMENT
FONT -FreeType-Galmuri11 Regular-Medium-R-Normal--15-110-100-100-P-136-ISO10646-1
SIZE 11 100 100
FONTBOUNDINGBOX 24 24 -2 -4
STARTPROPERTIES 19
FOUNDRY "FreeType"
FAMILY_NAME "Galmuri11 Regular"
WEIGHT_NAME "Medium"
SLANT "R"
SETWIDTH_NAME "Normal"
ADD_STYLE_NAME ""
PIXEL_SIZE 15
POINT_SIZE 110
RESOLUTION_X 100
RESOLUTION_Y 100
SPACING "P"
AVERAGE_WIDTH 136
CHARSET_REGISTRY "ISO10646"
CHARSET_ENCODING "1"
FONT_ASCENT 15
FONT_DESCENT -2
COPYRIGHT "Copyright (c) 2019-2022 Minseo Lee (itoupluk427@gmail.com), with Reserved Font Name "Galmuri"."
_OTF_FONTFILE "Galmuri11.ttf"
_OTF_PSNAME "Galmuri11-Regular"
ENDPROPERTIES
CHARS 20374
STARTCHAR 0020
ENCODING 32
SWIDTH 392 0
DWIDTH 6 0
BBX 0 0 0 0
BITMAP
ENDCHAR
STARTCHAR 0021
ENCODING 33
SWIDTH 392 0
DWIDTH 6 0
BBX 1 14 2 0
BITMAP
80
80
80
80
80
80
80
80
80
80
00
80
80
80
ENDCHAR
STARTCHAR 0022
ENCODING 34
SWIDTH 327 0
DWIDTH 5 0
BBX 4 4 0 10
BITMAP
90
90
90
90
ENDCHAR
STARTCHAR 0023
ENCODING 35
SWIDTH 720 0
DWIDTH 11 0
BBX 9 14 0 0
BITMAP
0480
0480
0480
0480
3F80
1300
1300
1300
1300
FF80
2400
2400
2400
2400
ENDCHAR
STARTCHAR 0024
ENCODING 36
SWIDTH 654 0
DWIDTH 10 0
BBX 9 14 0 0
BITMAP
0800
0800
7F00
8880
8800
8800
8800
7F80
0880
0880
8880
0800
7F00
0800
ENDCHAR
STARTCHAR 0025
ENCODING 37
SWIDTH 785 0
DWIDTH 12 0
BBX 11 11 0 1
BITMAP
7020
8840
8880
7200
0000
0400
08C0
1220
4220
0000
80C0
ENDCHAR
STARTCHAR 0026
ENCODING 38
SWIDTH 654 0
DWIDTH 10 0
BBX 9 14 0 0
BITMAP
1800
4400
4400
4400
4400
4800
0000
1000
4800
8480
8200
0000
4480
1800
ENDCHAR
STARTCHAR 0027
ENCODING 39
SWIDTH 392 0
DWIDTH 6 0
BBX 1 4 2 10
BITMAP
80
80
80
80
ENDCHAR
STARTCHAR 0028
ENCODING 40
SWIDTH 327 0
DWIDTH 5 0
BBX 4 14 0 0
BITMAP
30
40
40
40
80
80
80
80
80
80
40
40
40
30
ENDCHAR
STARTCHAR 0029
ENCODING 41
SWIDTH 327 0
DWIDTH 5 0
BBX 4 14 0 0
BITMAP
80
40
40
40
30
30
30
30
30
30
40
40
40
80
ENDCHAR
STARTCHAR 002A
ENCODING 42
SWIDTH 458 0
DWIDTH 7 0
BBX 6 8 0 3
BITMAP
10
94
78
10
10
78
94
10
ENDCHAR
STARTCHAR 002B
ENCODING 43
SWIDTH 654 0
DWIDTH 10 0
BBX 9 9 0 2
BITMAP
0800
0800
0800
0800
FF80
0800
0800
0800
0800
ENDCHAR
STARTCHAR 002C
ENCODING 44
SWIDTH 327 0
DWIDTH 5 0
BBX 2 2 0 -1
BITMAP
40
80
ENDCHAR
STARTCHAR 002D
ENCODING 45
SWIDTH 523 0
DWIDTH 8 0
BBX 7 1 0 6
BITMAP
FE
ENDCHAR
STARTCHAR 002E
ENCODING 46
SWIDTH 392 0
DWIDTH 6 0
BBX 1 1 2 0
BITMAP
80
ENDCHAR
STARTCHAR 002F
ENCODING 47
SWIDTH 458 0
DWIDTH 7 0
BBX 6 14 0 0
BITMAP
04
04
04
08
08
10
10
10
10
40
40
80
80
80
ENDCHAR
STARTCHAR 0030
ENCODING 48
SWIDTH 654 0
DWIDTH 10 0
BBX 9 14 0 0
BITMAP
3C00
0000
4200
8080
8080
8080
8080
8080
8080
8080
8080
8080
4200
3C00
ENDCHAR
STARTCHAR 0031
ENCODING 49
SWIDTH 523 0
DWIDTH 8 0
BBX 4 14 1 0
BITMAP
20
20
E0
20
20
20
20
20
20
20
20
20
20
F0
ENDCHAR
STARTCHAR 0032
ENCODING 50
SWIDTH 654 0
DWIDTH 10 0
BBX 9 14 0 0
BITMAP
1C00
0000
4200
8080
0080
0200
0000
0C00
1000
4000
8000
8000
8000
FF80
ENDCHAR
STARTCHAR 0033
ENCODING 51
SWIDTH 654 0
DWIDTH 10 0
BBX 9 14 0 0
BITMAP
3C00
0000
4200
8080
0080
0200
0000
3C00
0080
0080
8080
0000
4200
3C00
ENDCHAR
STARTCHAR 0034
ENCODING 52
SWIDTH 654 0
DWIDTH 10 0
BBX 9 14 0 0
BITMAP
0600
0A00
0A00
0A00
1200
1200
5200
4200
4200
8200
FF80
0200
0200
0200
ENDCHAR
STARTCHAR 0035
ENCODING 53
SWIDTH 654 0
DWIDTH 10 0
BBX 9 14 0 0
BITMAP
FF80
8000
8000
8000
8000
BC00
8000
C280
0080
0080
8080
0000
4200
3C00
ENDCHAR
STARTCHAR 0036
ENCODING 54
SWIDTH 654 0
DWIDTH 10 0
BBX 9 14 0 0
BITMAP
0C00
0000
1000
4000
4000
9C00
8000
C200
8080
8080
8080
8080
4200
1C00
ENDCHAR
STARTCHAR 0037
ENCODING 55
SWIDTH 654 0
DWIDTH 10 0
BBX 9 14 0 0
BITMAP
FF80
0080
0080
0080
0100
0100
0300
0200
0200
0800
0800
1000
1000
1000
ENDCHAR
STARTCHAR 0038
ENCODING 56
SWIDTH 654 0
DWIDTH 10 0
BBX 9 14 0 0
BITMAP
3C00
0000
4200
8080
8080
4200
0000
3C00
4200
8080
8080
8080
4200
3C00
ENDCHAR
STARTCHAR 0039
ENCODING 57
SWIDTH 654 0
DWIDTH 10 0
BBX 9 14 0 0
BITMAP
3C00
0000
4200
8080
8080
8080
8080
4380
3D80
0200
0200
0200
0400
3800
ENDCHAR
STARTCHAR 003A
ENCODING 58
SWIDTH 392 0
DWIDTH 6 0
BBX 1 8 2 2
BITMAP
80
80
80
00
00
80
80
80
ENDCHAR
STARTCHAR 003B
ENCODING 59
SWIDTH 327 0
DWIDTH 5 0
BBX 2 8 0 2
BITMAP
40
40
40
00
00
40
00
80
ENDCHAR
STARTCHAR 003C
ENCODING 60
SWIDTH 392 0
DWIDTH 6 0
BBX 5 8 0 3
BITMAP
08
10
40
00
80
40
10
08
ENDCHAR
STARTCHAR 003D
ENCODING 61
SWIDTH 523 0
DWIDTH 8 0
BBX 7 4 0 5
BITMAP
FE
00
00
FE
ENDCHAR
STARTCHAR 003E
ENCODING 62
SWIDTH 392 0
DWIDTH 6 0
BBX 5 8 0 3
BITMAP
80
40
10
00
08
10
40
80
ENDCHAR
STARTCHAR 003F
ENCODING 63
SWIDTH 458 0
DWIDTH 7 0
BBX 6 14 0 0
BITMAP
78
84
84
84
04
08
10
10
10
10
00
10
10
10
ENDCHAR
STARTCHAR 0040
ENCODING 64
SWIDTH 785 0
DWIDTH 12 0
BBX 11 11 0 1
BITMAP
1F80
4040
8E20
9220
9220
9220
9640
8B80
0000
4000
1FC0
ENDCHAR
STARTCHAR 0041
ENCODING 65
SWIDTH 654 0
DWIDTH 10 0
BBX 9 14 0 0
BITMAP
0800
1400
1400
1400
1400
4200
4200
4200
4200
7E00
8080
8080
8080
8080
ENDCHAR
STARTCHAR 0042
ENCODING 66
SWIDTH 654 0
DWIDTH 10 0
BBX 9 14 0 0
BITMAP
FC00
8000
8200
8080
8080
8200
8000
FC00
8200
8080
8080
8080
8200
FC00
ENDCHAR
STARTCHAR 0043
ENCODING 67
SWIDTH 720 0
DWIDTH 11 0
BBX 10 14 0 0
BITMAP
3F00
0000
4080
8040
8000
8000
8000
8000
8000
8000
8040
0000
4080
3F00
ENDCHAR
STARTCHAR 0044
ENCODING 68
SWIDTH 654 0
DWIDTH 10 0
BBX 9 14 0 0
BITMAP
FC00
8000
8200
8080
8080
8080
8080
8080
8080
8080
8080
8080
8200
FC00
ENDCHAR
STARTCHAR 0045
ENCODING 69
SWIDTH 589 0
DWIDTH 9 0
BBX 7 14 0 0
BITMAP
FE
80
80
80
80
80
80
FE
80
80
80
80
80
FE
ENDCHAR
STARTCHAR 0046
ENCODING 70
SWIDTH 589 0
DWIDTH 9 0
BBX 7 14 0 0
BITMAP
FE
80
80
80
80
80
80
FE
80
80
80
80
80
80
ENDCHAR
STARTCHAR 0047
ENCODING 71
SWIDTH 720 0
DWIDTH 11 0
BBX 10 14 0 0
BITMAP
3F00
0000
4080
8040
8000
8000
8000
87C0
8040
8040
8040
8040
4080
3F00
ENDCHAR
STARTCHAR 0048
ENCODING 72
SWIDTH 654 0
DWIDTH 10 0
BBX 9 14 0 0
BITMAP
8080
8080
8080
8080
8080
8080
8080
FF80
8080
8080
8080
8080
8080
8080
ENDCHAR
STARTCHAR 0049
ENCODING 73
SWIDTH 327 0
DWIDTH 5 0
BBX 4 14 0 0
BITMAP
F0
20
20
20
20
20
20
20
20
20
20
20
20
F0
ENDCHAR
STARTCHAR 004A
ENCODING 74
SWIDTH 523 0
DWIDTH 8 0
BBX 7 14 0 0
BITMAP
02
02
02
02
02
02
02
02
02
02
82
00
44
38
ENDCHAR
STARTCHAR 004B
ENCODING 75
SWIDTH 654 0
DWIDTH 10 0
BBX 9 14 0 0
BITMAP
8080
8000
8200
8400
8800
9000
8000
E000
9000
8800
8400
8000
8200
8080
ENDCHAR
STARTCHAR 004C
ENCODING 76
SWIDTH 589 0
DWIDTH 9 0
BBX 7 14 0 0
BITMAP
80
80
80
80
80
80
80
80
80
80
80
80
80
FE
ENDCHAR
STARTCHAR 004D
ENCODING 77
SWIDTH 785 0
DWIDTH 12 0
BBX 11 14 0 0
BITMAP
8020
E060
E060
E060
90A0
90A0
90A0
90A0
8A20
8A20
8A20
8420
8420
8420
ENDCHAR
STARTCHAR 004E
ENCODING 78
SWIDTH 720 0
DWIDTH 11 0
BBX 10 14 0 0
BITMAP
80C0
E0C0
E0C0
E0C0
90C0
90C0
90C0
88C0
86C0
86C0
81C0
81C0
81C0
80C0
ENDCHAR
STARTCHAR 004F
ENCODING 79
SWIDTH 720 0
DWIDTH 11 0
BBX 10 14 0 0
BITMAP
3F00
0000
4080
8040
8040
8040
8040
8040
8040
8040
8040
8040
4080
3F00
ENDCHAR
STARTCHAR 0050
ENCODING 80
SWIDTH 654 0
DWIDTH 10 0
BBX 9 14 0 0
BITMAP
FC00
8000
8200
8080
8080
8080
8080
8200
FC00
8000
8000
8000
8000
8000
ENDCHAR
STARTCHAR 0051
ENCODING 81
SWIDTH 720 0
DWIDTH 11 0
BBX 10 14 0 0
BITMAP
3E00
0000
4080
8040
8040
8040
8040
8040
8040
8440
8240
0000
4080
3E40
ENDCHAR
STARTCHAR 0052
ENCODING 82
SWIDTH 654 0
DWIDTH 10 0
BBX 9 14 0 0
BITMAP
FC00
8000
8200
8080
8080
8080
8080
8200
FC00
8800
8400
8000
8200
8080
ENDCHAR
STARTCHAR 0053
ENCODING 83
SWIDTH 654 0
DWIDTH 10 0
BBX 9 14 0 0
BITMAP
3C00
0000
4200
8080
8000
4000
0000
3C00
0080
0080
8080
0000
4200
3C00
ENDCHAR
STARTCHAR 0054
ENCODING 84
SWIDTH 654 0
DWIDTH 10 0
BBX 9 14 0 0
BITMAP
FF80
0800
0800
0800
0800
0800
0800
0800
0800
0800
0800
0800
0800
0800
ENDCHAR
STARTCHAR 0055
ENCODING 85
SWIDTH 720 0
DWIDTH 11 0
BBX 10 14 0 0
BITMAP
8040
8040
8040
8040
8040
8040
8040
8040
8040
8040
8040
8040
4080
3F00
ENDCHAR
STARTCHAR 0056
ENCODING 86
SWIDTH 654 0
DWIDTH 10 0
BBX 9 14 0 0
BITMAP
8080
8080
8080
8080
4200
4200
4200
4200
1400
1400
1400
0800
0800
0800
ENDCHAR
STARTCHAR 0057
ENCODING 87
SWIDTH 785 0
DWIDTH 12 0
BBX 11 14 0 0
BITMAP
8420
8420
8420
8420
8420
4A40
4A40
4A40
4A40
4A40
1080
1080
1080
1080
ENDCHAR
STARTCHAR 0058
ENCODING 88
SWIDTH 654 0
DWIDTH 10 0
BBX 9 14 0 0
BITMAP
8080
4200
4200
4200
1400
1400
1400
0800
1400
1400
4200
4200
4200
8080
ENDCHAR
STARTCHAR 0059
ENCODING 89
SWIDTH 654 0
DWIDTH 10 0
BBX 9 14 0 0
BITMAP
8080
8080
8080
4200
4200
1400
1400
1400
0800
0800
0800
0800
0800
0800
ENDCHAR
STARTCHAR 005A
ENCODING 90
SWIDTH 589 0
DWIDTH 9 0
BBX 7 14 0 0
BITMAP
FE
04
04
04
08
08
18
10
10
40
40
C0
80
FE
ENDCHAR
STARTCHAR 005B
ENCODING 91
SWIDTH 327 0
DWIDTH 5 0
BBX 4 14 0 0
BITMAP
F0
80
80
80
80
80
80
80
80
80
80
80
80
F0
ENDCHAR
STARTCHAR 005C
ENCODING 92
SWIDTH 458 0
DWIDTH 7 0
BBX 6 14 0 0
BITMAP
80
80
80
40
40
10
10
10
10
08
08
04
04
04
ENDCHAR
STARTCHAR 005D
ENCODING 93
SWIDTH 327 0
DWIDTH 5 0
BBX 4 14 0 0
BITMAP
F0
10
10
10
10
10
10
10
10
10
10
10
10
F0
ENDCHAR
STARTCHAR 005E
ENCODING 94
SWIDTH 458 0
DWIDTH 7 0
BBX 6 4 0 10
BITMAP
10
00
48
84
ENDCHAR
STARTCHAR 005F
ENCODING 95
SWIDTH 523 0
DWIDTH 8 0
BBX 7 1 0 0
BITMAP
FE
ENDCHAR
STARTCHAR 0060
ENCODING 96
SWIDTH 327 0
DWIDTH 5 0
BBX 4 4 0 10
BITMAP
80
00
40
30
ENDCHAR
STARTCHAR 0061
ENCODING 97
SWIDTH 523 0
DWIDTH 8 0
BBX 7 10 0 0
BITMAP
7C
82
02
02
3E
42
82
82
86
7A
ENDCHAR
STARTCHAR 0062
ENCODING 98
SWIDTH 654 0
DWIDTH 10 0
BBX 9 14 0 0
BITMAP
8000
8000
8000
8000
BC00
C200
8080
8080
8080
8080
8080
8000
C200
BC00
ENDCHAR
STARTCHAR 0063
ENCODING 99
SWIDTH 523 0
DWIDTH 8 0
BBX 7 10 0 0
BITMAP
3C
42
80
80
80
80
80
00
42
3C
ENDCHAR
STARTCHAR 0064
ENCODING 100
SWIDTH 654 0
DWIDTH 10 0
BBX 9 14 0 0
BITMAP
0080
0080
0080
0080
3C80
4380
8080
8080
8080
8080
8080
0080
4380
3C80
ENDCHAR
STARTCHAR 0065
ENCODING 101
SWIDTH 654 0
DWIDTH 10 0
BBX 9 10 0 0
BITMAP
3C00
4200
8080
8080
FF80
8000
8080
0000
4200
3C00
ENDCHAR
STARTCHAR 0066
ENCODING 102
SWIDTH 523 0
DWIDTH 8 0
BBX 7 14 0 0
BITMAP
0E
10
10
10
FE
10
10
10
10
10
10
10
10
10
ENDCHAR
STARTCHAR 0067
ENCODING 103
SWIDTH 654 0
DWIDTH 10 0
BBX 9 12 0 -2
BITMAP
3C80
4380
8080
8080
8080
8080
4380
3C80
0080
8080
4200
3C00
ENDCHAR
STARTCHAR 0068
ENCODING 104
SWIDTH 523 0
DWIDTH 8 0
BBX 7 14 0 0
BITMAP
80
80
80
80
BC
C2
82
82
82
82
82
82
82
82
ENDCHAR
STARTCHAR 0069
ENCODING 105
SWIDTH 392 0
DWIDTH 6 0
BBX 1 12 2 0
BITMAP
80
00
80
80
80
80
80
80
80
80
80
80
ENDCHAR
STARTCHAR 006A
ENCODING 106
SWIDTH 523 0
DWIDTH 8 0
BBX 5 15 0 -2
BITMAP
08
00
00
08
08
08
08
08
08
08
08
08
08
88
70
ENDCHAR
STARTCHAR 006B
ENCODING 107
SWIDTH 523 0
DWIDTH 8 0
BBX 7 14 0 0
BITMAP
80
80
80
80
82
84
80
88
F0
90
88
80
84
82
ENDCHAR
STARTCHAR 006C
ENCODING 108
SWIDTH 392 0
DWIDTH 6 0
BBX 1 14 2 0
BITMAP
80
80
80
80
80
80
80
80
80
80
80
80
80
80
ENDCHAR
STARTCHAR 006D
ENCODING 109
SWIDTH 785 0
DWIDTH 12 0
BBX 11 10 0 0
BITMAP
B9C0
C620
8420
8420
8420
8420
8420
8420
8420
8420
ENDCHAR
STARTCHAR 006E
ENCODING 110
SWIDTH 523 0
DWIDTH 8 0
BBX 7 10 0 0
BITMAP
BC
C2
82
82
82
82
82
82
82
82
ENDCHAR
STARTCHAR 006F
ENCODING 111
SWIDTH 654 0
DWIDTH 10 0
BBX 9 10 0 0
BITMAP
3C00
4200
8080
8080
8080
8080
8080
0000
4200
3C00
ENDCHAR
STARTCHAR 0070
ENCODING 112
SWIDTH 654 0
DWIDTH 10 0
BBX 9 12 0 -2
BITMAP
BC00
C200
8080
8080
8080
8080
C200
BC00
8000
8000
8000
8000
ENDCHAR
STARTCHAR 0071
ENCODING 113
SWIDTH 654 0
DWIDTH 10 0
BBX 9 12 0 -2
BITMAP
3C80
4380
8080
8080
8080
8080
4380
3C80
0080
0080
0080
0080
ENDCHAR
STARTCHAR 0072
ENCODING 114
SWIDTH 458 0
DWIDTH 7 0
BBX 6 10 0 0
BITMAP
B8
C4
80
80
80
80
80
80
80
80
ENDCHAR
STARTCHAR 0073
ENCODING 115
SWIDTH 523 0
DWIDTH 8 0
BBX 7 10 0 0
BITMAP
7C
82
80
80
70
0C
02
02
82
7C
ENDCHAR
STARTCHAR 0074
ENCODING 116
SWIDTH 523 0
DWIDTH 8 0
BBX 7 13 0 0
BITMAP
20
20
20
FE
20
20
20
20
20
20
20
22
1C
ENDCHAR
STARTCHAR 0075
ENCODING 117
SWIDTH 654 0
DWIDTH 10 0
BBX 9 10 0 0
BITMAP
8080
8080
8080
8080
8080
8080
8080
8080
4380
3C80
ENDCHAR
STARTCHAR 0076
ENCODING 118
SWIDTH 654 0
DWIDTH 10 0
BBX 9 10 0 0
BITMAP
8080
8080
C280
4200
4200
1400
1400
0800
0800
0800
ENDCHAR
STARTCHAR 0077
ENCODING 119
SWIDTH 785 0
DWIDTH 12 0
BBX 11 10 0 0
BITMAP
8420
8420
8420
8420
4A40
4A40
4A40
1080
1080
1080
ENDCHAR
STARTCHAR 0078
ENCODING 120
SWIDTH 654 0
DWIDTH 10 0
BBX 9 10 0 0
BITMAP
8080
4200
0000
1400
0800
0800
1400
0000
4200
8080
ENDCHAR
STARTCHAR 0079
ENCODING 121
SWIDTH 654 0
DWIDTH 10 0
BBX 9 12 0 -2
BITMAP
8080
8080
C280
4200
1400
1400
1400
0800
0800
0800
1000
C000
ENDCHAR
STARTCHAR 007A
ENCODING 122
SWIDTH 589 0
DWIDTH 9 0
BBX 8 10 0 0
BITMAP
FF
03
03
00
08
10
40
80
80
FF
ENDCHAR
STARTCHAR 007B
ENCODING 123
SWIDTH 392 0
DWIDTH 6 0
BBX 5 14 0 0
BITMAP
38
40
40
40
40
40
00
80
40
40
40
40
40
38
ENDCHAR
STARTCHAR 007C
ENCODING 124
SWIDTH 392 0
DWIDTH 6 0
BBX 1 14 2 0
BITMAP
80
80
80
80
80
80
80
80
80
80
80
80
80
80
ENDCHAR
STARTCHAR 007D
ENCODING 125
SWIDTH 392 0
DWIDTH 6 0
BBX 5 14 0 0
BITMAP
E0
10
10
10
10
10
00
08
10
10
10
10
10
E0
ENDCHAR
STARTCHAR 007E
ENCODING 126
SWIDTH 654 0
DWIDTH 10 0
BBX 9 4 0 5
BITMAP
7000
0000
8880
0700
ENDCHAR
STARTCHAR 00A0
ENCODING 160
SWIDTH 392 0
DWIDTH 6 0
BBX 0 0 0 0
BITMAP
ENDCHAR
STARTCHAR 00A1
ENCODING 161
SWIDTH 392 0
DWIDTH 6 0
BBX 1 14 2 -4
BITMAP
80
80
80
00
80
80
80
80
80
80
80
80
80
80
ENDCHAR
STARTCHAR 00A2
ENCODING 162
SWIDTH 654 0
DWIDTH 10 0
BBX 9 14 0 0
BITMAP
0200
0000
1C00
4600
8480
8800
8800
8800
8800
9080
7200
1000
1C00
4000
ENDCHAR
STARTCHAR 00A3
ENCODING 163
SWIDTH 720 0
DWIDTH 11 0
BBX 10 11 0 1
BITMAP
0F00
1080
1080
1080
1000
7F00
0800
7840
0840
8840
7780
ENDCHAR
STARTCHAR 00A4
ENCODING 164
SWIDTH 654 0
DWIDTH 10 0
BBX 9 8 0 3
BITMAP
BC80
4200
8080
8080
8080
8080
4200
BC80
ENDCHAR
STARTCHAR 00A5
ENCODING 165
SWIDTH 654 0
DWIDTH 10 0
BBX 9 11 0 1
BITMAP
8080
4200
1400
0800
0800
FF80
0800
FF80
0800
0800
0800
ENDCHAR
STARTCHAR 00A6
ENCODING 166
SWIDTH 392 0
DWIDTH 6 0
BBX 1 14 2 0
BITMAP
80
80
80
80
80
80
00
00
80
80
80
80
80
80
ENDCHAR
STARTCHAR 00A7
ENCODING 167
SWIDTH 392 0
DWIDTH 6 0
BBX 5 14 0 0
BITMAP
70
88
80
80
40
90
88
88
48
10
08
08
88
70
ENDCHAR
STARTCHAR 00A8
ENCODING 168
SWIDTH 327 0
DWIDTH 5 0
BBX 4 1 0 13
BITMAP
90
ENDCHAR
STARTCHAR 00A9
ENCODING 169
SWIDTH 981 0
DWIDTH 15 0
BBX 14 14 0 0
BITMAP
0FC0
0000
1020
4790
8844
9004
9004
9004
9004
8844
4790
0000
1020
0FC0
ENDCHAR
STARTCHAR 00AA
ENCODING 170
SWIDTH 392 0
DWIDTH 6 0
BBX 5 9 0 6
BITMAP
F0
08
08
78
88
78
00
00
F8
ENDCHAR
STARTCHAR 00AB
ENCODING 171
SWIDTH 589 0
DWIDTH 9 0
BBX 8 6 0 4
BITMAP
13
40
00
88
40
13
ENDCHAR
STARTCHAR 00AC
ENCODING 172
SWIDTH 785 0
DWIDTH 12 0
BBX 11 7 0 0
BITMAP
FFE0
0020
0020
0020
0020
0020
0020
ENDCHAR
STARTCHAR 00AE
ENCODING 174
SWIDTH 785 0
DWIDTH 12 0
BBX 11 11 0 4
BITMAP
1F80
4040
9E20
9020
90A0
9E20
9220
90A0
0000
4040
1F80
ENDCHAR
STARTCHAR 00AF
ENCODING 175
SWIDTH 523 0
DWIDTH 8 0
BBX 7 1 0 13
BITMAP
FE
ENDCHAR
STARTCHAR 00B0
ENCODING 176
SWIDTH 327 0
DWIDTH 5 0
BBX 4 4 0 10
BITMAP
40
00
B0
40
ENDCHAR
STARTCHAR 00B1
ENCODING 177
SWIDTH 654 0
DWIDTH 10 0
BBX 9 11 0 1
BITMAP
0800
0800
0800
0800
FF80
0800
0800
0800
0800
0000
FF80
ENDCHAR
STARTCHAR 00B2
ENCODING 178
SWIDTH 392 0
DWIDTH 6 0
BBX 5 7 0 8
BITMAP
F0
08
10
40
80
80
F8
ENDCHAR
STARTCHAR 00B3
ENCODING 179
SWIDTH 392 0
DWIDTH 6 0
BBX 5 7 0 8
BITMAP
F0
08
70
08
08
08
F0
ENDCHAR
STARTCHAR 00B4
ENCODING 180
SWIDTH 327 0
DWIDTH 5 0
BBX 4 4 0 13
BITMAP
30
00
40
80
ENDCHAR
STARTCHAR 00B5
ENCODING 181
SWIDTH 523 0
DWIDTH 8 0
BBX 7 12 0 -2
BITMAP
82
82
82
82
82
82
82
C6
82
BA
80
80
ENDCHAR
STARTCHAR 00B6
ENCODING 182
SWIDTH 589 0
DWIDTH 9 0
BBX 8 14 0 0
BITMAP
7F
F9
F9
F9
F9
79
09
09
09
09
09
09
09
09
ENDCHAR
STARTCHAR 00B7
ENCODING 183
SWIDTH 392 0
DWIDTH 6 0
BBX 1 1 2 6
BITMAP
80
ENDCHAR
STARTCHAR 00B8
ENCODING 184
SWIDTH 327 0
DWIDTH 5 0
BBX 4 4 0 -2
BITMAP
20
00
10
E0
ENDCHAR
STARTCHAR 00B9
ENCODING 185
SWIDTH 327 0
DWIDTH 5 0
BBX 4 7 0 8
BITMAP
E0
20
20
20
20
20
F0
ENDCHAR
STARTCHAR 00BA
ENCODING 186
SWIDTH 392 0
DWIDTH 6 0
BBX 5 9 0 6
BITMAP
70
88
88
88
88
70
00
00
F8
ENDCHAR
STARTCHAR 00BB
ENCODING 187
SWIDTH 589 0
DWIDTH 9 0
BBX 8 6 0 4
BITMAP
88
40
00
13
40
88
ENDCHAR
STARTCHAR 00BC
ENCODING 188
SWIDTH 1047 0
DWIDTH 16 0
BBX 12 13 2 0
BITMAP
C000
4020
4040
4080
4000
4220
4460
08A0
1220
0220
43F0
8020
0020
ENDCHAR
STARTCHAR 00BD
ENCODING 189
SWIDTH 981 0
DWIDTH 15 0
BBX 12 14 2 0
BITMAP
C000
4000
4020
4040
4080
4200
4000
44E0
0810
1020
4040
0000
8080
00F0
ENDCHAR
STARTCHAR 00BE
ENCODING 190
SWIDTH 981 0
DWIDTH 15 0
BBX 14 13 0 0
BITMAP
F000
0808
3020
0840
0800
0888
F138
0448
0888
0088
10FC
2008
0008
ENDCHAR
STARTCHAR 00BF
ENCODING 191
SWIDTH 458 0
DWIDTH 7 0
BBX 6 13 0 -3
BITMAP
10
10
10
10
10
10
10
40
00
84
84
84
78
ENDCHAR
STARTCHAR 00C0
ENCODING 192
SWIDTH 654 0
DWIDTH 10 0
BBX 9 17 0 0
BITMAP
1000
0800
0000
0800
1400
1400
1400
1400
4200
4200
4200
4200
7E00
8080
8080
8080
8080
ENDCHAR
STARTCHAR 00C1
ENCODING 193
SWIDTH 654 0
DWIDTH 10 0
BBX 9 17 0 0
BITMAP
0400
0800
0000
0800
1400
1400
1400
1400
4200
4200
4200
4200
7E00
8080
8080
8080
8080
ENDCHAR
STARTCHAR 00C2
ENCODING 194
SWIDTH 654 0
DWIDTH 10 0
BBX 9 17 0 0
BITMAP
0800
1400
0000
0800
1400
1400
1400
1400
4200
4200
4200
4200
7E00
8080
8080
8080
8080
ENDCHAR
STARTCHAR 00C3
ENCODING 195
SWIDTH 654 0
DWIDTH 10 0
BBX 9 17 0 0
BITMAP
1880
4600
0000
0800
1400
1400
1400
1400
4200
4200
4200
4200
7E00
8080
8080
8080
8080
ENDCHAR
STARTCHAR 00C4
ENCODING 196
SWIDTH 654 0
DWIDTH 10 0
BBX 9 16 0 0
BITMAP
1400
0000
0800
1400
1400
1400
1400
4200
4200
4200
4200
7E00
8080
8080
8080
8080
ENDCHAR
STARTCHAR 00C5
ENCODING 197
SWIDTH 654 0
DWIDTH 10 0
BBX 9 17 0 0
BITMAP
0800
1400
0800
0800
1400
1400
1400
1400
4200
4200
4200
4200
7E00
8080
8080
8080
8080
ENDCHAR
STARTCHAR 00C6
ENCODING 198
SWIDTH 850 0
DWIDTH 13 0
BBX 11 14 0 0
BITMAP
0FE0
1400
1400
1400
1400
4400
4400
47E0
4400
7C00
8400
8400
8400
87E0
ENDCHAR
STARTCHAR 00C7
ENCODING 199
SWIDTH 720 0
DWIDTH 11 0
BBX 10 16 0 -2
BITMAP
3F00
4080
8040
8000
8000
8000
8000
8000
8000
8000
8040
4080
0000
3F00
0400
3800
ENDCHAR
STARTCHAR 00C8
ENCODING 200
SWIDTH 589 0
DWIDTH 9 0
BBX 7 17 0 0
BITMAP
10
08
00
FE
80
80
80
80
80
80
FE
80
80
80
80
80
FE
ENDCHAR
STARTCHAR 00C9
ENCODING 201
SWIDTH 589 0
DWIDTH 9 0
BBX 7 17 0 0
BITMAP
08
10
00
FE
80
80
80
80
80
80
FE
80
80
80
80
80
FE
ENDCHAR
STARTCHAR 00CA
ENCODING 202
SWIDTH 589 0
DWIDTH 9 0
BBX 7 17 0 0
BITMAP
08
14
00
FE
80
80
80
80
80
80
FE
80
80
80
80
80
FE
ENDCHAR
STARTCHAR 00CB
ENCODING 203
SWIDTH 654 0
DWIDTH 10 0
BBX 7 16 0 0
BITMAP
14
00
FE
80
80
80
80
80
80
FE
80
80
80
80
80
FE
ENDCHAR
STARTCHAR 00CC
ENCODING 204
SWIDTH 327 0
DWIDTH 5 0
BBX 4 17 0 0
BITMAP
80
40
00
F0
40
40
40
40
40
40
40
40
40
40
40
40
F0
ENDCHAR
STARTCHAR 00CD
ENCODING 205
SWIDTH 327 0
DWIDTH 5 0
BBX 4 17 0 0
BITMAP
10
20
00
F0
20
20
20
20
20
20
20
20
20
20
20
20
F0
ENDCHAR
STARTCHAR 00CE
ENCODING 206
SWIDTH 327 0
DWIDTH 5 0
BBX 4 17 0 0
BITMAP
40
B0
00
F0
40
40
40
40
40
40
40
40
40
40
40
40
F0
ENDCHAR
STARTCHAR 00CF
ENCODING 207
SWIDTH 327 0
DWIDTH 5 0
BBX 4 16 0 0
BITMAP
B0
00
F0
40
40
40
40
40
40
40
40
40
40
40
40
F0
ENDCHAR
STARTCHAR 00D0
ENCODING 208
SWIDTH 850 0
DWIDTH 13 0
BBX 12 14 0 0
BITMAP
1F80
1000
1040
1010
1010
1010
1010
FC10
1010
1010
1010
1010
1040
1F80
ENDCHAR
STARTCHAR 00D1
ENCODING 209
SWIDTH 654 0
DWIDTH 10 0
BBX 9 17 0 0
BITMAP
1880
4700
0000
8080
C080
C080
C080
9080
9080
9080
8880
8480
8480
8380
8380
8380
8080
ENDCHAR
STARTCHAR 00D2
ENCODING 210
SWIDTH 720 0
DWIDTH 11 0
BBX 10 17 0 0
BITMAP
0800
0400
0000
3F00
0000
4080
8040
8040
8040
8040
8040
8040
8040
8040
8040
4080
3F00
ENDCHAR
STARTCHAR 00D3
ENCODING 211
SWIDTH 720 0
DWIDTH 11 0
BBX 10 17 0 0
BITMAP
0400
0800
0000
3F00
0000
4080
8040
8040
8040
8040
8040
8040
8040
8040
8040
4080
3F00
ENDCHAR
STARTCHAR 00D4
ENCODING 212
SWIDTH 720 0
DWIDTH 11 0
BBX 10 17 0 0
BITMAP
0400
0A00
0000
3E00
0000
4080
8040
8040
8040
8040
8040
8040
8040
8040
8040
4080
3E00
ENDCHAR
STARTCHAR 00D5
ENCODING 213
SWIDTH 720 0
DWIDTH 11 0
BBX 10 17 0 0
BITMAP
3880
4700
0000
3F00
0000
4080
8040
8040
8040
8040
8040
8040
8040
8040
8040
4080
3F00
ENDCHAR
STARTCHAR 00D6
ENCODING 214
SWIDTH 720 0
DWIDTH 11 0
BBX 10 16 0 0
BITMAP
1200
0000
1E00
0000
4080
8040
8040
8040
8040
8040
8040
8040
8040
8040
4080
1E00
ENDCHAR
STARTCHAR 00D7
ENCODING 215
SWIDTH 654 0
DWIDTH 10 0
BBX 9 8 0 3
BITMAP
8080
4200
1400
0000
0800
1400
4200
8080
ENDCHAR
STARTCHAR 00D8
ENCODING 216
SWIDTH 785 0
DWIDTH 12 0
BBX 11 14 0 0
BITMAP
0E00
0000
10A0
4040
40C0
4240
4040
4440
4840
7040
6040
6040
9080
0E00
ENDCHAR
STARTCHAR 00D9
ENCODING 217
SWIDTH 654 0
DWIDTH 10 0
BBX 9 17 0 0
BITMAP
1000
0800
0000
8080
8080
8080
8080
8080
8080
8080
8080
8080
8080
8080
8080
4000
1E00
ENDCHAR
STARTCHAR 00DA
ENCODING 218
SWIDTH 654 0
DWIDTH 10 0
BBX 9 17 0 0
BITMAP
0400
0800
0000
8080
8080
8080
8080
8080
8080
8080
8080
8080
8080
8080
8080
4200
3C00
ENDCHAR
STARTCHAR 00DB
ENCODING 219
SWIDTH 654 0
DWIDTH 10 0
BBX 9 17 0 0
BITMAP
0800
1400
0000
8080
8080
8080
8080
8080
8080
8080
8080
8080
8080
8080
8080
4200
1C00
ENDCHAR
STARTCHAR 00DC
ENCODING 220
SWIDTH 654 0
DWIDTH 10 0
BBX 9 16 0 0
BITMAP
1400
0000
8080
8080
8080
8080
8080
8080
8080
8080
8080
8080
8080
8080
4200
1C00
ENDCHAR
STARTCHAR 00DD
ENCODING 221
SWIDTH 654 0
DWIDTH 10 0
BBX 9 17 0 0
BITMAP
0400
0800
0000
8080
8080
8080
4200
4200
1400
1400
1400
0800
0800
0800
0800
0800
0800
ENDCHAR
STARTCHAR 00DE
ENCODING 222
SWIDTH 654 0
DWIDTH 10 0
BBX 9 14 0 0
BITMAP
8000
8000
8000
FC00
8200
8080
8080
8080
8200
FC00
8000
8000
8000
8000
ENDCHAR
STARTCHAR 00DF
ENCODING 223
SWIDTH 523 0
DWIDTH 8 0
BBX 7 14 0 0
BITMAP
38
00
44
82
82
84
80
B8
84
82
82
82
84
B8
ENDCHAR
STARTCHAR 00E0
ENCODING 224
SWIDTH 523 0
DWIDTH 8 0
BBX 7 14 0 0
BITMAP
10
00
08
00
7C
82
02
02
1E
42
82
82
86
7A
ENDCHAR
STARTCHAR 00E1
ENCODING 225
SWIDTH 523 0
DWIDTH 8 0
BBX 7 14 0 0
BITMAP
08
00
10
00
7C
82
02
02
1E
42
82
82
86
7A
ENDCHAR
STARTCHAR 00E2
ENCODING 226
SWIDTH 589 0
DWIDTH 9 0
BBX 8 14 0 0
BITMAP
08
00
10
00
7E
83
03
03
1F
43
83
83
81
79
ENDCHAR
STARTCHAR 00E3
ENCODING 227
SWIDTH 523 0
DWIDTH 8 0
BBX 7 14 0 0
BITMAP
72
00
8C
00
7C
82
02
02
3E
42
82
82
86
7A
ENDCHAR
STARTCHAR 00E4
ENCODING 228
SWIDTH 523 0
DWIDTH 8 0
BBX 7 12 0 0
BITMAP
44
00
7C
82
02
02
3E
42
82
82
86
7A
ENDCHAR
STARTCHAR 00E5
ENCODING 229
SWIDTH 589 0
DWIDTH 9 0
BBX 8 15 0 0
BITMAP
08
10
00
08
00
7E
83
03
03
1F
43
83
83
81
79
ENDCHAR
STARTCHAR 00E6
ENCODING 230
SWIDTH 654 0
DWIDTH 10 0
BBX 9 10 0 0
BITMAP
7700
8880
0880
0880
3F80
4800
8800
8800
8880
7700
ENDCHAR
STARTCHAR 00E7
ENCODING 231
SWIDTH 523 0
DWIDTH 8 0
BBX 7 12 0 -2
BITMAP
3C
42
80
80
80
80
80
42
00
3C
04
38
ENDCHAR
STARTCHAR 00E8
ENCODING 232
SWIDTH 654 0
DWIDTH 10 0
BBX 9 14 0 0
BITMAP
1000
0000
0800
0000
1E00
4000
8080
8080
FF80
8000
8080
0000
4000
1E00
ENDCHAR
STARTCHAR 00E9
ENCODING 233
SWIDTH 654 0
DWIDTH 10 0
BBX 9 14 0 0
BITMAP
0400
0000
0800
0000
3C00
4200
8080
8080
FF80
8000
8080
0000
4200
3C00
ENDCHAR
STARTCHAR 00EA
ENCODING 234
SWIDTH 654 0
DWIDTH 10 0
BBX 9 14 0 0
BITMAP
0800
0000
1400
0000
1C00
4200
8080
8080
FF80
8000
8080
0000
4200
1C00
ENDCHAR
STARTCHAR 00EB
ENCODING 235
SWIDTH 654 0
DWIDTH 10 0
BBX 9 12 0 0
BITMAP
1400
0000
1C00
4200
8080
8080
FF80
8000
8080
0000
4200
1C00
ENDCHAR
STARTCHAR 00EC
ENCODING 236
SWIDTH 327 0
DWIDTH 5 0
BBX 2 14 0 0
BITMAP
80
00
40
00
40
40
40
40
40
40
40
40
40
40
ENDCHAR
STARTCHAR 00ED
ENCODING 237
SWIDTH 327 0
DWIDTH 5 0
BBX 2 14 2 0
BITMAP
40
00
80
00
80
80
80
80
80
80
80
80
80
80
ENDCHAR
STARTCHAR 00EE
ENCODING 238
SWIDTH 327 0
DWIDTH 5 0
BBX 4 14 0 0
BITMAP
40
00
B0
00
40
40
40
40
40
40
40
40
40
40
ENDCHAR
STARTCHAR 00EF
ENCODING 239
SWIDTH 327 0
DWIDTH 5 0
BBX 4 12 0 0
BITMAP
B0
00
40
40
40
40
40
40
40
40
40
40
ENDCHAR
STARTCHAR 00F0
ENCODING 240
SWIDTH 654 0
DWIDTH 10 0
BBX 9 14 0 0
BITMAP
7200
0000
0C00
1200
0080
1C80
0080
4380
8080
8080
8080
8080
4200
1C00
ENDCHAR
STARTCHAR 00F1
ENCODING 241
SWIDTH 523 0
DWIDTH 8 0
BBX 7 14 0 0
BITMAP
72
00
8C
00
BC
C2
82
82
82
82
82
82
82
82
ENDCHAR
STARTCHAR 00F2
ENCODING 242
SWIDTH 654 0
DWIDTH 10 0
BBX 9 14 0 0
BITMAP
1000
0000
0800
0000
1E00
4000
8080
8080
8080
8080
8080
0000
4000
1E00
ENDCHAR
STARTCHAR 00F3
ENCODING 243
SWIDTH 654 0
DWIDTH 10 0
BBX 9 14 0 0
BITMAP
0400
0000
0800
0000
3C00
4200
8080
8080
8080
8080
8080
0000
4200
3C00
ENDCHAR
STARTCHAR 00F4
ENCODING 244
SWIDTH 654 0
DWIDTH 10 0
BBX 9 14 0 0
BITMAP
0800
0000
1400
0000
1C00
4200
8080
8080
8080
8080
8080
0000
4200
1C00
ENDCHAR
STARTCHAR 00F5
ENCODING 245
SWIDTH 654 0
DWIDTH 10 0
BBX 9 14 0 0
BITMAP
3A00
0000
4400
0000
3C00
4200
8080
8080
8080
8080
8080
0000
4200
3C00
ENDCHAR
STARTCHAR 00F6
ENCODING 246
SWIDTH 654 0
DWIDTH 10 0
BBX 9 12 0 0
BITMAP
1400
0000
1C00
4200
8080
8080
8080
8080
8080
0000
4200
1C00
ENDCHAR
STARTCHAR 00F7
ENCODING 247
SWIDTH 654 0
DWIDTH 10 0
BBX 9 9 0 3
BITMAP
0800
0000
0000
0000
FF80
0000
0000
0000
0800
ENDCHAR
STARTCHAR 00F8
ENCODING 248
SWIDTH 654 0
DWIDTH 10 0
BBX 9 10 0 0
BITMAP
1C80
4200
0000
8480
8880
8880
9080
0000
4200
9C00
ENDCHAR
STARTCHAR 00F9
ENCODING 249
SWIDTH 654 0
DWIDTH 10 0
BBX 9 14 0 0
BITMAP
1000
0000
0800
0000
8080
8080
8080
8080
8080
8080
8080
8080
4180
1E80
ENDCHAR
STARTCHAR 00FA
ENCODING 250
SWIDTH 654 0
DWIDTH 10 0
BBX 9 14 0 0
BITMAP
0400
0000
0800
0000
8080
8080
8080
8080
8080
8080
8080
8080
4380
3C80
ENDCHAR
STARTCHAR 00FB
ENCODING 251
SWIDTH 720 0
DWIDTH 11 0
BBX 10 14 0 0
BITMAP
0800
0000
1000
0000
80C0
80C0
80C0
80C0
80C0
80C0
80C0
80C0
41C0
1EC0
ENDCHAR
STARTCHAR 00FC
ENCODING 252
SWIDTH 654 0
DWIDTH 10 0
BBX 9 12 0 0
BITMAP
1400
0000
8080
8080
8080
8080
8080
8080
8080
8080
4380
1C80
ENDCHAR
STARTCHAR 00FD
ENCODING 253
SWIDTH 654 0
DWIDTH 10 0
BBX 9 16 0 -2
BITMAP
0400
0800
0000
0000
8080
8080
C280
4200
1400
1400
1400
0800
0800
0800
1000
C000
ENDCHAR
STARTCHAR 00FE
ENCODING 254
SWIDTH 589 0
DWIDTH 9 0
BBX 9 15 0 -2
BITMAP
8000
8000
8000
BC00
C200
8080
8080
8080
8080
8080
C200
8000
BC00
8000
8000
ENDCHAR
STARTCHAR 00FF
ENCODING 255
SWIDTH 654 0
DWIDTH 10 0
BBX 9 15 0 -2
BITMAP
1400
0000
0000
8080
8080
C280
4200
1400
1400
1400
0800
0800
0800
1000
C000
ENDCHAR
STARTCHAR 0100
ENCODING 256
SWIDTH 654 0
DWIDTH 10 0
BBX 9 16 0 0
BITMAP
7E00
0000
0800
1400
1400
1400
1400
4200
4200
4200
4200
7E00
8080
8080
8080
8080
ENDCHAR
STARTCHAR 0101
ENCODING 257
SWIDTH 523 0
DWIDTH 8 0
BBX 7 12 0 0
BITMAP
7C
00
7C
82
02
02
3E
42
82
82
86
7A
ENDCHAR
STARTCHAR 0102
ENCODING 258
SWIDTH 654 0
DWIDTH 10 0
BBX 9 17 0 0
BITMAP
1200
0C00
0000
0800
1400
1400
1400
1400
4200
4200
4200
4200
7E00
8080
8080
8080
8080
ENDCHAR
STARTCHAR 0103
ENCODING 259
SWIDTH 523 0
DWIDTH 8 0
BBX 7 14 0 0
BITMAP
44
00
38
00
7C
82
02
02
3E
42
82
82
86
7A
ENDCHAR
STARTCHAR 0104
ENCODING 260
SWIDTH 720 0
DWIDTH 11 0
BBX 11 16 0 -2
BITMAP
0800
1400
1400
1400
1400
4200
4200
4200
4200
7E00
8080
8080
8080
8080
0200
00E0
ENDCHAR
STARTCHAR 0105
ENCODING 261
SWIDTH 589 0
DWIDTH 9 0
BBX 9 12 0 -2
BITMAP
7C00
8200
0200
3E00
0200
8200
8200
8600
0200
7A00
0400
0380
ENDCHAR
STARTCHAR 0106
ENCODING 262
SWIDTH 720 0
DWIDTH 11 0
BBX 10 17 0 0
BITMAP
0400
0800
0000
3F00
0000
4080
8040
8000
8000
8000
8000
8000
8000
8040
0000
4080
3F00
ENDCHAR
STARTCHAR 0107
ENCODING 263
SWIDTH 523 0
DWIDTH 8 0
BBX 7 14 0 0
BITMAP
04
00
08
00
3C
42
80
80
80
80
80
00
42
3C
ENDCHAR
STARTCHAR 0108
ENCODING 264
SWIDTH 720 0
DWIDTH 11 0
BBX 10 17 0 0
BITMAP
0400
0A00
0000
3E00
0000
4080
8040
8000
8000
8000
8000
8000
8000
8040
0000
4080
3E00
ENDCHAR
STARTCHAR 0109
ENCODING 265
SWIDTH 589 0
DWIDTH 9 0
BBX 8 14 0 0
BITMAP
08
00
10
00
1E
43
80
80
80
80
80
00
43
1E
ENDCHAR
STARTCHAR 010A
ENCODING 266
SWIDTH 720 0
DWIDTH 11 0
BBX 8 16 0 0
BITMAP
04
00
3E
00
41
80
80
80
80
80
80
80
80
00
41
3E
ENDCHAR
STARTCHAR 010B
ENCODING 267
SWIDTH 523 0
DWIDTH 8 0
BBX 7 12 0 0
BITMAP
08
00
3C
42
80
80
80
80
80
00
42
3C
ENDCHAR
STARTCHAR 010C
ENCODING 268
SWIDTH 720 0
DWIDTH 11 0
BBX 10 17 0 0
BITMAP
0A00
0400
0000
3E00
0000
4080
8040
8000
8000
8000
8000
8000
8000
8040
0000
4080
3E00
ENDCHAR
STARTCHAR 010D
ENCODING 269
SWIDTH 589 0
DWIDTH 9 0
BBX 8 14 0 0
BITMAP
10
00
08
00
1E
43
80
80
80
80
80
00
43
1E
ENDCHAR
STARTCHAR 010E
ENCODING 270
SWIDTH 654 0
DWIDTH 10 0
BBX 9 17 0 0
BITMAP
1400
0800
0000
FC00
8000
8200
8080
8080
8080
8080
8080
8080
8080
8080
8080
8200
FC00
ENDCHAR
STARTCHAR 010F
ENCODING 271
SWIDTH 654 0
DWIDTH 10 0
BBX 10 17 0 0
BITMAP
0240
0080
0000
0080
0080
0080
0080
3C80
4380
8080
8080
8080
8080
8080
0080
4380
3C80
ENDCHAR
STARTCHAR 0110
ENCODING 272
SWIDTH 850 0
DWIDTH 13 0
BBX 12 14 0 0
BITMAP
1F80
1000
1040
1010
1010
1010
1010
FC10
1010
1010
1010
1010
1040
1F80
ENDCHAR
STARTCHAR 0111
ENCODING 273
SWIDTH 850 0
DWIDTH 13 0
BBX 11 14 0 0
BITMAP
0080
0080
07E0
0080
3C80
4380
8080
8080
8080
8080
8080
0080
4380
3C80
ENDCHAR
STARTCHAR 0112
ENCODING 274
SWIDTH 589 0
DWIDTH 9 0
BBX 7 16 0 0
BITMAP
7C
00
FE
80
80
80
80
80
80
FE
80
80
80
80
80
FE
ENDCHAR
STARTCHAR 0113
ENCODING 275
SWIDTH 654 0
DWIDTH 10 0
BBX 9 12 0 0
BITMAP
7E00
0000
3C00
4200
8080
8080
FF80
8000
8080
0000
4200
3C00
ENDCHAR
STARTCHAR 0114
ENCODING 276
SWIDTH 589 0
DWIDTH 9 0
BBX 7 17 0 0
BITMAP
44
38
00
FE
80
80
80
80
80
80
FE
80
80
80
80
80
FE
ENDCHAR
STARTCHAR 0115
ENCODING 277
SWIDTH 654 0
DWIDTH 10 0
BBX 9 14 0 0
BITMAP
1200
0000
0C00
0000
1C00
4200
8080
8080
FF80
8000
8080
0000
4200
1C00
ENDCHAR
STARTCHAR 0116
ENCODING 278
SWIDTH 589 0
DWIDTH 9 0
BBX 7 16 0 0
BITMAP
08
00
FE
80
80
80
80
80
80
FE
80
80
80
80
80
FE
ENDCHAR
STARTCHAR 0117
ENCODING 279
SWIDTH 654 0
DWIDTH 10 0
BBX 9 12 0 0
BITMAP
0800
0000
3C00
4200
8080
8080
FF80
8000
8080
0000
4200
3C00
ENDCHAR
STARTCHAR 0118
ENCODING 280
SWIDTH 589 0
DWIDTH 9 0
BBX 7 16 0 -2
BITMAP
FE
80
80
80
80
80
FE
80
80
80
80
80
80
FE
10
0C
ENDCHAR
STARTCHAR 0119
ENCODING 281
SWIDTH 654 0
DWIDTH 10 0
BBX 9 12 0 -2
BITMAP
1C00
4200
8080
FF80
8000
8000
8080
4200
0000
1C00
1000
0C00
ENDCHAR
STARTCHAR 011A
ENCODING 282
SWIDTH 589 0
DWIDTH 9 0
BBX 7 17 0 0
BITMAP
14
08
00
FE
80
80
80
80
80
80
FE
80
80
80
80
80
FE
ENDCHAR
STARTCHAR 011B
ENCODING 283
SWIDTH 654 0
DWIDTH 10 0
BBX 9 14 0 0
BITMAP
1400
0000
0800
0000
1C00
4200
8080
8080
FF80
8000
8080
0000
4200
1C00
ENDCHAR
STARTCHAR 011C
ENCODING 284
SWIDTH 720 0
DWIDTH 11 0
BBX 10 17 0 0
BITMAP
0400
0A00
0000
3E00
0000
4080
8040
8000
8000
8000
87C0
8040
8040
8040
8040
4080
3E00
ENDCHAR
STARTCHAR 011D
ENCODING 285
SWIDTH 654 0
DWIDTH 10 0
BBX 9 16 0 -2
BITMAP
0800
1400
0000
0000
1D80
4380
8080
8080
8080
8080
4380
1C80
0080
8080
4200
1C00
ENDCHAR
STARTCHAR 011E
ENCODING 286
SWIDTH 720 0
DWIDTH 11 0
BBX 10 17 0 0
BITMAP
1200
0C00
0000
1E00
0000
4080
8040
8000
8000
8000
87C0
8040
8040
8040
8040
4080
1E00
ENDCHAR
STARTCHAR 011F
ENCODING 287
SWIDTH 654 0
DWIDTH 10 0
BBX 9 16 0 -2
BITMAP
1200
0C00
0000
0000
1D80
4380
8080
8080
8080
8080
4380
1C80
0080
8080
4200
1C00
ENDCHAR
STARTCHAR 0120
ENCODING 288
SWIDTH 720 0
DWIDTH 11 0
BBX 9 16 0 0
BITMAP
0400
0000
3E00
0000
4100
8000
8000
8000
8000
8780
8080
8080
8080
8000
4100
3E00
ENDCHAR
STARTCHAR 0121
ENCODING 289
SWIDTH 654 0
DWIDTH 10 0
BBX 9 15 0 -2
BITMAP
0800
0000
0000
3D80
4380
8080
8080
8080
8080
4380
3C80
0080
8080
4200
3C00
ENDCHAR
STARTCHAR 0122
ENCODING 290
SWIDTH 720 0
DWIDTH 11 0
BBX 10 16 0 -2
BITMAP
3F00
4080
8040
8000
8000
8000
87C0
8040
8040
8040
8040
4080
0000
3F00
0400
0800
ENDCHAR
STARTCHAR 0123
ENCODING 291
SWIDTH 654 0
DWIDTH 10 0
BBX 9 16 0 -2
BITMAP
0400
0800
0000
0000
3D80
4380
8080
8080
8080
8080
4380
3C80
0080
8080
4200
3C00
ENDCHAR
STARTCHAR 0124
ENCODING 292
SWIDTH 654 0
DWIDTH 10 0
BBX 9 16 0 0
BITMAP
0800
1400
8080
8080
8080
8080
8080
8080
8080
FF80
8080
8080
8080
8080
8080
8080
ENDCHAR
STARTCHAR 0125
ENCODING 293
SWIDTH 589 0
DWIDTH 9 0
BBX 9 17 -1 0
BITMAP
4000
9000
0000
4000
4000
4000
4000
4E00
7080
4080
4080
4080
4080
4080
4080
4080
4080
ENDCHAR
STARTCHAR 0126
ENCODING 294
SWIDTH 850 0
DWIDTH 13 0
BBX 12 14 0 0
BITMAP
2020
2020
2020
FFF0
2020
2020
2020
3FE0
2020
2020
2020
2020
2020
2020
ENDCHAR
STARTCHAR 0127
ENCODING 295
SWIDTH 720 0
DWIDTH 11 0
BBX 10 14 0 0
BITMAP
1000
1000
FC00
1000
1780
1840
1040
1040
1040
1040
1040
1040
1040
1040
ENDCHAR
STARTCHAR 0128
ENCODING 296
SWIDTH 327 0
DWIDTH 5 0
BBX 5 17 0 0
BITMAP
48
90
00
F0
40
40
40
40
40
40
40
40
40
40
40
40
F0
ENDCHAR
STARTCHAR 0129
ENCODING 297
SWIDTH 327 0
DWIDTH 5 0
BBX 5 14 0 0
BITMAP
48
00
90
00
40
40
40
40
40
40
40
40
40
40
ENDCHAR
STARTCHAR 012A
ENCODING 298
SWIDTH 327 0
DWIDTH 5 0
BBX 4 16 0 0
BITMAP
F0
00
F0
20
20
20
20
20
20
20
20
20
20
20
20
F0
ENDCHAR
STARTCHAR 012B
ENCODING 299
SWIDTH 327 0
DWIDTH 5 0
BBX 4 12 0 0
BITMAP
F0
00
20
20
20
20
20
20
20
20
20
20
ENDCHAR
STARTCHAR 012C
ENCODING 300
SWIDTH 327 0
DWIDTH 5 0
BBX 5 17 0 0
BITMAP
88
70
00
F0
40
40
40
40
40
40
40
40
40
40
40
40
F0
ENDCHAR
STARTCHAR 012D
ENCODING 301
SWIDTH 327 0
DWIDTH 5 0
BBX 5 14 0 0
BITMAP
88
00
70
00
40
40
40
40
40
40
40
40
40
40
ENDCHAR
STARTCHAR 012E
ENCODING 302
SWIDTH 327 0
DWIDTH 5 0
BBX 5 16 0 -2
BITMAP
F0
20
20
20
20
20
20
20
20
20
20
20
20
F0
20
18
ENDCHAR
STARTCHAR 012F
ENCODING 303
SWIDTH 327 0
DWIDTH 5 0
BBX 4 16 0 -2
BITMAP
40
40
40
00
40
40
40
40
40
40
40
40
40
40
80
70
ENDCHAR
STARTCHAR 0130
ENCODING 304
SWIDTH 327 0
DWIDTH 5 0
BBX 4 16 0 0
BITMAP
20
00
F0
20
20
20
20
20
20
20
20
20
20
20
20
F0
ENDCHAR
STARTCHAR 0131
ENCODING 305
SWIDTH 392 0
DWIDTH 6 0
BBX 1 10 2 0
BITMAP
80
80
80
80
80
80
80
80
80
80
ENDCHAR
STARTCHAR 0132
ENCODING 306
SWIDTH 916 0
DWIDTH 14 0
BBX 11 14 2 0
BITMAP
8020
8020
8020
8020
8020
8020
8020
8020
8020
8020
8820
8000
8440
8380
ENDCHAR
STARTCHAR 0133
ENCODING 307
SWIDTH 654 0
DWIDTH 10 0
BBX 5 15 2 -2
BITMAP
88
00
00
88
88
88
88
88
88
88
88
88
88
08
F0
ENDCHAR
STARTCHAR 0134
ENCODING 308
SWIDTH 589 0
DWIDTH 9 0
BBX 9 17 0 0
BITMAP
0200
0480
0000
0200
0200
0200
0200
0200
0200
0200
0200
0200
0200
8200
0000
4400
3800
ENDCHAR
STARTCHAR 0135
ENCODING 309
SWIDTH 458 0
DWIDTH 7 0
BBX 6 16 0 -2
BITMAP
08
14
00
00
08
08
08
08
08
08
08
08
08
08
88
70
ENDCHAR
STARTCHAR 0136
ENCODING 310
SWIDTH 654 0
DWIDTH 10 0
BBX 9 16 0 -2
BITMAP
8080
8200
8400
8000
8800
9000
E000
9000
8000
8800
8400
8200
8000
8080
0800
1000
ENDCHAR
STARTCHAR 0137
ENCODING 311
SWIDTH 523 0
DWIDTH 8 0
BBX 7 16 0 -2
BITMAP
80
80
80
80
82
84
88
F0
90
90
88
84
80
82
08
10
ENDCHAR
STARTCHAR 0138
ENCODING 312
SWIDTH 523 0
DWIDTH 8 0
BBX 7 10 0 0
BITMAP
82
84
80
88
F0
90
88
80
84
82
ENDCHAR
STARTCHAR 0139
ENCODING 313
SWIDTH 589 0
DWIDTH 9 0
BBX 7 17 0 0
BITMAP
40
80
00
80
80
80
80
80
80
80
80
80
80
80
80
80
FE
ENDCHAR
STARTCHAR 013A
ENCODING 314
SWIDTH 327 0
DWIDTH 5 0
BBX 2 17 2 0
BITMAP
40
80
00
80
80
80
80
80
80
80
80
80
80
80
80
80
80
ENDCHAR
STARTCHAR 013B
ENCODING 315
SWIDTH 589 0
DWIDTH 9 0
BBX 7 16 0 -2
BITMAP
80
80
80
80
80
80
80
80
80
80
80
80
80
FE
08
10
ENDCHAR
STARTCHAR 013C
ENCODING 316
SWIDTH 327 0
DWIDTH 5 0
BBX 2 16 2 -2
BITMAP
80
80
80
80
80
80
80
80
80
80
80
80
80
80
40
80
ENDCHAR
STARTCHAR 013D
ENCODING 317
SWIDTH 589 0
DWIDTH 9 0
BBX 9 17 -1 0
BITMAP
9000
4000
0000
4000
4000
4000
4000
4000
4000
4000
4000
4000
4000
4000
4000
4000
7F80
ENDCHAR
STARTCHAR 013E
ENCODING 318
SWIDTH 327 0
DWIDTH 5 0
BBX 4 17 0 0
BITMAP
B0
40
00
40
40
40
40
40
40
40
40
40
40
40
40
40
40
ENDCHAR
STARTCHAR 013F
ENCODING 319
SWIDTH 589 0
DWIDTH 9 0
BBX 7 14 0 0
BITMAP
80
80
80
80
80
80
80
88
80
80
80
80
80
FE
ENDCHAR
STARTCHAR 0140
ENCODING 320
SWIDTH 458 0
DWIDTH 7 0
BBX 4 14 2 0
BITMAP
80
80
80
80
80
80
80
90
80
80
80
80
80
80
ENDCHAR
STARTCHAR 0141
ENCODING 321
SWIDTH 720 0
DWIDTH 11 0
BBX 10 14 0 0
BITMAP
1000
1000
1000
1000
1400
1800
1000
1000
7000
9000
1000
1000
1000
1FC0
ENDCHAR
STARTCHAR 0142
ENCODING 322
SWIDTH 523 0
DWIDTH 8 0
BBX 7 14 0 0
BITMAP
10
10
10
10
12
1C
10
10
70
90
10
10
10
10
ENDCHAR
STARTCHAR 0143
ENCODING 323
SWIDTH 720 0
DWIDTH 11 0
BBX 10 17 0 0
BITMAP
0600
0800
0000
80C0
E0C0
E0C0
E0C0
90C0
90C0
90C0
88C0
86C0
86C0
81C0
81C0
81C0
80C0
ENDCHAR
STARTCHAR 0144
ENCODING 324
SWIDTH 523 0
DWIDTH 8 0
BBX 7 14 0 0
BITMAP
08
00
10
00
9E
E0
82
82
82
82
82
82
82
80
ENDCHAR
STARTCHAR 0145
ENCODING 325
SWIDTH 720 0
DWIDTH 11 0
BBX 10 16 0 -2
BITMAP
80C0
E0C0
E0C0
E0C0
90C0
90C0
98C0
86C0
86C0
86C0
81C0
81C0
81C0
80C0
0800
1000
ENDCHAR
STARTCHAR 0146
ENCODING 326
SWIDTH 523 0
DWIDTH 8 0
BBX 7 12 0 -2
BITMAP
9E
E0
82
82
82
82
82
82
82
80
08
10
ENDCHAR
STARTCHAR 0147
ENCODING 327
SWIDTH 720 0
DWIDTH 11 0
BBX 10 16 0 0
BITMAP
1600
0800
80C0
E0C0
E0C0
E0C0
90C0
90C0
90C0
88C0
86C0
86C0
81C0
81C0
81C0
80C0
ENDCHAR
STARTCHAR 0148
ENCODING 328
SWIDTH 523 0
DWIDTH 8 0
BBX 7 14 0 0
BITMAP
14
00
08
00
9C
E2
82
82
82
82
82
82
82
82
ENDCHAR
STARTCHAR 0149
ENCODING 329
SWIDTH 523 0
DWIDTH 8 0
BBX 7 14 0 0
BITMAP
40
00
80
00
BC
C2
82
82
82
82
82
82
82
82
ENDCHAR
STARTCHAR 014A
ENCODING 330
SWIDTH 654 0
DWIDTH 10 0
BBX 9 16 0 -2
BITMAP
8080
E080
E080
E080
9080
9080
9880
8480
8480
8480
8380
8380
8380
8080
0080
0700
ENDCHAR
STARTCHAR 014B
ENCODING 331
SWIDTH 523 0
DWIDTH 8 0
BBX 7 12 0 -2
BITMAP
BC
C2
82
82
82
82
82
82
82
82
02
1C
ENDCHAR
STARTCHAR 014C
ENCODING 332
SWIDTH 720 0
DWIDTH 11 0
BBX 10 16 0 0
BITMAP
3F00
0000
3F00
0000
4080
8040
8040
8040
8040
8040
8040
8040
8040
8040
4080
3F00
ENDCHAR
STARTCHAR 014D
ENCODING 333
SWIDTH 654 0
DWIDTH 10 0
BBX 9 12 0 0
BITMAP
3C00
0000
3C00
4200
8080
8080
8080
8080
8080
0000
4200
3C00
ENDCHAR
STARTCHAR 014E
ENCODING 334
SWIDTH 720 0
DWIDTH 11 0
BBX 10 17 0 0
BITMAP
1200
0C00
0000
1E00
0000
4080
8040
8040
8040
8040
8040
8040
8040
8040
8040
4080
1E00
ENDCHAR
STARTCHAR 014F
ENCODING 335
SWIDTH 654 0
DWIDTH 10 0
BBX 9 14 0 0
BITMAP
1200
0000
0C00
0000
1C00
4200
8080
8080
8080
8080
8080
0000
4200
1C00
ENDCHAR
STARTCHAR 0150
ENCODING 336
SWIDTH 720 0
DWIDTH 11 0
BBX 10 17 0 0
BITMAP
0A00
1400
0000
1E00
0000
4080
8040
8040
8040
8040
8040
8040
8040
8040
8040
4080
1E00
ENDCHAR
STARTCHAR 0151
ENCODING 337
SWIDTH 654 0
DWIDTH 10 0
BBX 9 14 0 0
BITMAP
0A00
0000
1400
0000
1C00
4200
8080
8080
8080
8080
8080
0000
4200
1C00
ENDCHAR
STARTCHAR 0152
ENCODING 338
SWIDTH 850 0
DWIDTH 13 0
BBX 11 14 0 0
BITMAP
3FE0
0400
4400
8400
8400
8400
8400
87E0
8400
8400
8400
8400
4400
3FE0
ENDCHAR
STARTCHAR 0153
ENCODING 339
SWIDTH 654 0
DWIDTH 10 0
BBX 9 10 0 0
BITMAP
7700
8880
8880
8880
8F80
8800
8800
8800
8880
7700
ENDCHAR
STARTCHAR 0154
ENCODING 340
SWIDTH 654 0
DWIDTH 10 0
BBX 9 17 0 0
BITMAP
0800
1000
0000
FC00
8000
8200
8080
8080
8080
8080
8200
FC00
8800
8400
8000
8200
8080
ENDCHAR
STARTCHAR 0155
ENCODING 341
SWIDTH 458 0
DWIDTH 7 0
BBX 6 14 0 0
BITMAP
10
00
40
00
9C
E0
80
80
80
80
80
80
80
80
ENDCHAR
STARTCHAR 0156
ENCODING 342
SWIDTH 654 0
DWIDTH 10 0
BBX 9 16 0 -2
BITMAP
FC00
8200
8080
8080
8080
8080
8200
FC00
8800
8800
8400
8200
8000
8080
0800
1000
ENDCHAR
STARTCHAR 0157
ENCODING 343
SWIDTH 458 0
DWIDTH 7 0
BBX 6 12 0 -2
BITMAP
9C
E0
80
80
80
80
80
80
80
80
10
40
ENDCHAR
STARTCHAR 0158
ENCODING 344
SWIDTH 654 0
DWIDTH 10 0
BBX 9 17 0 0
BITMAP
1400
0800
0000
FC00
8000
8200
8080
8080
8080
8080
8200
FC00
8800
8400
8000
8200
8080
ENDCHAR
STARTCHAR 0159
ENCODING 345
SWIDTH 458 0
DWIDTH 7 0
BBX 6 14 0 0
BITMAP
48
00
10
00
98
E4
80
80
80
80
80
80
80
80
ENDCHAR
STARTCHAR 015A
ENCODING 346
SWIDTH 654 0
DWIDTH 10 0
BBX 9 17 0 0
BITMAP
0400
0800
0000
3C00
0000
4200
8080
8000
4000
0000
3C00
0080
0080
8080
0000
4200
3C00
ENDCHAR
STARTCHAR 015B
ENCODING 347
SWIDTH 523 0
DWIDTH 8 0
BBX 7 14 0 0
BITMAP
08
00
10
00
7E
80
80
80
70
0E
00
02
80
7E
ENDCHAR
STARTCHAR 015C
ENCODING 348
SWIDTH 654 0
DWIDTH 10 0
BBX 9 17 0 0
BITMAP
0800
1400
0000
1C00
0000
4200
8080
8000
4000
0000
1C00
0080
0080
8080
0000
4200
1C00
ENDCHAR
STARTCHAR 015D
ENCODING 349
SWIDTH 523 0
DWIDTH 8 0
BBX 7 14 0 0
BITMAP
08
00
14
00
7C
82
80
80
70
0C
02
02
82
7C
ENDCHAR
STARTCHAR 015E
ENCODING 350
SWIDTH 654 0
DWIDTH 10 0
BBX 9 16 0 -2
BITMAP
3C00
4200
8080
8000
8000
4000
3C00
0200
0080
0080
8080
4200
0000
3C00
0400
3800
ENDCHAR
STARTCHAR 015F
ENCODING 351
SWIDTH 523 0
DWIDTH 8 0
BBX 7 12 0 -2
BITMAP
7E
80
80
70
00
04
02
80
00
7E
08
70
ENDCHAR
STARTCHAR 0160
ENCODING 352
SWIDTH 654 0
DWIDTH 10 0
BBX 9 17 0 0
BITMAP
1400
0800
0000
1C00
0000
4200
8080
8000
4000
0000
1C00
0080
0080
8080
0000
4200
1C00
ENDCHAR
STARTCHAR 0161
ENCODING 353
SWIDTH 523 0
DWIDTH 8 0
BBX 7 14 0 0
BITMAP
14
00
08
00
7C
82
80
80
70
0C
02
02
82
7C
ENDCHAR
STARTCHAR 0162
ENCODING 354
SWIDTH 720 0
DWIDTH 11 0
BBX 10 16 0 -2
BITMAP
FFC0
0400
0400
0400
0400
0400
0400
0400
0400
0400
0400
0400
0400
0400
0200
1C00
ENDCHAR
STARTCHAR 0163
ENCODING 355
SWIDTH 523 0
DWIDTH 8 0
BBX 7 15 0 -2
BITMAP
20
20
20
FE
20
20
20
20
20
20
22
00
1C
04
38
ENDCHAR
STARTCHAR 0164
ENCODING 356
SWIDTH 720 0
DWIDTH 11 0
BBX 9 17 0 0
BITMAP
1200
0800
0000
FF80
0800
0800
0800
0800
0800
0800
0800
0800
0800
0800
0800
0800
0800
ENDCHAR
STARTCHAR 0165
ENCODING 357
SWIDTH 458 0
DWIDTH 7 0
BBX 6 16 0 0
BITMAP
90
40
00
40
40
40
FC
40
40
40
40
40
40
40
40
1C
ENDCHAR
STARTCHAR 0166
ENCODING 358
SWIDTH 654 0
DWIDTH 10 0
BBX 9 14 0 0
BITMAP
FF80
0800
0800
0800
0800
0800
0800
7F00
0800
0800
0800
0800
0800
0800
ENDCHAR
STARTCHAR 0167
ENCODING 359
SWIDTH 523 0
DWIDTH 8 0
BBX 7 13 0 0
BITMAP
20
20
20
FE
20
20
FE
20
20
20
20
22
1C
ENDCHAR
STARTCHAR 0168
ENCODING 360
SWIDTH 720 0
DWIDTH 11 0
BBX 10 17 0 0
BITMAP
3880
4700
0000
8040
8040
8040
8040
8040
8040
8040
8040
8040
8040
8040
8040
4080
3F00
ENDCHAR
STARTCHAR 0169
ENCODING 361
SWIDTH 654 0
DWIDTH 10 0
BBX 9 14 0 0
BITMAP
3A00
0000
4400
0000
8080
8080
8080
8080
8080
8080
8080
8080
4380
3D80
ENDCHAR
STARTCHAR 016A
ENCODING 362
SWIDTH 720 0
DWIDTH 11 0
BBX 10 16 0 0
BITMAP
3F00
0000
8040
8040
8040
8040
8040
8040
8040
8040
8040
8040
8040
8040
4080
3F00
ENDCHAR
STARTCHAR 016B
ENCODING 363
SWIDTH 654 0
DWIDTH 10 0
BBX 9 12 0 0
BITMAP
3C00
0000
8080
8080
8080
8080
8080
8080
8080
8080
4380
3C80
ENDCHAR
STARTCHAR 016C
ENCODING 364
SWIDTH 720 0
DWIDTH 11 0
BBX 10 17 0 0
BITMAP
1200
0C00
0000
8040
8040
8040
8040
8040
8040
8040
8040
8040
8040
8040
8040
4080
1E00
ENDCHAR
STARTCHAR 016D
ENCODING 365
SWIDTH 654 0
DWIDTH 10 0
BBX 9 14 0 0
BITMAP
1200
0000
0C00
0000
8080
8080
8080
8080
8080
8080
8080
8080
4380
1D80
ENDCHAR
STARTCHAR 016E
ENCODING 366
SWIDTH 720 0
DWIDTH 11 0
BBX 10 17 0 0
BITMAP
0400
0A00
0400
8040
8040
8040
8040
8040
8040
8040
8040
8040
8040
8040
8040
4080
3E00
ENDCHAR
STARTCHAR 016F
ENCODING 367
SWIDTH 720 0
DWIDTH 11 0
BBX 10 14 0 0
BITMAP
0800
0000
1000
0800
80C0
80C0
80C0
80C0
80C0
80C0
80C0
80C0
41C0
1EC0
ENDCHAR
STARTCHAR 0170
ENCODING 368
SWIDTH 654 0
DWIDTH 10 0
BBX 9 17 0 0
BITMAP
0A00
1400
0000
8080
8080
8080
8080
8080
8080
8080
8080
8080
8080
8080
8080
4200
1C00
ENDCHAR
STARTCHAR 0171
ENCODING 369
SWIDTH 654 0
DWIDTH 10 0
BBX 9 14 0 0
BITMAP
0A00
0000
1400
0000
8080
8080
8080
8080
8080
8080
8080
8080
4380
1D80
ENDCHAR
STARTCHAR 0172
ENCODING 370
SWIDTH 654 0
DWIDTH 10 0
BBX 9 16 0 -2
BITMAP
8080
8080
8080
8080
8080
8080
8080
8080
8080
8080
8080
4200
0000
1C00
1000
0C00
ENDCHAR
STARTCHAR 0173
ENCODING 371
SWIDTH 720 0
DWIDTH 11 0
BBX 11 12 0 -2
BITMAP
8080
8080
8080
8080
8080
8080
8080
4380
0080
3C80
0200
00E0
ENDCHAR
STARTCHAR 0174
ENCODING 372
SWIDTH 785 0
DWIDTH 12 0
BBX 11 17 0 0
BITMAP
0400
0A00
0000
8420
8420
8420
8420
8420
4A40
4A40
4A40
4A40
4A40
1080
1080
1080
1080
ENDCHAR
STARTCHAR 0175
ENCODING 373
SWIDTH 785 0
DWIDTH 12 0
BBX 11 14 0 0
BITMAP
0400
0000
0A00
0000
8420
8420
8420
8420
4A40
4A40
4A40
1080
1080
1080
ENDCHAR
STARTCHAR 0176
ENCODING 374
SWIDTH 654 0
DWIDTH 10 0
BBX 9 17 0 0
BITMAP
0800
1400
0000
8080
8080
8080
4200
4200
1400
1400
1400
0800
0800
0800
0800
0800
0800
ENDCHAR
STARTCHAR 0177
ENCODING 375
SWIDTH 654 0
DWIDTH 10 0
BBX 9 16 0 -2
BITMAP
0800
1400
0000
0000
8080
8080
C280
4200
1400
1400
1400
0800
0800
0800
1000
C000
ENDCHAR
STARTCHAR 0178
ENCODING 376
SWIDTH 654 0
DWIDTH 10 0
BBX 9 16 0 0
BITMAP
1400
0000
8080
8080
8080
4200
4200
1400
1400
1400
0800
0800
0800
0800
0800
0800
ENDCHAR
STARTCHAR 0179
ENCODING 377
SWIDTH 589 0
DWIDTH 9 0
BBX 7 17 0 0
BITMAP
08
10
00
FE
04
04
04
08
08
18
10
10
40
40
C0
80
FE
ENDCHAR
STARTCHAR 017A
ENCODING 378
SWIDTH 589 0
DWIDTH 9 0
BBX 8 14 0 0
BITMAP
08
00
10
00
FF
03
03
00
08
10
40
80
80
FF
ENDCHAR
STARTCHAR 017B
ENCODING 379
SWIDTH 589 0
DWIDTH 9 0
BBX 7 16 0 0
BITMAP
08
00
FE
04
04
04
08
08
18
10
10
40
40
C0
80
FE
ENDCHAR
STARTCHAR 017C
ENCODING 380
SWIDTH 589 0
DWIDTH 9 0
BBX 8 12 0 0
BITMAP
08
00
FF
03
03
00
08
10
40
80
80
FF
ENDCHAR
STARTCHAR 017D
ENCODING 381
SWIDTH 589 0
DWIDTH 9 0
BBX 7 17 0 0
BITMAP
14
08
00
FE
04
04
04
08
08
18
10
10
40
40
C0
80
FE
ENDCHAR
STARTCHAR 017E
ENCODING 382
SWIDTH 589 0
DWIDTH 9 0
BBX 8 14 0 0
BITMAP
10
00
08
00
FF
03
03
00
08
10
40
80
80
FF
ENDCHAR
STARTCHAR 017F
ENCODING 383
SWIDTH 327 0
DWIDTH 5 0
BBX 4 14 0 0
BITMAP
70
80
80
80
80
80
80
80
80
80
80
80
80
80
ENDCHAR
STARTCHAR 0186
ENCODING 390
SWIDTH 720 0
DWIDTH 11 0
BBX 10 14 0 0
BITMAP
3F00
0000
4080
8040
0040
0040
0040
0040
0040
0040
8040
0000
4080
3F00
ENDCHAR
STARTCHAR 018E
ENCODING 398
SWIDTH 589 0
DWIDTH 9 0
BBX 8 14 0 0
BITMAP
FF
01
01
01
01
01
01
FF
01
01
01
01
01
FF
ENDCHAR
STARTCHAR 018F
ENCODING 399
SWIDTH 720 0
DWIDTH 11 0
BBX 10 14 0 0
BITMAP
3F00
0000
4080
8040
0040
0040
0040
FFC0
8040
8040
8040
8040
4080
3F00
ENDCHAR
STARTCHAR 0190
ENCODING 400
SWIDTH 720 0
DWIDTH 11 0
BBX 10 14 0 0
BITMAP
3F00
0000
4080
8040
8000
4000
0000
3F00
8000
8000
8040
0000
4080
3F00
ENDCHAR
STARTCHAR 0191
ENCODING 401
SWIDTH 589 0
DWIDTH 9 0
BBX 10 16 -2 -2
BITMAP
1FC0
1000
1000
1000
1000
1000
1FC0
1000
1000
1000
1000
1000
1000
1000
1000
E000
ENDCHAR
STARTCHAR 0192
ENCODING 402
SWIDTH 523 0
DWIDTH 8 0
BBX 7 16 0 -2
BITMAP
0E
10
10
10
FE
10
10
10
10
10
10
10
10
10
10
E0
ENDCHAR
STARTCHAR 0198
ENCODING 408
SWIDTH 654 0
DWIDTH 10 0
BBX 9 14 0 0
BITMAP
7080
0000
8200
8400
8800
9000
8000
E000
9000
8800
8400
8000
8200
8080
ENDCHAR
STARTCHAR 0199
ENCODING 409
SWIDTH 523 0
DWIDTH 8 0
BBX 7 14 0 0
BITMAP
70
80
80
80
82
84
80
88
F0
90
88
80
84
82
ENDCHAR
STARTCHAR 019C
ENCODING 412
SWIDTH 785 0
DWIDTH 12 0
BBX 11 14 0 0
BITMAP
8420
8420
8420
8420
8420
8420
8420
8420
8420
8420
8420
8420
8C60
73A0
ENDCHAR
STARTCHAR 019D
ENCODING 413
SWIDTH 654 0
DWIDTH 10 0
BBX 11 16 -2 -2
BITMAP
1020
1C20
1C20
1C20
1420
1420
1120
10A0
10A0
10A0
1060
1060
1060
1020
1000
E000
ENDCHAR
STARTCHAR 019E
ENCODING 414
SWIDTH 523 0
DWIDTH 8 0
BBX 7 12 0 -2
BITMAP
BC
C2
82
82
82
82
82
82
82
82
02
02
ENDCHAR
STARTCHAR 019F
ENCODING 415
SWIDTH 720 0
DWIDTH 11 0
BBX 10 14 0 0
BITMAP
3F00
0000
4080
8040
8040
8040
8040
FFC0
8040
8040
8040
8040
4080
3F00
ENDCHAR
STARTCHAR 01A7
ENCODING 423
SWIDTH 654 0
DWIDTH 10 0
BBX 9 14 0 0
BITMAP
3C00
0000
4200
8080
0080
0200
0000
3C00
8000
8000
8080
0000
4200
3C00
ENDCHAR
STARTCHAR 01A8
ENCODING 424
SWIDTH 523 0
DWIDTH 8 0
BBX 7 10 0 0
BITMAP
7C
82
02
02
0C
70
80
80
82
7C
ENDCHAR
STARTCHAR 01A9
ENCODING 425
SWIDTH 654 0
DWIDTH 10 0
BBX 9 14 0 0
BITMAP
FF80
8000
8000
4000
1000
0800
0000
0400
0800
1000
4000
8000
8000
FF80
ENDCHAR
STARTCHAR 01AE
ENCODING 430
SWIDTH 654 0
DWIDTH 10 0
BBX 9 16 0 -2
BITMAP
FF80
0800
0800
0800
0800
0800
0800
0800
0800
0800
0800
0800
0800
0800
0800
0700
ENDCHAR
STARTCHAR 01B5
ENCODING 437
SWIDTH 589 0
DWIDTH 9 0
BBX 7 14 0 0
BITMAP
FE
04
04
04
08
08
08
FE
10
40
40
C0
80
FE
ENDCHAR
STARTCHAR 01B6
ENCODING 438
SWIDTH 523 0
DWIDTH 8 0
BBX 7 10 0 0
BITMAP
FE
02
02
04
FE
10
40
80
80
FE
ENDCHAR
STARTCHAR 01C0
ENCODING 448
SWIDTH 392 0
DWIDTH 6 0
BBX 1 16 2 -2
BITMAP
80
80
80
80
80
80
80
80
80
80
80
80
80
80
80
80
ENDCHAR
STARTCHAR 01C1
ENCODING 449
SWIDTH 589 0
DWIDTH 9 0
BBX 4 16 2 -2
BITMAP
90
90
90
90
90
90
90
90
90
90
90
90
90
90
90
90
ENDCHAR
STARTCHAR 01C2
ENCODING 450
SWIDTH 523 0
DWIDTH 8 0
BBX 7 16 0 -2
BITMAP
10
10
10
10
10
FE
10
10
10
10
FE
10
10
10
10
10
ENDCHAR
STARTCHAR 01C3
ENCODING 451
SWIDTH 392 0
DWIDTH 6 0
BBX 1 14 2 0
BITMAP
80
80
80
80
80
80
80
80
80
80
00
80
80
80
ENDCHAR
STARTCHAR 01C4
ENCODING 452
SWIDTH 1178 0
DWIDTH 18 0
BBX 16 17 0 0
BITMAP
0012
0004
0000
F87F
8002
8402
8202
8204
8204
8214
8210
8210
8220
8220
8220
8440
F87F
ENDCHAR
STARTCHAR 01C5
ENCODING 453
SWIDTH 1309 0
DWIDTH 20 0
BBX 15 14 2 0
BITMAP
F824
8000
8410
8200
82FE
8204
8204
8204
8210
8210
8220
8220
8420
F8FE
ENDCHAR
STARTCHAR 01C6
ENCODING 454
SWIDTH 1112 0
DWIDTH 17 0
BBX 15 14 0 0
BITMAP
0224
0200
0210
0200
3AFE
4604
8204
8204
8210
8210
8220
0220
4620
3AFE
ENDCHAR
STARTCHAR 01C7
ENCODING 455
SWIDTH 1112 0
DWIDTH 17 0
BBX 16 14 0 0
BITMAP
8001
8001
8001
8001
8001
8001
8001
8001
8001
8001
8041
8000
8022
FE1C
ENDCHAR
STARTCHAR 01C8
ENCODING 456
SWIDTH 785 0
DWIDTH 12 0
BBX 11 16 0 -2
BITMAP
8000
8020
8000
8000
8020
8020
8020
8020
8020
8020
8020
8020
8020
FF20
0020
00C0
ENDCHAR
STARTCHAR 01C9
ENCODING 457
SWIDTH 523 0
DWIDTH 8 0
BBX 5 16 2 -2
BITMAP
80
88
80
80
88
88
88
88
88
88
88
88
88
88
08
70
ENDCHAR
STARTCHAR 01CA
ENCODING 458
SWIDTH 1047 0
DWIDTH 16 0
BBX 15 14 0 0
BITMAP
8202
E202
E202
E202
9202
9202
9A02
8A02
8A02
8602
8602
8602
8242
823C
ENDCHAR
STARTCHAR 01CB
ENCODING 459
SWIDTH 785 0
DWIDTH 12 0
BBX 11 16 0 -2
BITMAP
8200
E220
E200
E200
9220
9220
9A20
8A20
8620
8620
8620
8220
8220
8220
0020
01C0
ENDCHAR
STARTCHAR 01CC
ENCODING 460
SWIDTH 720 0
DWIDTH 11 0
BBX 10 15 0 -2
BITMAP
0040
0000
0000
B840
C440
8440
8440
8440
8440
8440
8440
8440
8440
0040
0380
ENDCHAR
STARTCHAR 01CD
ENCODING 461
SWIDTH 654 0
DWIDTH 10 0
BBX 9 17 0 0
BITMAP
1400
0800
0000
0800
1400
1400
1400
1400
4200
4200
4200
4200
7E00
8080
8080
8080
8080
ENDCHAR
STARTCHAR 01CE
ENCODING 462
SWIDTH 589 0
DWIDTH 9 0
BBX 8 14 0 0
BITMAP
10
00
08
00
7E
83
03
03
1F
43
83
83
81
79
ENDCHAR
STARTCHAR 01CF
ENCODING 463
SWIDTH 327 0
DWIDTH 5 0
BBX 4 17 0 0
BITMAP
B0
40
00
F0
40
40
40
40
40
40
40
40
40
40
40
40
F0
ENDCHAR
STARTCHAR 01D0
ENCODING 464
SWIDTH 327 0
DWIDTH 5 0
BBX 4 14 0 0
BITMAP
B0
00
40
00
40
40
40
40
40
40
40
40
40
40
ENDCHAR
STARTCHAR 01D1
ENCODING 465
SWIDTH 720 0
DWIDTH 11 0
BBX 10 17 0 0
BITMAP
0A00
0400
0000
3E00
0000
4080
8040
8040
8040
8040
8040
8040
8040
8040
8040
4080
3E00
ENDCHAR
STARTCHAR 01D2
ENCODING 466
SWIDTH 654 0
DWIDTH 10 0
BBX 9 14 0 0
BITMAP
1400
0000
0800
0000
1C00
4200
8080
8080
8080
8080
8080
0000
4200
1C00
ENDCHAR
STARTCHAR 01D3
ENCODING 467
SWIDTH 720 0
DWIDTH 11 0
BBX 10 17 0 0
BITMAP
0A00
0400
0000
8040
8040
8040
8040
8040
8040
8040
8040
8040
8040
8040
8040
4080
3E00
ENDCHAR
STARTCHAR 01D4
ENCODING 468
SWIDTH 720 0
DWIDTH 11 0
BBX 10 14 0 0
BITMAP
1000
0000
0800
0000
80C0
80C0
80C0
80C0
80C0
80C0
80C0
80C0
41C0
1EC0
ENDCHAR
STARTCHAR 01D5
ENCODING 469
SWIDTH 720 0
DWIDTH 11 0
BBX 10 19 0 0
BITMAP
1E00
0000
0000
1200
0000
8040
8040
8040
8040
8040
8040
8040
8040
8040
8040
8040
8040
4080
1E00
ENDCHAR
STARTCHAR 01D6
ENCODING 470
SWIDTH 654 0
DWIDTH 10 0
BBX 9 15 0 0
BITMAP
1C00
0000
0000
1400
0000
8080
8080
8080
8080
8080
8080
8080
8080
4380
1C80
ENDCHAR
STARTCHAR 01D7
ENCODING 471
SWIDTH 720 0
DWIDTH 11 0
BBX 10 20 0 0
BITMAP
0400
0800
0000
0000
1200
0000
8040
8040
8040
8040
8040
8040
8040
8040
8040
8040
8040
8040
4080
1E00
ENDCHAR
STARTCHAR 01D8
ENCODING 472
SWIDTH 720 0
DWIDTH 11 0
BBX 10 15 0 1
BITMAP
0800
0000
0000
1000
0000
80C0
80C0
80C0
80C0
80C0
80C0
80C0
80C0
41C0
1EC0
ENDCHAR
STARTCHAR 01D9
ENCODING 473
SWIDTH 720 0
DWIDTH 11 0
BBX 10 20 0 0
BITMAP
0A00
0400
0000
0000
1200
0000
8040
8040
8040
8040
8040
8040
8040
8040
8040
8040
8040
8040
4080
1E00
ENDCHAR
STARTCHAR 01DA
ENCODING 474
SWIDTH 720 0
DWIDTH 11 0
BBX 10 16 0 0
BITMAP
1000
0800
0000
0000
1000
0000
80C0
80C0
80C0
80C0
80C0
80C0
80C0
80C0
41C0
1EC0
ENDCHAR
STARTCHAR 01DB
ENCODING 475
SWIDTH 720 0
DWIDTH 11 0
BBX 10 20 0 0
BITMAP
0800
0400
0000
0000
1200
0000
8040
8040
8040
8040
8040
8040
8040
8040
8040
8040
8040
8040
4080
1E00
ENDCHAR
STARTCHAR 01DC
ENCODING 476
SWIDTH 720 0
DWIDTH 11 0
BBX 10 16 0 0
BITMAP
1000
0800
0000
0000
1000
0000
80C0
80C0
80C0
80C0
80C0
80C0
80C0
80C0
41C0
1EC0
ENDCHAR
STARTCHAR 01DD
ENCODING 477
SWIDTH 654 0
DWIDTH 10 0
BBX 9 10 0 0
BITMAP
3C00
4200
8080
0080
0080
FF80
8080
0000
4200
3C00
ENDCHAR
STARTCHAR 01DE
ENCODING 478
SWIDTH 654 0
DWIDTH 10 0
BBX 9 19 0 0
BITMAP
7E00
0000
0000
1400
0000
0800
1400
1400
1400
1400
4200
4200
4200
4200
7E00
8080
8080
8080
8080
ENDCHAR
STARTCHAR 01DF
ENCODING 479
SWIDTH 523 0
DWIDTH 8 0
BBX 7 15 0 0
BITMAP
7E
00
00
14
00
7C
82
02
02
1E
42
82
82
86
7A
ENDCHAR
STARTCHAR 01E0
ENCODING 480
SWIDTH 654 0
DWIDTH 10 0
BBX 9 19 0 0
BITMAP
7E00
0000
0000
0800
0000
0800
1400
1400
1400
1400
4200
4200
4200
4200
7E00
8080
8080
8080
8080
ENDCHAR
STARTCHAR 01E1
ENCODING 481
SWIDTH 523 0
DWIDTH 8 0
BBX 7 15 0 0
BITMAP
7E
00
00
08
00
7C
82
02
02
3E
42
82
82
86
7A
ENDCHAR
STARTCHAR 01E2
ENCODING 482
SWIDTH 850 0
DWIDTH 13 0
BBX 11 16 0 0
BITMAP
0FC0
0000
0FE0
1400
1400
1400
1400
4400
4400
47E0
4400
7C00
8400
8400
8400
87E0
ENDCHAR
STARTCHAR 01E3
ENCODING 483
SWIDTH 654 0
DWIDTH 10 0
BBX 9 12 0 0
BITMAP
7F00
0000
7700
8880
0880
0880
3F80
4800
8800
8800
8880
7700
ENDCHAR
STARTCHAR 01E6
ENCODING 486
SWIDTH 720 0
DWIDTH 11 0
BBX 10 17 0 0
BITMAP
0A00
0400
0000
3E00
0000
4080
8040
8000
8000
8000
87C0
8040
8040
8040
8040
4080
3E00
ENDCHAR
STARTCHAR 01E7
ENCODING 487
SWIDTH 654 0
DWIDTH 10 0
BBX 9 16 0 -2
BITMAP
1400
0800
0000
0000
1D80
4380
8080
8080
8080
8080
4380
1C80
0080
8080
4200
1C00
ENDCHAR
STARTCHAR 01E8
ENCODING 488
SWIDTH 654 0
DWIDTH 10 0
BBX 9 16 0 0
BITMAP
1400
0800
8080
8000
8200
8400
8800
9000
8000
E000
9000
8800
8400
8000
8200
8080
ENDCHAR
STARTCHAR 01E9
ENCODING 489
SWIDTH 589 0
DWIDTH 9 0
BBX 8 16 0 0
BITMAP
48
10
80
80
80
80
83
80
80
88
F0
90
88
80
80
83
ENDCHAR
STARTCHAR 01F0
ENCODING 496
SWIDTH 392 0
DWIDTH 6 0
BBX 6 16 0 -2
BITMAP
44
38
00
00
08
08
08
08
08
08
08
08
08
08
88
70
ENDCHAR
STARTCHAR 01F1
ENCODING 497
SWIDTH 1178 0
DWIDTH 18 0
BBX 16 14 0 0
BITMAP
F87F
8002
8402
8202
8204
8204
8214
8210
8210
8220
8220
8220
8440
F87F
ENDCHAR
STARTCHAR 01F2
ENCODING 498
SWIDTH 1112 0
DWIDTH 17 0
BBX 15 14 0 0
BITMAP
F800
8000
8400
8200
82FE
8204
8204
8204
8210
8210
8220
8220
8420
F8FE
ENDCHAR
STARTCHAR 01F3
ENCODING 499
SWIDTH 1112 0
DWIDTH 17 0
BBX 15 14 0 0
BITMAP
0200
0200
0200
0200
3AFE
4604
8204
8204
8210
8210
8220
0220
4620
3AFE
ENDCHAR
STARTCHAR 01F4
ENCODING 500
SWIDTH 720 0
DWIDTH 11 0
BBX 10 17 0 0
BITMAP
0400
0800
0000
3F00
0000
4080
8040
8000
8000
8000
87C0
8040
8040
8040
8040
4080
3F00
ENDCHAR
STARTCHAR 01F5
ENCODING 501
SWIDTH 654 0
DWIDTH 10 0
BBX 9 16 0 -2
BITMAP
0400
0800
0000
0000
3D80
4380
8080
8080
8080
8080
4380
3C80
0080
8080
4200
3C00
ENDCHAR
STARTCHAR 01F8
ENCODING 504
SWIDTH 720 0
DWIDTH 11 0
BBX 10 16 0 0
BITMAP
1000
0800
80C0
E0C0
E0C0
E0C0
90C0
90C0
90C0
88C0
86C0
86C0
81C0
81C0
81C0
80C0
ENDCHAR
STARTCHAR 01F9
ENCODING 505
SWIDTH 523 0
DWIDTH 8 0
BBX 7 14 0 0
BITMAP
10
00
08
00
9E
E0
82
82
82
82
82
82
82
80
ENDCHAR
STARTCHAR 01FA
ENCODING 506
SWIDTH 654 0
DWIDTH 10 0
BBX 9 17 0 0
BITMAP
0400
0800
1400
0800
1400
1400
1400
1400
4200
4200
4200
4200
7E00
8080
8080
8080
8080
ENDCHAR
STARTCHAR 01FB
ENCODING 507
SWIDTH 589 0
DWIDTH 9 0
BBX 8 15 0 1
BITMAP
08
10
00
08
00
7E
83
03
03
1F
43
83
83
81
79
ENDCHAR
STARTCHAR 01FC
ENCODING 508
SWIDTH 850 0
DWIDTH 13 0
BBX 11 17 0 0
BITMAP
0040
0080
0000
0FE0
1400
1400
1400
1400
4400
4400
47E0
4400
7C00
8400
8400
8400
87E0
ENDCHAR
STARTCHAR 01FD
ENCODING 509
SWIDTH 654 0
DWIDTH 10 0
BBX 9 14 0 0
BITMAP
0400
0000
0800
0000
7700
8880
0880
0880
3F80
4800
8800
8800
8880
7700
ENDCHAR
STARTCHAR 01FE
ENCODING 510
SWIDTH 785 0
DWIDTH 12 0
BBX 11 17 0 0
BITMAP
0200
0400
0000
0E00
0000
10A0
4040
40C0
4240
4040
4440
4840
7040
6040
6040
9080
0E00
ENDCHAR
STARTCHAR 01FF
ENCODING 511
SWIDTH 654 0
DWIDTH 10 0
BBX 9 14 0 0
BITMAP
0400
0000
0800
0000
1C80
4200
0000
8480
8880
8880
9080
0000
4200
9C00
ENDCHAR
STARTCHAR 0200
ENCODING 512
SWIDTH 654 0
DWIDTH 10 0
BBX 9 17 0 0
BITMAP
4800
1400
0000
0800
1400
1400
1400
1400
4200
4200
4200
4200
7E00
8080
8080
8080
8080
ENDCHAR
STARTCHAR 0201
ENCODING 513
SWIDTH 589 0
DWIDTH 9 0
BBX 8 14 0 0
BITMAP
48
00
10
00
7E
83
03
03
1F
43
83
83
81
79
ENDCHAR
STARTCHAR 0202
ENCODING 514
SWIDTH 654 0
DWIDTH 10 0
BBX 9 16 0 0
BITMAP
0C00
1200
0800
1400
1400
1400
1400
4200
4200
4200
4200
7E00
8080
8080
8080
8080
ENDCHAR
STARTCHAR 0203
ENCODING 515
SWIDTH 523 0
DWIDTH 8 0
BBX 7 14 0 0
BITMAP
38
00
44
00
7C
82
02
02
3E
42
82
82
86
7A
ENDCHAR
STARTCHAR 0204
ENCODING 516
SWIDTH 589 0
DWIDTH 9 0
BBX 7 17 0 0
BITMAP
48
14
00
FE
80
80
80
80
80
80
FE
80
80
80
80
80
FE
ENDCHAR
STARTCHAR 0205
ENCODING 517
SWIDTH 654 0
DWIDTH 10 0
BBX 9 14 0 0
BITMAP
4800
0000
1400
0000
1C00
4200
8080
8080
FF80
8000
8080
0000
4200
1C00
ENDCHAR
STARTCHAR 0206
ENCODING 518
SWIDTH 589 0
DWIDTH 9 0
BBX 7 17 0 0
BITMAP
38
44
00
FE
80
80
80
80
80
80
FE
80
80
80
80
80
FE
ENDCHAR
STARTCHAR 0207
ENCODING 519
SWIDTH 654 0
DWIDTH 10 0
BBX 9 14 0 0
BITMAP
0C00
0000
1200
0000
1C00
4200
8080
8080
FF80
8000
8080
0000
4200
1C00
ENDCHAR
STARTCHAR 0208
ENCODING 520
SWIDTH 327 0
DWIDTH 5 0
BBX 5 17 -1 0
BITMAP
90
48
00
78
10
10
10
10
10
10
10
10
10
10
10
10
78
ENDCHAR
STARTCHAR 0209
ENCODING 521
SWIDTH 327 0
DWIDTH 5 0
BBX 5 14 -1 0
BITMAP
90
00
48
00
10
10
10
10
10
10
10
10
10
10
ENDCHAR
STARTCHAR 020A
ENCODING 522
SWIDTH 327 0
DWIDTH 5 0
BBX 5 17 0 0
BITMAP
70
88
00
F0
40
40
40
40
40
40
40
40
40
40
40
40
F0
ENDCHAR
STARTCHAR 020B
ENCODING 523
SWIDTH 327 0
DWIDTH 5 0
BBX 5 14 0 0
BITMAP
70
00
88
00
40
40
40
40
40
40
40
40
40
40
ENDCHAR
STARTCHAR 020C
ENCODING 524
SWIDTH 720 0
DWIDTH 11 0
BBX 10 17 0 0
BITMAP
1400
0A00
0000
1E00
0000
4080
8040
8040
8040
8040
8040
8040
8040
8040
8040
4080
1E00
ENDCHAR
STARTCHAR 020D
ENCODING 525
SWIDTH 654 0
DWIDTH 10 0
BBX 9 14 0 0
BITMAP
4800
0000
1400
0000
1C00
4200
8080
8080
8080
8080
8080
0000
4200
1C00
ENDCHAR
STARTCHAR 020E
ENCODING 526
SWIDTH 720 0
DWIDTH 11 0
BBX 10 17 0 0
BITMAP
0C00
1200
0000
1E00
0000
4080
8040
8040
8040
8040
8040
8040
8040
8040
8040
4080
1E00
ENDCHAR
STARTCHAR 020F
ENCODING 527
SWIDTH 654 0
DWIDTH 10 0
BBX 9 14 0 0
BITMAP
0C00
0000
1200
0000
1C00
4200
8080
8080
8080
8080
8080
0000
4200
1C00
ENDCHAR
STARTCHAR 0210
ENCODING 528
SWIDTH 654 0
DWIDTH 10 0
BBX 9 17 0 0
BITMAP
4800
1400
0000
FC00
8000
8200
8080
8080
8080
8080
8200
FC00
8800
8400
8000
8200
8080
ENDCHAR
STARTCHAR 0211
ENCODING 529
SWIDTH 458 0
DWIDTH 7 0
BBX 6 14 0 0
BITMAP
90
00
48
00
98
E4
80
80
80
80
80
80
80
80
ENDCHAR
STARTCHAR 0212
ENCODING 530
SWIDTH 654 0
DWIDTH 10 0
BBX 9 17 0 0
BITMAP
3800
4400
0000
FC00
8000
8200
8080
8080
8080
8080
8200
FC00
8800
8400
8000
8200
8080
ENDCHAR
STARTCHAR 0213
ENCODING 531
SWIDTH 458 0
DWIDTH 7 0
BBX 6 14 0 0
BITMAP
38
00
44
00
B8
C4
80
80
80
80
80
80
80
80
ENDCHAR
STARTCHAR 0214
ENCODING 532
SWIDTH 720 0
DWIDTH 11 0
BBX 10 16 0 0
BITMAP
1400
0A00
8040
8040
8040
8040
8040
8040
8040
8040
8040
8040
8040
8040
4080
1E00
ENDCHAR
STARTCHAR 0215
ENCODING 533
SWIDTH 720 0
DWIDTH 11 0
BBX 10 12 0 0
BITMAP
4800
1000
80C0
80C0
80C0
80C0
80C0
80C0
80C0
80C0
41C0
1EC0
ENDCHAR
STARTCHAR 0216
ENCODING 534
SWIDTH 720 0
DWIDTH 11 0
BBX 10 16 0 0
BITMAP
0C00
1200
8040
8040
8040
8040
8040
8040
8040
8040
8040
8040
8040
8040
4080
1E00
ENDCHAR
STARTCHAR 0217
ENCODING 535
SWIDTH 654 0
DWIDTH 10 0
BBX 9 14 0 0
BITMAP
0C00
0000
1200
0000
8080
8080
8080
8080
8080
8080
8080
8080
4380
1D80
ENDCHAR
STARTCHAR 0218
ENCODING 536
SWIDTH 654 0
DWIDTH 10 0
BBX 9 17 0 -3
BITMAP
1E00
4000
8080
8000
8000
4000
1E00
0000
0080
0080
8080
4000
0000
1E00
0000
0800
1000
ENDCHAR
STARTCHAR 0219
ENCODING 537
SWIDTH 523 0
DWIDTH 8 0
BBX 7 13 0 -3
BITMAP
7E
80
80
70
00
04
02
80
00
7E
00
08
10
ENDCHAR
STARTCHAR 021A
ENCODING 538
SWIDTH 720 0
DWIDTH 11 0
BBX 9 17 0 -3
BITMAP
FF80
0800
0800
0800
0800
0800
0800
0800
0800
0800
0800
0800
0800
0800
0000
0800
1000
ENDCHAR
STARTCHAR 021B
ENCODING 539
SWIDTH 523 0
DWIDTH 8 0
BBX 7 16 0 -3
BITMAP
20
20
20
FE
20
20
20
20
20
20
22
00
1C
00
04
10
ENDCHAR
STARTCHAR 021E
ENCODING 542
SWIDTH 654 0
DWIDTH 10 0
BBX 9 16 0 0
BITMAP
1200
0C00
8080
8080
8080
8080
8080
8080
8080
FF80
8080
8080
8080
8080
8080
8080
ENDCHAR
STARTCHAR 021F
ENCODING 543
SWIDTH 523 0
DWIDTH 8 0
BBX 7 16 0 0
BITMAP
44
38
80
80
80
80
BC
C2
82
82
82
82
82
82
82
82
ENDCHAR
STARTCHAR 0220
ENCODING 544
SWIDTH 720 0
DWIDTH 11 0
BBX 10 16 0 -2
BITMAP
BF00
C080
8040
8040
8040
8040
8040
8040
8040
8040
8040
8040
8040
8040
0040
0040
ENDCHAR
STARTCHAR 0226
ENCODING 550
SWIDTH 654 0
DWIDTH 10 0
BBX 9 16 0 0
BITMAP
0800
0000
0800
1400
1400
1400
1400
4200
4200
4200
4200
7E00
8080
8080
8080
8080
ENDCHAR
STARTCHAR 0227
ENCODING 551
SWIDTH 523 0
DWIDTH 8 0
BBX 7 12 0 0
BITMAP
08
00
7C
82
02
02
3E
42
82
82
86
7A
ENDCHAR
STARTCHAR 022A
ENCODING 554
SWIDTH 720 0
DWIDTH 11 0
BBX 10 19 0 0
BITMAP
1E00
0000
0000
1200
0000
1E00
0000
4080
8040
8040
8040
8040
8040
8040
8040
8040
8040
4080
1E00
ENDCHAR
STARTCHAR 022B
ENCODING 555
SWIDTH 654 0
DWIDTH 10 0
BBX 9 15 0 0
BITMAP
7E00
0000
0000
1400
0000
1C00
4200
8080
8080
8080
8080
8080
0000
4200
1C00
ENDCHAR
STARTCHAR 022C
ENCODING 556
SWIDTH 720 0
DWIDTH 11 0
BBX 10 20 0 0
BITMAP
3F00
0000
0000
3880
4700
0000
3F00
0000
4080
8040
8040
8040
8040
8040
8040
8040
8040
8040
4080
3F00
ENDCHAR
STARTCHAR 022D
ENCODING 557
SWIDTH 654 0
DWIDTH 10 0
BBX 9 16 0 0
BITMAP
3F00
0000
3880
0000
4700
0000
3C00
4100
8080
8080
8080
8080
8080
0000
4100
3C00
ENDCHAR
STARTCHAR 022E
ENCODING 558
SWIDTH 720 0
DWIDTH 11 0
BBX 9 16 0 0
BITMAP
0400
0000
3E00
0000
4100
8000
8080
8080
8080
8080
8080
8080
8080
8000
4100
3E00
ENDCHAR
STARTCHAR 022F
ENCODING 559
SWIDTH 654 0
DWIDTH 10 0
BBX 9 12 0 0
BITMAP
0800
0000
3C00
4200
8080
8080
8080
8080
8080
0000
4200
3C00
ENDCHAR
STARTCHAR 0230
ENCODING 560
SWIDTH 720 0
DWIDTH 11 0
BBX 9 19 0 0
BITMAP
3F00
0000
0000
0400
0000
3E00
0000
4100
8000
8080
8080
8080
8080
8080
8080
8080
8000
4100
3E00
ENDCHAR
STARTCHAR 0231
ENCODING 561
SWIDTH 654 0
DWIDTH 10 0
BBX 9 15 0 0
BITMAP
7E00
0000
0000
0800
0000
3C00
4200
8080
8080
8080
8080
8080
0000
4200
3C00
ENDCHAR
STARTCHAR 0232
ENCODING 562
SWIDTH 654 0
DWIDTH 10 0
BBX 9 16 0 0
BITMAP
7E00
0000
8080
8080
8080
4200
4200
1400
1400
1400
0800
0800
0800
0800
0800
0800
ENDCHAR
STARTCHAR 0233
ENCODING 563
SWIDTH 654 0
DWIDTH 10 0
BBX 9 15 0 -2
BITMAP
7E00
0000
0000
8080
8080
C280
4200
1400
1400
1400
0800
0800
0800
1000
C000
ENDCHAR
STARTCHAR 0237
ENCODING 567
SWIDTH 392 0
DWIDTH 6 0
BBX 5 12 0 -2
BITMAP
08
08
08
08
08
08
08
08
08
08
88
70
ENDCHAR
STARTCHAR 0238
ENCODING 568
SWIDTH 981 0
DWIDTH 15 0
BBX 14 14 0 0
BITMAP
0200
0200
0200
0200
3A60
4790
8204
8204
8204
8204
8204
0200
4790
3A60
ENDCHAR
STARTCHAR 0239
ENCODING 569
SWIDTH 981 0
DWIDTH 15 0
BBX 14 12 0 -2
BITMAP
3A60
4790
8204
8204
8204
8204
8204
4790
0200
3A60
0200
0200
ENDCHAR
STARTCHAR 0245
ENCODING 581
SWIDTH 654 0
DWIDTH 10 0
BBX 9 14 0 0
BITMAP
0800
0800
0800
1400
1400
1400
4200
4200
4200
4200
8080
8080
8080
8080
ENDCHAR
STARTCHAR 0250
ENCODING 592
SWIDTH 523 0
DWIDTH 8 0
BBX 7 10 0 0
BITMAP
BC
C2
82
82
84
F8
80
80
82
7C
ENDCHAR
STARTCHAR 0253
ENCODING 595
SWIDTH 654 0
DWIDTH 10 0
BBX 9 14 0 0
BITMAP
7000
8000
8000
8000
BC00
C200
8080
8080
8080
8080
8080
8000
C200
BC00
ENDCHAR
STARTCHAR 0254
ENCODING 596
SWIDTH 654 0
DWIDTH 10 0
BBX 9 10 0 0
BITMAP
3C00
4200
0000
8080
0080
0080
8080
0000
4200
3C00
ENDCHAR
STARTCHAR 0255
ENCODING 597
SWIDTH 523 0
DWIDTH 8 0
BBX 7 10 0 0
BITMAP
3C
42
80
80
80
80
BC
00
42
BC
ENDCHAR
STARTCHAR 0256
ENCODING 598
SWIDTH 654 0
DWIDTH 10 0
BBX 11 16 0 -2
BITMAP
0080
0080
0080
0080
3C80
4380
8080
8080
8080
8080
8080
4380
0080
3C80
0080
0060
ENDCHAR
STARTCHAR 0257
ENCODING 599
SWIDTH 720 0
DWIDTH 11 0
BBX 11 14 0 0
BITMAP
0060
0080
0080
0080
3C80
4380
8080
8080
8080
8080
8080
0080
4380
3C80
ENDCHAR
STARTCHAR 0258
ENCODING 600
SWIDTH 654 0
DWIDTH 10 0
BBX 9 10 0 0
BITMAP
3C00
4200
8080
8080
FF80
0080
8080
0000
4200
3C00
ENDCHAR
STARTCHAR 0259
ENCODING 601
SWIDTH 654 0
DWIDTH 10 0
BBX 9 10 0 0
BITMAP
3C00
4200
8080
0080
0080
FF80
8080
0000
4200
3C00
ENDCHAR
STARTCHAR 025B
ENCODING 603
SWIDTH 523 0
DWIDTH 8 0
BBX 7 10 0 0
BITMAP
7C
82
80
80
78
80
80
80
82
7C
ENDCHAR
STARTCHAR 025C
ENCODING 604
SWIDTH 523 0
DWIDTH 8 0
BBX 7 10 0 0
BITMAP
7C
82
02
02
3C
02
02
02
82
7C
ENDCHAR
STARTCHAR 025E
ENCODING 606
SWIDTH 523 0
DWIDTH 8 0
BBX 7 10 0 0
BITMAP
7C
82
82
82
BC
82
82
82
82
7C
ENDCHAR
STARTCHAR 025F
ENCODING 607
SWIDTH 523 0
DWIDTH 8 0
BBX 7 12 0 -2
BITMAP
10
10
10
10
10
10
10
10
10
FE
10
E0
ENDCHAR
STARTCHAR 0260
ENCODING 608
SWIDTH 720 0
DWIDTH 11 0
BBX 11 15 0 -2
BITMAP
0060
0080
0080
3C80
4380
8080
8080
8080
8080
4380
3C80
0080
8080
4200
3C00
ENDCHAR
STARTCHAR 0261
ENCODING 609
SWIDTH 654 0
DWIDTH 10 0
BBX 9 12 0 -2
BITMAP
3C80
4380
8080
8080
8080
8080
4380
3C80
0080
8080
4200
3C00
ENDCHAR
STARTCHAR 0262
ENCODING 610
SWIDTH 654 0
DWIDTH 10 0
BBX 9 10 0 0
BITMAP
3C00
4200
8080
8000
8000
9F80
8080
0000
4200
3C00
ENDCHAR
STARTCHAR 0265
ENCODING 613
SWIDTH 523 0
DWIDTH 8 0
BBX 7 12 0 -2
BITMAP
82
82
82
82
82
82
82
86
02
7A
02
02
ENDCHAR
STARTCHAR 0266
ENCODING 614
SWIDTH 523 0
DWIDTH 8 0
BBX 7 14 0 0
BITMAP
70
80
80
80
BC
C2
82
82
82
82
82
82
82
82
ENDCHAR
STARTCHAR 0267
ENCODING 615
SWIDTH 523 0
DWIDTH 8 0
BBX 7 16 0 -2
BITMAP
70
80
80
80
BC
C2
82
82
82
82
82
82
82
82
02
0C
ENDCHAR
STARTCHAR 0268
ENCODING 616
SWIDTH 327 0
DWIDTH 5 0
BBX 4 12 0 0
BITMAP
20
00
20
20
20
20
F0
20
20
20
20
20
ENDCHAR
STARTCHAR 0269
ENCODING 617
SWIDTH 392 0
DWIDTH 6 0
BBX 4 12 2 -2
BITMAP
80
80
80
80
80
80
80
80
80
80
80
70
ENDCHAR
STARTCHAR 026A
ENCODING 618
SWIDTH 327 0
DWIDTH 5 0
BBX 4 10 0 0
BITMAP
F0
20
20
20
20
20
20
20
20
F0
ENDCHAR
STARTCHAR 026B
ENCODING 619
SWIDTH 523 0
DWIDTH 8 0
BBX 7 14 0 0
BITMAP
10
10
10
10
10
72
10
9C
10
10
10
10
10
10
ENDCHAR
STARTCHAR 026C
ENCODING 620
SWIDTH 523 0
DWIDTH 8 0
BBX 6 14 0 0
BITMAP
10
10
10
10
10
70
10
90
7C
10
10
10
10
10
ENDCHAR
STARTCHAR 026D
ENCODING 621
SWIDTH 392 0
DWIDTH 6 0
BBX 4 16 2 -2
BITMAP
80
80
80
80
80
80
80
80
80
80
80
80
80
80
80
70
ENDCHAR
STARTCHAR 026F
ENCODING 623
SWIDTH 785 0
DWIDTH 12 0
BBX 11 10 0 0
BITMAP
8420
8420
8420
8420
8420
8420
8420
8420
8C60
73A0
ENDCHAR
STARTCHAR 0270
ENCODING 624
SWIDTH 785 0
DWIDTH 12 0
BBX 11 12 0 -2
BITMAP
8420
8420
8420
8420
8420
8420
8420
8C60
0020
73A0
0020
0020
ENDCHAR
STARTCHAR 0271
ENCODING 625
SWIDTH 785 0
DWIDTH 12 0
BBX 11 12 0 -2
BITMAP
B9C0
C620
8420
8420
8420
8420
8420
8420
8420
8420
0020
01C0
ENDCHAR
STARTCHAR 0272
ENCODING 626
SWIDTH 589 0
DWIDTH 9 0
BBX 10 12 -2 -2
BITMAP
1780
1840
1040
1040
1040
1040
1040
1040
1040
1040
1000
E000
ENDCHAR
STARTCHAR 0273
ENCODING 627
SWIDTH 589 0
DWIDTH 9 0
BBX 10 12 0 -2
BITMAP
BC00
C200
8200
8200
8200
8200
8200
8200
8200
8200
0200
01C0
ENDCHAR
STARTCHAR 0274
ENCODING 628
SWIDTH 654 0
DWIDTH 10 0
BBX 9 10 0 0
BITMAP
8080
E080
8080
9080
8880
8880
8480
8080
8380
8080
ENDCHAR
STARTCHAR 0275
ENCODING 629
SWIDTH 654 0
DWIDTH 10 0
BBX 9 10 0 0
BITMAP
3C00
4200
8080
8080
FF80
8080
8080
0000
4200
3C00
ENDCHAR
STARTCHAR 0276
ENCODING 630
SWIDTH 654 0
DWIDTH 10 0
BBX 9 10 0 0
BITMAP
7700
8880
8880
8880
8F80
8800
8800
8800
8880
7700
ENDCHAR
STARTCHAR 0277
ENCODING 631
SWIDTH 785 0
DWIDTH 12 0
BBX 11 10 0 0
BITMAP
3F80
4040
8020
8020
8420
8420
8420
0400
4440
3B80
ENDCHAR
STARTCHAR 0279
ENCODING 633
SWIDTH 458 0
DWIDTH 7 0
BBX 6 10 0 0
BITMAP
04
04
04
04
04
04
04
04
8C
74
ENDCHAR
STARTCHAR 027A
ENCODING 634
SWIDTH 458 0
DWIDTH 7 0
BBX 6 14 0 0
BITMAP
04
04
04
04
04
04
04
04
04
04
04
04
8C
74
ENDCHAR
STARTCHAR 027B
ENCODING 635
SWIDTH 523 0
DWIDTH 8 0
BBX 9 12 0 -2
BITMAP
0400
0400
0400
0400
0400
0400
0400
8C00
0400
7400
0400
0380
ENDCHAR
STARTCHAR 027C
ENCODING 636
SWIDTH 458 0
DWIDTH 7 0
BBX 6 12 0 -2
BITMAP
B8
C4
80
80
80
80
80
80
80
80
80
80
ENDCHAR
STARTCHAR 027D
ENCODING 637
SWIDTH 458 0
DWIDTH 7 0
BBX 6 12 0 -2
BITMAP
B8
C4
80
80
80
80
80
80
80
80
80
70
ENDCHAR
STARTCHAR 027E
ENCODING 638
SWIDTH 392 0
DWIDTH 6 0
BBX 5 10 0 0
BITMAP
78
80
80
80
80
80
80
80
80
80
ENDCHAR
STARTCHAR 027F
ENCODING 639
SWIDTH 392 0
DWIDTH 6 0
BBX 5 12 0 -2
BITMAP
F0
08
08
08
08
08
08
08
08
08
08
08
ENDCHAR
STARTCHAR 0280
ENCODING 640
SWIDTH 523 0
DWIDTH 8 0
BBX 7 10 0 0
BITMAP
FC
82
82
82
82
FC
84
82
82
82
ENDCHAR
STARTCHAR 0281
ENCODING 641
SWIDTH 523 0
DWIDTH 8 0
BBX 7 10 0 0
BITMAP
82
82
82
42
7E
82
82
82
82
7E
ENDCHAR
STARTCHAR 0282
ENCODING 642
SWIDTH 523 0
DWIDTH 8 0
BBX 7 12 0 -2
BITMAP
7C
82
80
70
00
0C
02
82
82
FC
80
70
ENDCHAR
STARTCHAR 0283
ENCODING 643
SWIDTH 523 0
DWIDTH 8 0
BBX 7 16 0 -2
BITMAP
0E
10
10
10
10
10
10
10
10
10
10
10
10
10
10
E0
ENDCHAR
STARTCHAR 0284
ENCODING 644
SWIDTH 523 0
DWIDTH 8 0
BBX 7 16 0 -2
BITMAP
0E
10
10
10
10
10
10
FE
10
10
10
10
10
10
10
E0
ENDCHAR
STARTCHAR 0285
ENCODING 645
SWIDTH 523 0
DWIDTH 8 0
BBX 7 12 0 -2
BITMAP
E0
10
10
10
10
10
10
10
10
10
10
0E
ENDCHAR
STARTCHAR 0286
ENCODING 646
SWIDTH 589 0
DWIDTH 9 0
BBX 8 16 0 -2
BITMAP
07
08
08
08
08
08
08
08
08
08
08
08
08
7F
88
70
ENDCHAR
STARTCHAR 0287
ENCODING 647
SWIDTH 523 0
DWIDTH 8 0
BBX 6 12 0 -2
BITMAP
70
88
08
08
08
08
08
08
08
FC
08
08
ENDCHAR
STARTCHAR 0288
ENCODING 648
SWIDTH 523 0
DWIDTH 8 0
BBX 7 15 0 -2
BITMAP
20
20
20
FE
20
20
20
20
20
20
20
20
20
22
1C
ENDCHAR
STARTCHAR 028C
ENCODING 652
SWIDTH 654 0
DWIDTH 10 0
BBX 9 10 0 0
BITMAP
0800
0800
1C00
1400
1400
4200
4200
8080
8080
8080
ENDCHAR
STARTCHAR 028D
ENCODING 653
SWIDTH 785 0
DWIDTH 12 0
BBX 11 10 0 0
BITMAP
1080
1080
5AC0
4A40
4A40
4A40
8420
8420
8420
8420
ENDCHAR
STARTCHAR 028E
ENCODING 654
SWIDTH 654 0
DWIDTH 10 0
BBX 9 14 0 0
BITMAP
0380
0400
0400
0400
0800
0800
1C00
1400
1400
4200
4200
8080
8080
8080
ENDCHAR
STARTCHAR 028F
ENCODING 655
SWIDTH 654 0
DWIDTH 10 0
BBX 9 10 0 0
BITMAP
8080
4200
4200
4200
1400
0800
0800
0800
0800
0800
ENDCHAR
STARTCHAR 0299
ENCODING 665
SWIDTH 523 0
DWIDTH 8 0
BBX 7 10 0 0
BITMAP
FC
82
82
82
FC
82
82
82
82
FC
ENDCHAR
STARTCHAR 029A
ENCODING 666
SWIDTH 523 0
DWIDTH 8 0
BBX 7 10 0 0
BITMAP
7C
82
82
82
7A
82
82
82
82
7C
ENDCHAR
STARTCHAR 029C
ENCODING 668
SWIDTH 523 0
DWIDTH 8 0
BBX 7 10 0 0
BITMAP
82
82
82
82
FE
82
82
82
82
82
ENDCHAR
STARTCHAR 029D
ENCODING 669
SWIDTH 392 0
DWIDTH 6 0
BBX 6 15 0 -2
BITMAP
08
00
00
08
08
08
08
08
08
08
08
08
7C
88
70
ENDCHAR
STARTCHAR 029E
ENCODING 670
SWIDTH 523 0
DWIDTH 8 0
BBX 7 12 0 -2
BITMAP
82
42
12
0A
0A
0E
12
42
02
82
02
02
ENDCHAR
STARTCHAR 029F
ENCODING 671
SWIDTH 523 0
DWIDTH 8 0
BBX 6 10 0 0
BITMAP
80
80
80
80
80
80
80
80
80
FC
ENDCHAR
STARTCHAR 02AE
ENCODING 686
SWIDTH 720 0
DWIDTH 11 0
BBX 10 12 0 -2
BITMAP
E040
1040
1040
1040
1040
1040
1040
10C0
0040
0F40
0040
0040
ENDCHAR
STARTCHAR 02AF
ENCODING 687
SWIDTH 785 0
DWIDTH 12 0
BBX 13 12 0 -2
BITMAP
E040
1040
1040
1040
1040
1040
1040
10C0
0040
0F40
0040
0038
ENDCHAR
STARTCHAR 037E
ENCODING 894
SWIDTH 327 0
DWIDTH 5 0
BBX 2 8 0 2
BITMAP
40
40
40
00
00
40
00
80
ENDCHAR
STARTCHAR 037F
ENCODING 895
SWIDTH 523 0
DWIDTH 8 0
BBX 7 14 0 0
BITMAP
02
02
02
02
02
02
02
02
02
02
82
00
44
38
ENDCHAR
STARTCHAR 0384
ENCODING 900
SWIDTH 196 0
DWIDTH 3 0
BBX 2 2 0 11
BITMAP
40
80
ENDCHAR
STARTCHAR 0385
ENCODING 901
SWIDTH 523 0
DWIDTH 8 0
BBX 7 2 0 11
BITMAP
08
92
ENDCHAR
STARTCHAR 0386
ENCODING 902
SWIDTH 720 0
DWIDTH 11 0
BBX 10 14 0 0
BITMAP
4400
8A00
0A00
0A00
0A00
1080
1080
1080
1080
1F80
4040
4040
4040
4040
ENDCHAR
STARTCHAR 0387
ENCODING 903
SWIDTH 392 0
DWIDTH 6 0
BBX 1 1 2 6
BITMAP
80
ENDCHAR
STARTCHAR 0388
ENCODING 904
SWIDTH 850 0
DWIDTH 13 0
BBX 11 14 0 0
BITMAP
4FE0
0800
8800
0800
0800
0800
0800
0FE0
0800
0800
0800
0800
0800
0FE0
ENDCHAR
STARTCHAR 0389
ENCODING 905
SWIDTH 850 0
DWIDTH 13 0
BBX 12 14 0 0
BITMAP
4810
0810
8810
0810
0810
0810
0810
0FF0
0810
0810
0810
0810
0810
0810
ENDCHAR
STARTCHAR 038A
ENCODING 906
SWIDTH 523 0
DWIDTH 8 0
BBX 7 14 0 0
BITMAP
5E
04
84
04
04
04
04
04
04
04
04
04
04
1E
ENDCHAR
STARTCHAR 038C
ENCODING 908
SWIDTH 850 0
DWIDTH 13 0
BBX 12 14 0 0
BITMAP
47C0
0000
8820
1010
1010
1010
1010
1010
1010
1010
1010
1010
0820
07C0
ENDCHAR
STARTCHAR 038E
ENCODING 910
SWIDTH 850 0
DWIDTH 13 0
BBX 12 14 0 0
BITMAP
4810
0810
8810
0420
0420
0240
0240
0240
0080
0080
0080
0080
0080
0080
ENDCHAR
STARTCHAR 038F
ENCODING 911
SWIDTH 850 0
DWIDTH 13 0
BBX 12 14 0 0
BITMAP
47C0
0000
8820
1010
1010
1010
1010
1010
1010
0820
0440
0440
0440
1C70
ENDCHAR
STARTCHAR 0390
ENCODING 912
SWIDTH 523 0
DWIDTH 8 0
BBX 7 14 0 0
BITMAP
08
00
92
00
10
10
10
10
10
10
10
10
10
0E
ENDCHAR
STARTCHAR 0391
ENCODING 913
SWIDTH 654 0
DWIDTH 10 0
BBX 9 14 0 0
BITMAP
0800
1400
1400
1400
1400
4200
4200
4200
4200
7E00
8080
8080
8080
8080
ENDCHAR
STARTCHAR 0392
ENCODING 914
SWIDTH 654 0
DWIDTH 10 0
BBX 9 14 0 0
BITMAP
FC00
8000
8200
8080
8080
8200
8000
FC00
8200
8080
8080
8080
8200
FC00
ENDCHAR
STARTCHAR 0393
ENCODING 915
SWIDTH 589 0
DWIDTH 9 0
BBX 7 14 0 0
BITMAP
FE
80
80
80
80
80
80
80
80
80
80
80
80
80
ENDCHAR
STARTCHAR 0394
ENCODING 916
SWIDTH 654 0
DWIDTH 10 0
BBX 9 14 0 0
BITMAP
0800
1400
1400
1400
1400
4200
4200
4200
4200
4200
8080
8080
8080
FF80
ENDCHAR
STARTCHAR 0395
ENCODING 917
SWIDTH 589 0
DWIDTH 9 0
BBX 7 14 0 0
BITMAP
FE
80
80
80
80
80
80
FE
80
80
80
80
80
FE
ENDCHAR
STARTCHAR 0396
ENCODING 918
SWIDTH 589 0
DWIDTH 9 0
BBX 7 14 0 0
BITMAP
FE
04
04
04
08
08
18
10
10
40
40
C0
80
FE
ENDCHAR
STARTCHAR 0397
ENCODING 919
SWIDTH 654 0
DWIDTH 10 0
BBX 9 14 0 0
BITMAP
8080
8080
8080
8080
8080
8080
8080
FF80
8080
8080
8080
8080
8080
8080
ENDCHAR
STARTCHAR 0398
ENCODING 920
SWIDTH 720 0
DWIDTH 11 0
BBX 10 14 0 0
BITMAP
3F00
0000
4080
8040
8040
8040
8040
BF40
8040
8040
8040
8040
4080
3F00
ENDCHAR
STARTCHAR 0399
ENCODING 921
SWIDTH 327 0
DWIDTH 5 0
BBX 4 14 0 0
BITMAP
F0
20
20
20
20
20
20
20
20
20
20
20
20
F0
ENDCHAR
STARTCHAR 039A
ENCODING 922
SWIDTH 654 0
DWIDTH 10 0
BBX 9 14 0 0
BITMAP
8080
8000
8200
8400
8800
9000
8000
E000
9000
8800
8400
8000
8200
8080
ENDCHAR
STARTCHAR 039B
ENCODING 923
SWIDTH 654 0
DWIDTH 10 0
BBX 9 14 0 0
BITMAP
0800
1400
1400
1400
1400
4200
4200
4200
4200
4200
8080
8080
8080
8080
ENDCHAR
STARTCHAR 039C
ENCODING 924
SWIDTH 785 0
DWIDTH 12 0
BBX 11 14 0 0
BITMAP
8020
E060
E060
E060
90A0
90A0
90A0
90A0
8A20
8A20
8A20
8420
8420
8420
ENDCHAR
STARTCHAR 039D
ENCODING 925
SWIDTH 720 0
DWIDTH 11 0
BBX 10 14 0 0
BITMAP
80C0
E0C0
E0C0
E0C0
90C0
90C0
90C0
88C0
86C0
86C0
81C0
81C0
81C0
80C0
ENDCHAR
STARTCHAR 039E
ENCODING 926
SWIDTH 654 0
DWIDTH 10 0
BBX 9 14 0 0
BITMAP
FF80
0000
0000
0000
0000
0000
0000
7F00
0000
0000
0000
0000
0000
FF80
ENDCHAR
STARTCHAR 039F
ENCODING 927
SWIDTH 720 0
DWIDTH 11 0
BBX 10 14 0 0
BITMAP
3F00
0000
4080
8040
8040
8040
8040
8040
8040
8040
8040
8040
4080
3F00
ENDCHAR
STARTCHAR 03A0
ENCODING 928
SWIDTH 654 0
DWIDTH 10 0
BBX 9 14 0 0
BITMAP
FF80
8080
8080
8080
8080
8080
8080
8080
8080
8080
8080
8080
8080
8080
ENDCHAR
STARTCHAR 03A1
ENCODING 929
SWIDTH 654 0
DWIDTH 10 0
BBX 9 14 0 0
BITMAP
FC00
8000
8200
8080
8080
8080
8080
8200
FC00
8000
8000
8000
8000
8000
ENDCHAR
STARTCHAR 03A3
ENCODING 931
SWIDTH 654 0
DWIDTH 10 0
BBX 9 14 0 0
BITMAP
FF80
8000
8000
4000
1000
0800
0000
0400
0800
1000
4000
8000
8000
FF80
ENDCHAR
STARTCHAR 03A4
ENCODING 932
SWIDTH 654 0
DWIDTH 10 0
BBX 9 14 0 0
BITMAP
FF80
0800
0800
0800
0800
0800
0800
0800
0800
0800
0800
0800
0800
0800
ENDCHAR
STARTCHAR 03A5
ENCODING 933
SWIDTH 654 0
DWIDTH 10 0
BBX 9 14 0 0
BITMAP
8080
8080
8080
4200
4200
1400
1400
1400
0800
0800
0800
0800
0800
0800
ENDCHAR
STARTCHAR 03A6
ENCODING 934
SWIDTH 785 0
DWIDTH 12 0
BBX 11 14 0 0
BITMAP
0400
0400
3F80
4440
8420
8420
8420
8420
8420
8420
4440
0400
3F80
0400
ENDCHAR
STARTCHAR 03A7
ENCODING 935
SWIDTH 654 0
DWIDTH 10 0
BBX 9 14 0 0
BITMAP
8080
4200
4200
4200
1400
1400
1400
0800
1400
1400
4200
4200
4200
8080
ENDCHAR
STARTCHAR 03A8
ENCODING 936
SWIDTH 654 0
DWIDTH 10 0
BBX 9 14 0 0
BITMAP
8880
8880
8880
8880
8880
8880
8880
8880
7F00
0800
0800
0800
0800
0800
ENDCHAR
STARTCHAR 03A9
ENCODING 937
SWIDTH 720 0
DWIDTH 11 0
BBX 10 14 0 0
BITMAP
1E00
0000
4080
8040
8040
8040
8040
8040
8040
4080
1200
1200
1200
F3C0
ENDCHAR
STARTCHAR 03AA
ENCODING 938
SWIDTH 327 0
DWIDTH 5 0
BBX 4 16 0 0
BITMAP
B0
00
F0
40
40
40
40
40
40
40
40
40
40
40
40
F0
ENDCHAR
STARTCHAR 03AB
ENCODING 939
SWIDTH 654 0
DWIDTH 10 0
BBX 9 16 0 0
BITMAP
1400
0000
8080
8080
8080
4200
4200
1400
1400
1400
0800
0800
0800
0800
0800
0800
ENDCHAR
STARTCHAR 03AC
ENCODING 940
SWIDTH 720 0
DWIDTH 11 0
BBX 10 14 0 0
BITMAP
0400
0000
0800
0000
3C40
4240
8080
8080
8080
8080
8080
0080
4380
3C40
ENDCHAR
STARTCHAR 03AD
ENCODING 941
SWIDTH 523 0
DWIDTH 8 0
BBX 7 14 0 0
BITMAP
08
00
10
00
7C
82
80
80
78
80
80
80
82
7C
ENDCHAR
STARTCHAR 03AE
ENCODING 942
SWIDTH 523 0
DWIDTH 8 0
BBX 7 15 0 -2
BITMAP
08
10
00
00
9E
E0
82
82
82
82
82
82
82
82
02
ENDCHAR
STARTCHAR 03AF
ENCODING 943
SWIDTH 327 0
DWIDTH 5 0
BBX 4 14 0 0
BITMAP
40
00
80
00
80
80
80
80
80
80
80
80
80
70
ENDCHAR
STARTCHAR 03B0
ENCODING 944
SWIDTH 720 0
DWIDTH 11 0
BBX 10 14 0 0
BITMAP
0100
0000
1440
0000
E040
1040
1040
1040
1040
1040
1040
0000
0880
0700
ENDCHAR
STARTCHAR 03B1
ENCODING 945
SWIDTH 720 0
DWIDTH 11 0
BBX 10 10 0 0
BITMAP
3C40
4240
8080
8080
8080
8080
8080
0080
4380
3C40
ENDCHAR
STARTCHAR 03B2
ENCODING 946
SWIDTH 654 0
DWIDTH 10 0
BBX 9 16 0 -2
BITMAP
3C00
4200
8080
8080
8080
8200
BC00
8200
8080
8080
8080
8200
8000
BC00
8000
8000
ENDCHAR
STARTCHAR 03B3
ENCODING 947
SWIDTH 654 0
DWIDTH 10 0
BBX 9 12 0 -2
BITMAP
8080
8080
C280
4200
1400
1400
1400
0800
0800
0800
0800
0800
ENDCHAR
STARTCHAR 03B4
ENCODING 948
SWIDTH 654 0
DWIDTH 10 0
BBX 9 14 0 0
BITMAP
3C00
4200
4000
4000
3C00
4200
8080
8080
8080
8080
8080
0000
4200
3C00
ENDCHAR
STARTCHAR 03B5
ENCODING 949
SWIDTH 523 0
DWIDTH 8 0
BBX 7 10 0 0
BITMAP
7C
82
80
80
78
80
80
80
82
7C
ENDCHAR
STARTCHAR 03B6
ENCODING 950
SWIDTH 589 0
DWIDTH 9 0
BBX 8 11 0 -2
BITMAP
FE
00
08
10
00
40
80
80
80
7E
03
ENDCHAR
STARTCHAR 03B7
ENCODING 951
SWIDTH 523 0
DWIDTH 8 0
BBX 7 12 0 -2
BITMAP
BC
C2
82
82
82
82
82
82
82
82
02
02
ENDCHAR
STARTCHAR 03B8
ENCODING 952
SWIDTH 654 0
DWIDTH 10 0
BBX 9 14 0 0
BITMAP
3C00
0000
4200
8080
8080
8080
8080
FF80
8080
8080
8080
8080
4200
3C00
ENDCHAR
STARTCHAR 03B9
ENCODING 953
SWIDTH 327 0
DWIDTH 5 0
BBX 4 10 0 0
BITMAP
80
80
80
80
80
80
80
80
80
70
ENDCHAR
STARTCHAR 03BA
ENCODING 954
SWIDTH 523 0
DWIDTH 8 0
BBX 7 10 0 0
BITMAP
82
84
80
88
F0
90
88
80
84
82
ENDCHAR
STARTCHAR 03BB
ENCODING 955
SWIDTH 720 0
DWIDTH 11 0
BBX 10 14 0 0
BITMAP
7000
0800
0800
0800
0800
1400
1400
1400
1400
4200
4200
8200
8200
81C0
ENDCHAR
STARTCHAR 03BC
ENCODING 956
SWIDTH 523 0
DWIDTH 8 0
BBX 7 12 0 -2
BITMAP
82
82
82
82
82
82
82
C6
82
BA
80
80
ENDCHAR
STARTCHAR 03BD
ENCODING 957
SWIDTH 720 0
DWIDTH 11 0
BBX 10 10 0 0
BITMAP
E040
1040
1040
1040
1080
0880
0900
0900
0900
0400
ENDCHAR
STARTCHAR 03BE
ENCODING 958
SWIDTH 523 0
DWIDTH 8 0
BBX 7 12 0 -2
BITMAP
7C
82
80
78
80
80
80
80
00
7C
02
04
ENDCHAR
STARTCHAR 03BF
ENCODING 959
SWIDTH 654 0
DWIDTH 10 0
BBX 9 10 0 0
BITMAP
3C00
4200
8080
8080
8080
8080
8080
0000
4200
3C00
ENDCHAR
STARTCHAR 03C0
ENCODING 960
SWIDTH 720 0
DWIDTH 11 0
BBX 10 10 0 0
BITMAP
7FC0
9200
1200
1200
1200
1200
1200
1200
1200
11C0
ENDCHAR
STARTCHAR 03C1
ENCODING 961
SWIDTH 654 0
DWIDTH 10 0
BBX 9 12 0 -2
BITMAP
3C00
4200
8080
8080
8080
8080
8080
C200
8000
BC00
8000
8000
ENDCHAR
STARTCHAR 03C2
ENCODING 962
SWIDTH 654 0
DWIDTH 10 0
BBX 9 12 0 -2
BITMAP
3C00
4200
8080
8000
8000
8000
8000
4000
0000
3E00
0080
0200
ENDCHAR
STARTCHAR 03C3
ENCODING 963
SWIDTH 654 0
DWIDTH 10 0
BBX 9 10 0 0
BITMAP
3F80
4200
8080
8080
8080
8080
8080
0000
4200
3C00
ENDCHAR
STARTCHAR 03C4
ENCODING 964
SWIDTH 654 0
DWIDTH 10 0
BBX 9 10 0 0
BITMAP
7F80
8800
0800
0800
0800
0800
0800
0800
0800
0700
ENDCHAR
STARTCHAR 03C5
ENCODING 965
SWIDTH 720 0
DWIDTH 11 0
BBX 10 10 0 0
BITMAP
E040
1040
1040
1040
1040
1040
1040
0000
0880
0700
ENDCHAR
STARTCHAR 03C6
ENCODING 966
SWIDTH 785 0
DWIDTH 12 0
BBX 11 12 0 -2
BITMAP
1380
4440
8420
8420
8420
8420
8420
4440
0400
1F80
0400
0400
ENDCHAR
STARTCHAR 03C7
ENCODING 967
SWIDTH 654 0
DWIDTH 10 0
BBX 9 10 0 0
BITMAP
C080
1200
1000
1400
0800
0800
1400
0400
4400
8380
ENDCHAR
STARTCHAR 03C8
ENCODING 968
SWIDTH 654 0
DWIDTH 10 0
BBX 9 12 0 -2
BITMAP
8880
8880
8880
8880
8880
8880
8880
8880
8880
7F00
0800
0800
ENDCHAR
STARTCHAR 03C9
ENCODING 969
SWIDTH 785 0
DWIDTH 12 0
BBX 11 10 0 0
BITMAP
1080
4040
8020
8020
8020
8420
8420
0400
4040
1F80
ENDCHAR
STARTCHAR 03CA
ENCODING 970
SWIDTH 458 0
DWIDTH 7 0
BBX 6 12 0 0
BITMAP
90
00
40
40
40
40
40
40
40
40
40
1C
ENDCHAR
STARTCHAR 03CB
ENCODING 971
SWIDTH 720 0
DWIDTH 11 0
BBX 10 12 0 0
BITMAP
0900
0000
E040
1040
1040
1040
1040
1040
1040
0000
0880
0700
ENDCHAR
STARTCHAR 03CC
ENCODING 972
SWIDTH 654 0
DWIDTH 10 0
BBX 9 14 0 0
BITMAP
0400
0000
0800
0000
3C00
4200
8080
8080
8080
8080
8080
0000
4200
3C00
ENDCHAR
STARTCHAR 03CD
ENCODING 973
SWIDTH 720 0
DWIDTH 11 0
BBX 10 14 0 0
BITMAP
0100
0000
0400
0000
E040
1040
1040
1040
1040
1040
1040
0000
0880
0700
ENDCHAR
STARTCHAR 03CE
ENCODING 974
SWIDTH 785 0
DWIDTH 12 0
BBX 11 14 0 0
BITMAP
0200
0000
0000
0000
1080
4040
8020
8020
8020
8420
8420
0400
4040
1F80
ENDCHAR
STARTCHAR 0400
ENCODING 1024
SWIDTH 589 0
DWIDTH 9 0
BBX 7 17 0 0
BITMAP
10
08
00
FE
80
80
80
80
80
80
FE
80
80
80
80
80
FE
ENDCHAR
STARTCHAR 0401
ENCODING 1025
SWIDTH 589 0
DWIDTH 9 0
BBX 7 16 0 0
BITMAP
14
00
FE
80
80
80
80
80
80
FE
80
80
80
80
80
FE
ENDCHAR
STARTCHAR 0402
ENCODING 1026
SWIDTH 785 0
DWIDTH 12 0
BBX 11 14 0 0
BITMAP
FF80
0800
0800
0800
0800
0BC0
0800
0C20
0820
0820
0820
0820
0820
09C0
ENDCHAR
STARTCHAR 0403
ENCODING 1027
SWIDTH 589 0
DWIDTH 9 0
BBX 7 17 0 0
BITMAP
08
10
00
FE
80
80
80
80
80
80
80
80
80
80
80
80
80
ENDCHAR
STARTCHAR 0404
ENCODING 1028
SWIDTH 720 0
DWIDTH 11 0
BBX 10 14 0 0
BITMAP
3F00
0000
4080
8040
8000
8000
8000
FC00
8000
8000
8040
0000
4080
3F00
ENDCHAR
STARTCHAR 0405
ENCODING 1029
SWIDTH 654 0
DWIDTH 10 0
BBX 9 14 0 0
BITMAP
3C00
0000
4200
8080
8000
4000
0000
3C00
0080
0080
8080
0000
4200
3C00
ENDCHAR
STARTCHAR 0406
ENCODING 1030
SWIDTH 327 0
DWIDTH 5 0
BBX 4 14 0 0
BITMAP
F0
20
20
20
20
20
20
20
20
20
20
20
20
F0
ENDCHAR
STARTCHAR 0407
ENCODING 1031
SWIDTH 327 0
DWIDTH 5 0
BBX 4 16 0 0
BITMAP
B0
00
F0
40
40
40
40
40
40
40
40
40
40
40
40
F0
ENDCHAR
STARTCHAR 0408
ENCODING 1032
SWIDTH 523 0
DWIDTH 8 0
BBX 7 14 0 0
BITMAP
02
02
02
02
02
02
02
02
02
02
82
00
44
38
ENDCHAR
STARTCHAR 0409
ENCODING 1033
SWIDTH 1243 0
DWIDTH 19 0
BBX 18 14 0 0
BITMAP
1FC000
104000
104000
104000
104000
107F00
104000
104080
104040
104040
104040
104040
104080
E07F00
ENDCHAR
STARTCHAR 040A
ENCODING 1034
SWIDTH 1112 0
DWIDTH 17 0
BBX 16 14 0 0
BITMAP
8080
8080
8080
8080
8080
FFFC
8080
8082
8081
8081
8081
8081
8082
80FC
ENDCHAR
STARTCHAR 040B
ENCODING 1035
SWIDTH 785 0
DWIDTH 12 0
BBX 11 14 0 0
BITMAP
FF80
0800
0800
0800
0800
0BC0
0800
0C20
0820
0820
0820
0820
0820
0820
ENDCHAR
STARTCHAR 040C
ENCODING 1036
SWIDTH 654 0
DWIDTH 10 0
BBX 9 17 0 0
BITMAP
0400
0800
0000
8080
8000
8200
8400
8800
9000
8000
E000
9000
8800
8400
8000
8200
8080
ENDCHAR
STARTCHAR 040D
ENCODING 1037
SWIDTH 720 0
DWIDTH 11 0
BBX 10 17 0 0
BITMAP
1000
0800
0000
80C0
81C0
81C0
81C0
86C0
86C0
86C0
88C0
90C0
90C0
E0C0
E0C0
E0C0
80C0
ENDCHAR
STARTCHAR 040E
ENCODING 1038
SWIDTH 654 0
DWIDTH 10 0
BBX 9 17 0 0
BITMAP
1200
0C00
0000
8080
8080
8080
4200
4200
1400
1400
1400
0800
0800
0800
0800
1000
C000
ENDCHAR
STARTCHAR 040F
ENCODING 1039
SWIDTH 654 0
DWIDTH 10 0
BBX 9 16 0 -2
BITMAP
8080
8080
8080
8080
8080
8080
8080
8080
8080
8080
8080
8080
8080
FF80
0800
0800
ENDCHAR
STARTCHAR 0410
ENCODING 1040
SWIDTH 654 0
DWIDTH 10 0
BBX 9 14 0 0
BITMAP
0800
1400
1400
1400
1400
4200
4200
4200
4200
7E00
8080
8080
8080
8080
ENDCHAR
STARTCHAR 0411
ENCODING 1041
SWIDTH 654 0
DWIDTH 10 0
BBX 9 14 0 0
BITMAP
FE00
8000
8000
8000
8000
8000
8000
FC00
8200
8080
8080
8080
8200
FC00
ENDCHAR
STARTCHAR 0412
ENCODING 1042
SWIDTH 654 0
DWIDTH 10 0
BBX 9 14 0 0
BITMAP
FC00
8000
8200
8080
8080
8200
8000
FC00
8200
8080
8080
8080
8200
FC00
ENDCHAR
STARTCHAR 0413
ENCODING 1043
SWIDTH 589 0
DWIDTH 9 0
BBX 7 14 0 0
BITMAP
FE
80
80
80
80
80
80
80
80
80
80
80
80
80
ENDCHAR
STARTCHAR 0414
ENCODING 1044
SWIDTH 785 0
DWIDTH 12 0
BBX 11 15 0 -1
BITMAP
0FC0
0840
0840
0840
0840
0840
0840
1040
1040
1040
4040
FFE0
8020
8020
8020
ENDCHAR
STARTCHAR 0415
ENCODING 1045
SWIDTH 589 0
DWIDTH 9 0
BBX 7 14 0 0
BITMAP
FE
80
80
80
80
80
80
FE
80
80
80
80
80
FE
ENDCHAR
STARTCHAR 0416
ENCODING 1046
SWIDTH 981 0
DWIDTH 15 0
BBX 14 14 0 0
BITMAP
8204
4210
4210
4210
1220
0A40
0200
0780
0A40
1220
4210
4210
4210
8204
ENDCHAR
STARTCHAR 0417
ENCODING 1047
SWIDTH 720 0
DWIDTH 11 0
BBX 10 14 0 0
BITMAP
3E00
0000
4080
8040
0040
0080
0000
1E00
0040
0040
8040
0000
4080
3E00
ENDCHAR
STARTCHAR 0418
ENCODING 1048
SWIDTH 720 0
DWIDTH 11 0
BBX 10 14 0 0
BITMAP
80C0
81C0
81C0
81C0
86C0
86C0
86C0
88C0
90C0
90C0
E0C0
E0C0
E0C0
80C0
ENDCHAR
STARTCHAR 0419
ENCODING 1049
SWIDTH 720 0
DWIDTH 11 0
BBX 10 17 0 0
BITMAP
1600
0800
0000
80C0
81C0
81C0
81C0
86C0
86C0
86C0
88C0
90C0
90C0
E0C0
E0C0
E0C0
80C0
ENDCHAR
STARTCHAR 041A
ENCODING 1050
SWIDTH 654 0
DWIDTH 10 0
BBX 9 14 0 0
BITMAP
8080
8000
8200
8400
8800
9000
8000
E000
9000
8800
8400
8000
8200
8080
ENDCHAR
STARTCHAR 041B
ENCODING 1051
SWIDTH 720 0
DWIDTH 11 0
BBX 10 14 0 0
BITMAP
1FC0
1040
1040
1040
1040
1040
1040
1040
1040
1040
1040
1040
1040
E040
ENDCHAR
STARTCHAR 041C
ENCODING 1052
SWIDTH 785 0
DWIDTH 12 0
BBX 11 14 0 0
BITMAP
8020
E060
E060
E060
90A0
90A0
90A0
90A0
8A20
8A20
8A20
8420
8420
8420
ENDCHAR
STARTCHAR 041D
ENCODING 1053
SWIDTH 654 0
DWIDTH 10 0
BBX 9 14 0 0
BITMAP
8080
8080
8080
8080
8080
8080
8080
FF80
8080
8080
8080
8080
8080
8080
ENDCHAR
STARTCHAR 041E
ENCODING 1054
SWIDTH 720 0
DWIDTH 11 0
BBX 10 14 0 0
BITMAP
3F00
0000
4080
8040
8040
8040
8040
8040
8040
8040
8040
8040
4080
3F00
ENDCHAR
STARTCHAR 041F
ENCODING 1055
SWIDTH 654 0
DWIDTH 10 0
BBX 9 14 0 0
BITMAP
FF80
8080
8080
8080
8080
8080
8080
8080
8080
8080
8080
8080
8080
8080
ENDCHAR
STARTCHAR 0420
ENCODING 1056
SWIDTH 654 0
DWIDTH 10 0
BBX 9 14 0 0
BITMAP
FC00
8000
8200
8080
8080
8080
8080
8200
FC00
8000
8000
8000
8000
8000
ENDCHAR
STARTCHAR 0421
ENCODING 1057
SWIDTH 720 0
DWIDTH 11 0
BBX 10 14 0 0
BITMAP
3F00
0000
4080
8040
8000
8000
8000
8000
8000
8000
8040
0000
4080
3F00
ENDCHAR
STARTCHAR 0422
ENCODING 1058
SWIDTH 654 0
DWIDTH 10 0
BBX 9 14 0 0
BITMAP
FF80
0800
0800
0800
0800
0800
0800
0800
0800
0800
0800
0800
0800
0800
ENDCHAR
STARTCHAR 0423
ENCODING 1059
SWIDTH 654 0
DWIDTH 10 0
BBX 9 14 0 0
BITMAP
8080
8080
8080
4200
4200
1400
1400
1400
0800
0800
0800
0800
1000
C000
ENDCHAR
STARTCHAR 0424
ENCODING 1060
SWIDTH 785 0
DWIDTH 12 0
BBX 11 14 0 0
BITMAP
0400
0400
3F80
4440
8420
8420
8420
8420
8420
8420
4440
0400
3F80
0400
ENDCHAR
STARTCHAR 0425
ENCODING 1061
SWIDTH 654 0
DWIDTH 10 0
BBX 9 14 0 0
BITMAP
8080
4200
4200
4200
1400
1400
1400
0800
1400
1400
4200
4200
4200
8080
ENDCHAR
STARTCHAR 0426
ENCODING 1062
SWIDTH 654 0
DWIDTH 10 0
BBX 9 16 0 -2
BITMAP
8200
8200
8200
8200
8200
8200
8200
8200
8200
8200
8200
8200
8200
FF80
0080
0080
ENDCHAR
STARTCHAR 0427
ENCODING 1063
SWIDTH 654 0
DWIDTH 10 0
BBX 9 14 0 0
BITMAP
8080
8080
8080
8080
8080
8080
0080
4380
3C80
0080
0080
0080
0080
0080
ENDCHAR
STARTCHAR 0428
ENCODING 1064
SWIDTH 785 0
DWIDTH 12 0
BBX 11 14 0 0
BITMAP
8420
8420
8420
8420
8420
8420
8420
8420
8420
8420
8420
8420
8420
FFE0
ENDCHAR
STARTCHAR 0429
ENCODING 1065
SWIDTH 850 0
DWIDTH 13 0
BBX 12 16 0 -2
BITMAP
8420
8420
8420
8420
8420
8420
8420
8420
8420
8420
8420
8420
8420
FFF0
0010
0010
ENDCHAR
STARTCHAR 042A
ENCODING 1066
SWIDTH 850 0
DWIDTH 13 0
BBX 12 14 0 0
BITMAP
F000
1000
1000
1000
1000
1F80
1000
1040
1010
1010
1010
1010
1040
1F80
ENDCHAR
STARTCHAR 042B
ENCODING 1067
SWIDTH 785 0
DWIDTH 12 0
BBX 11 14 0 0
BITMAP
8020
8020
8020
8020
8020
FC20
8020
8220
80A0
80A0
80A0
80A0
8220
FC20
ENDCHAR
STARTCHAR 042C
ENCODING 1068
SWIDTH 654 0
DWIDTH 10 0
BBX 9 14 0 0
BITMAP
8000
8000
8000
8000
8000
FC00
8000
8200
8080
8080
8080
8080
8200
FC00
ENDCHAR
STARTCHAR 042D
ENCODING 1069
SWIDTH 720 0
DWIDTH 11 0
BBX 10 14 0 0
BITMAP
3F00
0000
4080
8040
0040
0040
0040
1FC0
0040
0040
8040
0000
4080
3F00
ENDCHAR
STARTCHAR 042E
ENCODING 1070
SWIDTH 850 0
DWIDTH 13 0
BBX 12 14 0 0
BITMAP
83C0
8000
8420
8810
8810
8810
8810
F810
8810
8810
8810
8810
8420
83C0
ENDCHAR
STARTCHAR 042F
ENCODING 1071
SWIDTH 654 0
DWIDTH 10 0
BBX 9 14 0 0
BITMAP
1F80
0080
4080
8080
8080
8080
8080
4080
1F80
0880
1080
0080
4080
8080
ENDCHAR
STARTCHAR 0430
ENCODING 1072
SWIDTH 523 0
DWIDTH 8 0
BBX 7 10 0 0
BITMAP
7C
82
02
02
3E
42
82
82
86
7A
ENDCHAR
STARTCHAR 0431
ENCODING 1073
SWIDTH 654 0
DWIDTH 10 0
BBX 9 14 0 0
BITMAP
0200
0000
3C00
4000
BC00
C200
8080
8080
8080
8080
8080
0000
4200
3C00
ENDCHAR
STARTCHAR 0432
ENCODING 1074
SWIDTH 523 0
DWIDTH 8 0
BBX 7 10 0 0
BITMAP
FC
82
82
82
FC
82
82
82
82
FC
ENDCHAR
STARTCHAR 0433
ENCODING 1075
SWIDTH 523 0
DWIDTH 8 0
BBX 6 10 0 0
BITMAP
FC
80
80
80
80
80
80
80
80
80
ENDCHAR
STARTCHAR 0434
ENCODING 1076
SWIDTH 720 0
DWIDTH 11 0
BBX 10 12 0 -2
BITMAP
0F80
0880
0880
0880
1080
1080
1080
4080
4080
FFC0
8040
8040
ENDCHAR
STARTCHAR 0435
ENCODING 1077
SWIDTH 654 0
DWIDTH 10 0
BBX 9 10 0 0
BITMAP
3C00
4200
8080
8080
FF80
8000
8080
0000
4200
3C00
ENDCHAR
STARTCHAR 0436
ENCODING 1078
SWIDTH 785 0
DWIDTH 12 0
BBX 11 10 0 0
BITMAP
8420
4440
4440
4440
1480
0E00
1480
0400
4440
8420
ENDCHAR
STARTCHAR 0437
ENCODING 1079
SWIDTH 523 0
DWIDTH 8 0
BBX 7 10 0 0
BITMAP
7C
82
02
02
3C
02
02
02
82
7C
ENDCHAR
STARTCHAR 0438
ENCODING 1080
SWIDTH 654 0
DWIDTH 10 0
BBX 9 10 0 0
BITMAP
8080
8380
8080
8480
8880
8880
9080
8080
E080
8080
ENDCHAR
STARTCHAR 0439
ENCODING 1081
SWIDTH 654 0
DWIDTH 10 0
BBX 9 12 0 0
BITMAP
1400
0800
8080
8380
8080
8480
8880
8880
9080
8080
E080
8080
ENDCHAR
STARTCHAR 043A
ENCODING 1082
SWIDTH 523 0
DWIDTH 8 0
BBX 7 10 0 0
BITMAP
82
84
80
88
F0
90
88
80
84
82
ENDCHAR
STARTCHAR 043B
ENCODING 1083
SWIDTH 654 0
DWIDTH 10 0
BBX 9 10 0 0
BITMAP
1F80
1080
1080
1080
1080
1080
1080
1080
1080
E080
ENDCHAR
STARTCHAR 043C
ENCODING 1084
SWIDTH 720 0
DWIDTH 11 0
BBX 10 10 0 0
BITMAP
80C0
E1C0
E1C0
E1C0
96C0
96C0
96C0
88C0
88C0
88C0
ENDCHAR
STARTCHAR 043D
ENCODING 1085
SWIDTH 523 0
DWIDTH 8 0
BBX 7 10 0 0
BITMAP
82
82
82
82
FE
82
82
82
82
82
ENDCHAR
STARTCHAR 043E
ENCODING 1086
SWIDTH 654 0
DWIDTH 10 0
BBX 9 10 0 0
BITMAP
3C00
4200
8080
8080
8080
8080
8080
0000
4200
3C00
ENDCHAR
STARTCHAR 043F
ENCODING 1087
SWIDTH 523 0
DWIDTH 8 0
BBX 7 10 0 0
BITMAP
FE
82
82
82
82
82
82
82
82
82
ENDCHAR
STARTCHAR 0440
ENCODING 1088
SWIDTH 654 0
DWIDTH 10 0
BBX 9 12 0 -2
BITMAP
BC00
C200
8080
8080
8080
8080
8080
C200
8000
BC00
8000
8000
ENDCHAR
STARTCHAR 0441
ENCODING 1089
SWIDTH 654 0
DWIDTH 10 0
BBX 9 10 0 0
BITMAP
3C00
4200
0000
8080
8000
8000
8080
0000
4200
3C00
ENDCHAR
STARTCHAR 0442
ENCODING 1090
SWIDTH 654 0
DWIDTH 10 0
BBX 9 10 0 0
BITMAP
FF80
0800
0800
0800
0800
0800
0800
0800
0800
0800
ENDCHAR
STARTCHAR 0443
ENCODING 1091
SWIDTH 654 0
DWIDTH 10 0
BBX 9 12 0 -2
BITMAP
8080
8080
C280
4200
1400
1400
1400
0800
0800
0800
1000
C000
ENDCHAR
STARTCHAR 0444
ENCODING 1092
SWIDTH 785 0
DWIDTH 12 0
BBX 11 15 0 -2
BITMAP
0400
0400
0400
3F80
4440
8420
8420
8420
8420
8420
4440
0400
3F80
0400
0400
ENDCHAR
STARTCHAR 0445
ENCODING 1093
SWIDTH 654 0
DWIDTH 10 0
BBX 9 10 0 0
BITMAP
8080
4200
0000
1400
0800
0800
1400
0000
4200
8080
ENDCHAR
STARTCHAR 0446
ENCODING 1094
SWIDTH 654 0
DWIDTH 10 0
BBX 9 12 0 -2
BITMAP
8200
8200
8200
8200
8200
8200
8200
8200
8200
FF80
0080
0080
ENDCHAR
STARTCHAR 0447
ENCODING 1095
SWIDTH 523 0
DWIDTH 8 0
BBX 7 10 0 0
BITMAP
82
82
82
82
82
86
7A
02
02
02
ENDCHAR
STARTCHAR 0448
ENCODING 1096
SWIDTH 654 0
DWIDTH 10 0
BBX 9 10 0 0
BITMAP
8880
8880
8880
8880
8880
8880
8880
8880
8880
FF80
ENDCHAR
STARTCHAR 0449
ENCODING 1097
SWIDTH 720 0
DWIDTH 11 0
BBX 10 12 0 -2
BITMAP
8880
8880
8880
8880
8880
8880
8880
8880
8880
FFC0
0040
0040
ENDCHAR
STARTCHAR 044A
ENCODING 1098
SWIDTH 720 0
DWIDTH 11 0
BBX 10 10 0 0
BITMAP
F000
1000
1000
1000
1F80
1040
1040
1040
1040
1F80
ENDCHAR
STARTCHAR 044B
ENCODING 1099
SWIDTH 720 0
DWIDTH 11 0
BBX 10 10 0 0
BITMAP
8040
8040
8040
8040
FC40
8240
8240
8240
8240
FC40
ENDCHAR
STARTCHAR 044C
ENCODING 1100
SWIDTH 523 0
DWIDTH 8 0
BBX 7 10 0 0
BITMAP
80
80
80
80
FC
82
82
82
82
FC
ENDCHAR
STARTCHAR 044D
ENCODING 1101
SWIDTH 654 0
DWIDTH 10 0
BBX 9 10 0 0
BITMAP
3C00
4200
0000
8180
1F80
0080
8080
0000
4200
3C00
ENDCHAR
STARTCHAR 044E
ENCODING 1102
SWIDTH 850 0
DWIDTH 13 0
BBX 12 10 0 0
BITMAP
83C0
8420
8810
8810
F810
8810
8810
8000
8420
83C0
ENDCHAR
STARTCHAR 044F
ENCODING 1103
SWIDTH 523 0
DWIDTH 8 0
BBX 7 10 0 0
BITMAP
7E
82
82
82
82
7E
12
12
42
82
ENDCHAR
STARTCHAR 0450
ENCODING 1104
SWIDTH 654 0
DWIDTH 10 0
BBX 9 14 0 0
BITMAP
1000
0000
0800
0000
1E00
4000
8080
8080
FF80
8000
8080
0000
4000
1E00
ENDCHAR
STARTCHAR 0451
ENCODING 1105
SWIDTH 654 0
DWIDTH 10 0
BBX 9 12 0 0
BITMAP
1400
0000
1C00
4200
8080
8080
FF80
8000
8080
0000
4200
1C00
ENDCHAR
STARTCHAR 0452
ENCODING 1106
SWIDTH 720 0
DWIDTH 11 0
BBX 10 16 0 -2
BITMAP
1000
FC00
1000
1000
1000
1780
1840
1040
1040
1040
1040
1040
1040
1040
0040
0380
ENDCHAR
STARTCHAR 0453
ENCODING 1107
SWIDTH 523 0
DWIDTH 8 0
BBX 6 14 0 0
BITMAP
08
00
10
00
FC
80
80
80
80
80
80
80
80
80
ENDCHAR
STARTCHAR 0454
ENCODING 1108
SWIDTH 654 0
DWIDTH 10 0
BBX 9 10 0 0
BITMAP
3C00
4200
0000
8080
FC00
8000
8080
0000
4200
3C00
ENDCHAR
STARTCHAR 0455
ENCODING 1109
SWIDTH 523 0
DWIDTH 8 0
BBX 7 10 0 0
BITMAP
7C
82
80
80
70
0C
02
02
82
7C
ENDCHAR
STARTCHAR 0456
ENCODING 1110
SWIDTH 392 0
DWIDTH 6 0
BBX 1 12 2 0
BITMAP
80
00
80
80
80
80
80
80
80
80
80
80
ENDCHAR
STARTCHAR 0457
ENCODING 1111
SWIDTH 327 0
DWIDTH 5 0
BBX 4 12 0 0
BITMAP
B0
00
40
40
40
40
40
40
40
40
40
40
ENDCHAR
STARTCHAR 0458
ENCODING 1112
SWIDTH 392 0
DWIDTH 6 0
BBX 5 15 0 -2
BITMAP
08
00
00
08
08
08
08
08
08
08
08
08
08
88
70
ENDCHAR
STARTCHAR 0459
ENCODING 1113
SWIDTH 981 0
DWIDTH 15 0
BBX 14 10 0 0
BITMAP
1F80
1080
1080
1080
10F8
1084
1084
1084
1084
E0F8
ENDCHAR
STARTCHAR 045A
ENCODING 1114
SWIDTH 850 0
DWIDTH 13 0
BBX 12 10 0 0
BITMAP
8200
8200
8200
8200
FFE0
8210
8210
8210
8210
83E0
ENDCHAR
STARTCHAR 045B
ENCODING 1115
SWIDTH 720 0
DWIDTH 11 0
BBX 10 14 0 0
BITMAP
1000
1000
FC00
1000
1000
1780
1000
1840
1040
1040
1040
1040
1040
1040
ENDCHAR
STARTCHAR 045C
ENCODING 1116
SWIDTH 523 0
DWIDTH 8 0
BBX 7 14 0 0
BITMAP
08
00
10
00
82
84
80
88
F0
90
88
80
84
82
ENDCHAR
STARTCHAR 045D
ENCODING 1117
SWIDTH 654 0
DWIDTH 10 0
BBX 9 14 0 0
BITMAP
1000
0000
0800
0000
8080
8380
8080
8480
8880
8880
9080
8080
E080
8080
ENDCHAR
STARTCHAR 045E
ENCODING 1118
SWIDTH 654 0
DWIDTH 10 0
BBX 9 16 0 -2
BITMAP
1200
0C00
0000
0000
8080
8080
C280
4200
1400
1400
1400
0800
0800
0800
1000
C000
ENDCHAR
STARTCHAR 045F
ENCODING 1119
SWIDTH 654 0
DWIDTH 10 0
BBX 9 12 0 -2
BITMAP
8080
8080
8080
8080
8080
8080
8080
8080
8080
FF80
0800
0800
ENDCHAR
STARTCHAR 0490
ENCODING 1168
SWIDTH 523 0
DWIDTH 8 0
BBX 7 17 0 0
BITMAP
02
02
02
FE
80
80
80
80
80
80
80
80
80
80
80
80
80
ENDCHAR
STARTCHAR 0491
ENCODING 1169
SWIDTH 458 0
DWIDTH 7 0
BBX 6 13 0 0
BITMAP
04
04
04
FC
80
80
80
80
80
80
80
80
80
ENDCHAR
STARTCHAR 04C0
ENCODING 1216
SWIDTH 327 0
DWIDTH 5 0
BBX 4 14 0 0
BITMAP
F0
20
20
20
20
20
20
20
20
20
20
20
20
F0
ENDCHAR
STARTCHAR 04C1
ENCODING 1217
SWIDTH 981 0
DWIDTH 15 0
BBX 14 17 0 0
BITMAP
0440
0380
0000
8204
4210
4210
4210
1220
0A40
0200
0780
0A40
1220
4210
4210
4210
8204
ENDCHAR
STARTCHAR 04C2
ENCODING 1218
SWIDTH 785 0
DWIDTH 12 0
BBX 11 14 0 0
BITMAP
0880
0000
0700
0000
8420
4440
4440
4440
1480
0F00
1480
0400
4440
8420
ENDCHAR
STARTCHAR 04CF
ENCODING 1231
SWIDTH 392 0
DWIDTH 6 0
BBX 1 14 2 0
BITMAP
80
80
80
80
80
80
80
80
80
80
80
80
80
80
ENDCHAR
STARTCHAR 04D0
ENCODING 1232
SWIDTH 654 0
DWIDTH 10 0
BBX 9 17 0 0
BITMAP
1200
0C00
0000
0800
1400
1400
1400
1400
4200
4200
4200
4200
7E00
8080
8080
8080
8080
ENDCHAR
STARTCHAR 04D1
ENCODING 1233
SWIDTH 523 0
DWIDTH 8 0
BBX 7 14 0 0
BITMAP
44
00
38
00
7C
82
02
02
3E
42
82
82
86
7A
ENDCHAR
STARTCHAR 04D2
ENCODING 1234
SWIDTH 654 0
DWIDTH 10 0
BBX 9 16 0 0
BITMAP
1400
0000
0800
1400
1400
1400
1400
4200
4200
4200
4200
7E00
8080
8080
8080
8080
ENDCHAR
STARTCHAR 04D3
ENCODING 1235
SWIDTH 523 0
DWIDTH 8 0
BBX 7 12 0 0
BITMAP
44
00
7C
82
02
02
3E
42
82
82
86
7A
ENDCHAR
STARTCHAR 04D4
ENCODING 1236
SWIDTH 850 0
DWIDTH 13 0
BBX 11 14 0 0
BITMAP
0FE0
1400
1400
1400
1400
4400
4400
47E0
4400
7C00
8400
8400
8400
87E0
ENDCHAR
STARTCHAR 04D5
ENCODING 1237
SWIDTH 654 0
DWIDTH 10 0
BBX 9 10 0 0
BITMAP
7700
8880
0880
0880
3F80
4800
8800
8800
8880
7700
ENDCHAR
STARTCHAR 04D6
ENCODING 1238
SWIDTH 589 0
DWIDTH 9 0
BBX 7 17 0 0
BITMAP
44
38
00
FE
80
80
80
80
80
80
FE
80
80
80
80
80
FE
ENDCHAR
STARTCHAR 04D7
ENCODING 1239
SWIDTH 654 0
DWIDTH 10 0
BBX 9 14 0 0
BITMAP
1200
0000
0C00
0000
1C00
4200
8080
8080
FF80
8000
8080
0000
4200
1C00
ENDCHAR
STARTCHAR 04D8
ENCODING 1240
SWIDTH 720 0
DWIDTH 11 0
BBX 10 14 0 0
BITMAP
3F00
0000
4080
8040
0040
0040
0040
FFC0
8040
8040
8040
8040
4080
3F00
ENDCHAR
STARTCHAR 04D9
ENCODING 1241
SWIDTH 654 0
DWIDTH 10 0
BBX 9 10 0 0
BITMAP
3C00
4200
8080
0080
0080
FF80
8080
0000
4200
3C00
ENDCHAR
STARTCHAR 04DA
ENCODING 1242
SWIDTH 720 0
DWIDTH 11 0
BBX 10 16 0 0
BITMAP
1200
0000
1E00
0000
4080
8040
0040
0040
0040
FFC0
8040
8040
8040
8040
4080
1E00
ENDCHAR
STARTCHAR 04DB
ENCODING 1243
SWIDTH 654 0
DWIDTH 10 0
BBX 9 12 0 0
BITMAP
1400
0000
1C00
4200
8080
0080
0080
FF80
8180
0000
4200
1C00
ENDCHAR
STARTCHAR 04DC
ENCODING 1244
SWIDTH 981 0
DWIDTH 15 0
BBX 14 16 0 0
BITMAP
0480
0000
8204
4210
4210
4210
1220
0A40
0200
0780
0A40
1220
4210
4210
4210
8204
ENDCHAR
STARTCHAR 04DD
ENCODING 1245
SWIDTH 785 0
DWIDTH 12 0
BBX 11 12 0 0
BITMAP
0A00
0000
8420
4440
4440
4440
1480
0E00
1480
0400
4440
8420
ENDCHAR
STARTCHAR 04DE
ENCODING 1246
SWIDTH 720 0
DWIDTH 11 0
BBX 10 16 0 0
BITMAP
1200
0000
1E00
0000
4080
8040
0040
0080
0000
0E00
0040
0040
8040
0000
4080
1E00
ENDCHAR
STARTCHAR 04DF
ENCODING 1247
SWIDTH 523 0
DWIDTH 8 0
BBX 7 12 0 0
BITMAP
44
00
7C
82
02
02
3C
02
02
02
82
7C
ENDCHAR
STARTCHAR 04E0
ENCODING 1248
SWIDTH 720 0
DWIDTH 11 0
BBX 10 14 0 0
BITMAP
FFC0
0040
0040
0080
0200
0400
0400
1E00
0040
0040
8040
0000
4080
3E00
ENDCHAR
STARTCHAR 04E1
ENCODING 1249
SWIDTH 523 0
DWIDTH 8 0
BBX 7 10 0 0
BITMAP
FE
04
04
08
3C
02
02
02
82
7C
ENDCHAR
STARTCHAR 04E2
ENCODING 1250
SWIDTH 654 0
DWIDTH 10 0
BBX 9 16 0 0
BITMAP
7F00
0000
8080
8380
8380
8380
8480
8480
8480
8880
9080
9080
E080
E080
E080
8080
ENDCHAR
STARTCHAR 04E3
ENCODING 1251
SWIDTH 654 0
DWIDTH 10 0
BBX 9 12 0 0
BITMAP
7F00
0000
8080
8380
8080
8480
8880
8880
9080
8080
E080
8080
ENDCHAR
STARTCHAR 04E4
ENCODING 1252
SWIDTH 720 0
DWIDTH 11 0
BBX 10 16 0 0
BITMAP
1600
0000
80C0
81C0
81C0
81C0
86C0
86C0
86C0
88C0
90C0
90C0
E0C0
E0C0
E0C0
80C0
ENDCHAR
STARTCHAR 04E5
ENCODING 1253
SWIDTH 654 0
DWIDTH 10 0
BBX 9 12 0 0
BITMAP
1400
0000
8080
8380
8080
8480
8880
8880
9080
8080
E080
8080
ENDCHAR
STARTCHAR 04E6
ENCODING 1254
SWIDTH 720 0
DWIDTH 11 0
BBX 10 16 0 0
BITMAP
1200
0000
1E00
0000
4080
8040
8040
8040
8040
8040
8040
8040
8040
8040
4080
1E00
ENDCHAR
STARTCHAR 04E7
ENCODING 1255
SWIDTH 654 0
DWIDTH 10 0
BBX 9 12 0 0
BITMAP
1400
0000
1C00
4200
8080
8080
8080
8080
8080
0000
4200
1C00
ENDCHAR
STARTCHAR 04E8
ENCODING 1256
SWIDTH 720 0
DWIDTH 11 0
BBX 10 14 0 0
BITMAP
3F00
0000
4080
8040
8040
8040
8040
FFC0
8040
8040
8040
8040
4080
3F00
ENDCHAR
STARTCHAR 04E9
ENCODING 1257
SWIDTH 654 0
DWIDTH 10 0
BBX 9 10 0 0
BITMAP
3C00
4200
8080
8080
FF80
8080
8080
0000
4200
3C00
ENDCHAR
STARTCHAR 04EA
ENCODING 1258
SWIDTH 720 0
DWIDTH 11 0
BBX 10 16 0 0
BITMAP
1200
0000
1E00
0000
4080
8040
8040
8040
8040
FFC0
8040
8040
8040
8040
4080
1E00
ENDCHAR
STARTCHAR 04EB
ENCODING 1259
SWIDTH 654 0
DWIDTH 10 0
BBX 9 12 0 0
BITMAP
1400
0000
1C00
4200
8180
8180
FF80
8080
8080
0000
4200
1C00
ENDCHAR
STARTCHAR 04EC
ENCODING 1260
SWIDTH 720 0
DWIDTH 11 0
BBX 10 16 0 0
BITMAP
1200
0000
1E00
0000
4080
8040
0040
0040
0040
0FC0
0040
0040
8040
0000
4080
1E00
ENDCHAR
STARTCHAR 04ED
ENCODING 1261
SWIDTH 654 0
DWIDTH 10 0
BBX 9 12 0 0
BITMAP
1400
0000
1C00
4200
0000
8180
0F80
0080
8080
0000
4200
1C00
ENDCHAR
STARTCHAR 04EE
ENCODING 1262
SWIDTH 654 0
DWIDTH 10 0
BBX 9 16 0 0
BITMAP
7E00
0000
8080
8080
8080
4200
4200
1400
1400
1400
0800
0800
0800
0800
1000
C000
ENDCHAR
STARTCHAR 04EF
ENCODING 1263
SWIDTH 654 0
DWIDTH 10 0
BBX 9 15 0 -2
BITMAP
7E00
0000
0000
8080
8080
C280
4200
1400
1400
1400
0800
0800
0800
1000
C000
ENDCHAR
STARTCHAR 04F0
ENCODING 1264
SWIDTH 654 0
DWIDTH 10 0
BBX 9 16 0 0
BITMAP
1400
0000
8080
8080
8080
4200
4200
1400
1400
1400
0800
0800
0800
0800
1000
C000
ENDCHAR
STARTCHAR 04F1
ENCODING 1265
SWIDTH 654 0
DWIDTH 10 0
BBX 9 15 0 -2
BITMAP
1400
0000
0000
8080
8080
C280
4200
1400
1400
1400
0800
0800
0800
1000
C000
ENDCHAR
STARTCHAR 04F2
ENCODING 1266
SWIDTH 654 0
DWIDTH 10 0
BBX 9 16 0 0
BITMAP
0A00
1400
8080
8080
8080
4200
4200
1400
1400
1400
0800
0800
0800
0800
1000
C000
ENDCHAR
STARTCHAR 04F3
ENCODING 1267
SWIDTH 654 0
DWIDTH 10 0
BBX 9 15 0 -2
BITMAP
0A00
1400
0000
8080
8080
C280
4200
1400
1400
1400
0800
0800
0800
1000
C000
ENDCHAR
STARTCHAR 04F4
ENCODING 1268
SWIDTH 654 0
DWIDTH 10 0
BBX 9 16 0 0
BITMAP
1400
0000
8080
8080
8080
8080
8080
8080
0080
4380
1C80
0080
0080
0080
0080
0080
ENDCHAR
STARTCHAR 04F5
ENCODING 1269
SWIDTH 523 0
DWIDTH 8 0
BBX 7 12 0 0
BITMAP
44
00
82
82
82
82
82
86
7A
02
02
02
ENDCHAR
STARTCHAR 04F8
ENCODING 1272
SWIDTH 785 0
DWIDTH 12 0
BBX 11 15 0 0
BITMAP
0A00
8020
8020
8020
8020
8020
FC20
8020
8220
80A0
80A0
80A0
80A0
8220
FC20
ENDCHAR
STARTCHAR 04F9
ENCODING 1273
SWIDTH 720 0
DWIDTH 11 0
BBX 10 12 0 0
BITMAP
1200
0000
8040
8040
8040
8040
FC40
8240
8240
8240
8240
FC40
ENDCHAR
STARTCHAR 1EF2
ENCODING 7922
SWIDTH 654 0
DWIDTH 10 0
BBX 9 16 0 0
BITMAP
1000
0800
8080
8080
8080
4200
4200
1400
1400
1400
0800
0800
0800
0800
0800
0800
ENDCHAR
STARTCHAR 1EF3
ENCODING 7923
SWIDTH 654 0
DWIDTH 10 0
BBX 9 15 0 -2
BITMAP
1000
0800
0000
8080
8080
C280
4200
1400
1400
1400
0800
0800
0800
1000
C000
ENDCHAR
STARTCHAR 2010
ENCODING 8208
SWIDTH 523 0
DWIDTH 8 0
BBX 7 1 0 6
BITMAP
FE
ENDCHAR
STARTCHAR 2011
ENCODING 8209
SWIDTH 523 0
DWIDTH 8 0
BBX 7 1 0 6
BITMAP
FE
ENDCHAR
STARTCHAR 2012
ENCODING 8210
SWIDTH 654 0
DWIDTH 10 0
BBX 9 1 0 6
BITMAP
FF80
ENDCHAR
STARTCHAR 2013
ENCODING 8211
SWIDTH 589 0
DWIDTH 9 0
BBX 8 1 0 6
BITMAP
FF
ENDCHAR
STARTCHAR 2014
ENCODING 8212
SWIDTH 981 0
DWIDTH 15 0
BBX 14 1 0 6
BITMAP
FFFC
ENDCHAR
STARTCHAR 2015
ENCODING 8213
SWIDTH 981 0
DWIDTH 15 0
BBX 14 1 0 6
BITMAP
FFFC
ENDCHAR
STARTCHAR 2016
ENCODING 8214
SWIDTH 327 0
DWIDTH 5 0
BBX 4 14 0 0
BITMAP
90
90
90
90
90
90
90
90
90
90
90
90
90
90
ENDCHAR
STARTCHAR 2017
ENCODING 8215
SWIDTH 589 0
DWIDTH 9 0
BBX 8 4 0 0
BITMAP
FF
00
00
FF
ENDCHAR
STARTCHAR 2018
ENCODING 8216
SWIDTH 327 0
DWIDTH 5 0
BBX 2 4 2 10
BITMAP
40
80
80
80
ENDCHAR
STARTCHAR 2019
ENCODING 8217
SWIDTH 327 0
DWIDTH 5 0
BBX 2 4 0 10
BITMAP
40
40
40
80
ENDCHAR
STARTCHAR 201A
ENCODING 8218
SWIDTH 327 0
DWIDTH 5 0
BBX 2 4 0 -1
BITMAP
40
40
40
80
ENDCHAR
STARTCHAR 201B
ENCODING 8219
SWIDTH 327 0
DWIDTH 5 0
BBX 2 4 2 10
BITMAP
80
80
80
40
ENDCHAR
STARTCHAR 201C
ENCODING 8220
SWIDTH 523 0
DWIDTH 8 0
BBX 5 4 2 10
BITMAP
48
90
90
90
ENDCHAR
STARTCHAR 201D
ENCODING 8221
SWIDTH 523 0
DWIDTH 8 0
BBX 5 4 0 10
BITMAP
48
48
48
90
ENDCHAR
STARTCHAR 201E
ENCODING 8222
SWIDTH 523 0
DWIDTH 8 0
BBX 5 4 0 -1
BITMAP
48
48
48
90
ENDCHAR
STARTCHAR 201F
ENCODING 8223
SWIDTH 523 0
DWIDTH 8 0
BBX 5 4 2 10
BITMAP
90
90
90
48
ENDCHAR
STARTCHAR 2020
ENCODING 8224
SWIDTH 523 0
DWIDTH 8 0
BBX 7 14 0 0
BITMAP
10
10
10
10
FE
10
10
10
10
10
10
10
10
10
ENDCHAR
STARTCHAR 2021
ENCODING 8225
SWIDTH 523 0
DWIDTH 8 0
BBX 7 14 0 0
BITMAP
10
10
10
FE
10
10
10
10
10
10
FE
10
10
10
ENDCHAR
STARTCHAR 2022
ENCODING 8226
SWIDTH 458 0
DWIDTH 7 0
BBX 6 5 0 4
BITMAP
38
FC
FC
FC
38
ENDCHAR
STARTCHAR 2023
ENCODING 8227
SWIDTH 458 0
DWIDTH 7 0
BBX 4 6 2 4
BITMAP
80
C0
F0
C0
C0
80
ENDCHAR
STARTCHAR 2024
ENCODING 8228
SWIDTH 392 0
DWIDTH 6 0
BBX 1 1 2 0
BITMAP
80
ENDCHAR
STARTCHAR 2025
ENCODING 8229
SWIDTH 850 0
DWIDTH 13 0
BBX 7 1 3 6
BITMAP
82
ENDCHAR
STARTCHAR 2026
ENCODING 8230
SWIDTH 916 0
DWIDTH 14 0
BBX 9 1 2 6
BITMAP
8880
ENDCHAR
STARTCHAR 2027
ENCODING 8231
SWIDTH 392 0
DWIDTH 6 0
BBX 1 1 2 6
BITMAP
80
ENDCHAR
STARTCHAR 2030
ENCODING 8240
SWIDTH 1047 0
DWIDTH 16 0
BBX 15 11 0 1
BITMAP
7020
8840
8880
7200
0000
0400
08DC
1222
4222
0000
80DC
ENDCHAR
STARTCHAR 2031
ENCODING 8241
SWIDTH 1309 0
DWIDTH 20 0
BBX 19 11 0 1
BITMAP
702000
884000
888000
720000
000000
040000
08DDC0
122220
422220
000000
80DDC0
ENDCHAR
STARTCHAR 2032
ENCODING 8242
SWIDTH 327 0
DWIDTH 5 0
BBX 2 4 0 10
BITMAP
40
40
40
80
ENDCHAR
STARTCHAR 2033
ENCODING 8243
SWIDTH 523 0
DWIDTH 8 0
BBX 5 4 0 10
BITMAP
48
48
48
90
ENDCHAR
STARTCHAR 2034
ENCODING 8244
SWIDTH 720 0
DWIDTH 11 0
BBX 8 4 0 10
BITMAP
4B
4B
4B
90
ENDCHAR
STARTCHAR 2035
ENCODING 8245
SWIDTH 327 0
DWIDTH 5 0
BBX 2 4 2 10
BITMAP
80
80
80
40
ENDCHAR
STARTCHAR 2036
ENCODING 8246
SWIDTH 523 0
DWIDTH 8 0
BBX 5 4 2 10
BITMAP
90
90
90
48
ENDCHAR
STARTCHAR 2037
ENCODING 8247
SWIDTH 720 0
DWIDTH 11 0
BBX 8 4 2 10
BITMAP
90
92
90
4B
ENDCHAR
STARTCHAR 2038
ENCODING 8248
SWIDTH 458 0
DWIDTH 7 0
BBX 6 4 0 0
BITMAP
10
00
48
84
ENDCHAR
STARTCHAR 2039
ENCODING 8249
SWIDTH 327 0
DWIDTH 5 0
BBX 4 6 0 3
BITMAP
30
40
80
00
40
30
ENDCHAR
STARTCHAR 203A
ENCODING 8250
SWIDTH 327 0
DWIDTH 5 0
BBX 4 6 0 3
BITMAP
80
40
30
00
40
80
ENDCHAR
STARTCHAR 203B
ENCODING 8251
SWIDTH 1047 0
DWIDTH 16 0
BBX 11 11 2 1
BITMAP
8420
4440
1080
0A00
0000
C460
0A00
1080
4440
0400
8420
ENDCHAR
STARTCHAR 203C
ENCODING 8252
SWIDTH 654 0
DWIDTH 10 0
BBX 5 14 2 0
BITMAP
88
88
88
88
88
88
88
88
88
88
00
88
88
88
ENDCHAR
STARTCHAR 203D
ENCODING 8253
SWIDTH 458 0
DWIDTH 7 0
BBX 6 14 0 0
BITMAP
78
84
94
94
14
18
10
10
10
10
00
10
10
10
ENDCHAR
STARTCHAR 2043
ENCODING 8259
SWIDTH 392 0
DWIDTH 6 0
BBX 5 1 0 6
BITMAP
F8
ENDCHAR
STARTCHAR 2044
ENCODING 8260
SWIDTH 458 0
DWIDTH 7 0
BBX 6 14 0 0
BITMAP
04
04
04
08
08
10
10
10
10
40
40
80
80
80
ENDCHAR
STARTCHAR 2045
ENCODING 8261
SWIDTH 327 0
DWIDTH 5 0
BBX 4 14 0 0
BITMAP
F0
80
80
80
80
80
80
F0
80
80
80
80
80
F0
ENDCHAR
STARTCHAR 2046
ENCODING 8262
SWIDTH 327 0
DWIDTH 5 0
BBX 4 14 0 0
BITMAP
F0
10
10
10
10
10
10
F0
10
10
10
10
10
F0
ENDCHAR
STARTCHAR 2047
ENCODING 8263
SWIDTH 981 0
DWIDTH 15 0
BBX 14 14 0 0
BITMAP
7878
8484
8484
8484
0404
0808
1020
1020
1020
1020
0000
1020
1020
1020
ENDCHAR
STARTCHAR 2048
ENCODING 8264
SWIDTH 850 0
DWIDTH 13 0
BBX 10 14 0 0
BITMAP
7840
8440
8440
8440
0440
0840
1040
1040
1040
1040
0000
1040
1040
1040
ENDCHAR
STARTCHAR 2049
ENCODING 8265
SWIDTH 850 0
DWIDTH 13 0
BBX 10 14 2 0
BITMAP
8780
8840
8840
8840
8040
8080
8200
8200
8200
8200
0000
8200
8200
8200
ENDCHAR
STARTCHAR 204B
ENCODING 8267
SWIDTH 589 0
DWIDTH 9 0
BBX 7 14 0 0
BITMAP
FC
9E
9E
9E
9E
9C
90
90
90
90
90
90
90
90
ENDCHAR
STARTCHAR 2057
ENCODING 8279
SWIDTH 850 0
DWIDTH 13 0
BBX 10 4 0 10
BITMAP
4A40
4A40
4A40
9480
ENDCHAR
STARTCHAR 20A1
ENCODING 8353
SWIDTH 654 0
DWIDTH 10 0
BBX 9 14 0 0
BITMAP
0200
0000
1C00
4600
8480
8800
8800
8800
8800
9080
7200
1000
1C00
4000
ENDCHAR
STARTCHAR 20A4
ENCODING 8356
SWIDTH 720 0
DWIDTH 11 0
BBX 10 11 0 1
BITMAP
0F00
1080
1080
1080
1000
7F00
0800
7840
0840
8840
7780
ENDCHAR
STARTCHAR 20A9
ENCODING 8361
SWIDTH 1047 0
DWIDTH 16 0
BBX 14 11 0 1
BITMAP
2108
2108
FFFC
2108
2108
FFFC
1290
1290
0420
0420
0420
ENDCHAR
STARTCHAR 20AC
ENCODING 8364
SWIDTH 785 0
DWIDTH 12 0
BBX 11 11 0 2
BITMAP
0FC0
0000
1020
2000
FF00
2000
2000
FF00
2000
1020
0FC0
ENDCHAR
STARTCHAR 20B1
ENCODING 8369
SWIDTH 850 0
DWIDTH 13 0
BBX 12 14 0 0
BITMAP
3F00
2080
2080
FFF0
2020
FFF0
2080
2080
3F00
2000
2000
2000
2000
2000
ENDCHAR
STARTCHAR 20B9
ENCODING 8377
SWIDTH 654 0
DWIDTH 10 0
BBX 9 14 0 0
BITMAP
FF80
0800
0800
0400
FF80
0400
0800
0800
F000
6000
1000
0800
0800
0400
ENDCHAR
STARTCHAR 20BD
ENCODING 8381
SWIDTH 916 0
DWIDTH 14 0
BBX 11 14 0 0
BITMAP
3F00
2000
2080
2020
2020
2020
2020
2080
FF00
2000
FE00
2000
2000
2000
ENDCHAR
STARTCHAR 2103
ENCODING 8451
SWIDTH 981 0
DWIDTH 15 0
BBX 14 14 0 0
BITMAP
6000
93F0
6408
6408
0804
0800
0800
0800
0800
0800
0804
0804
0408
03F0
ENDCHAR
STARTCHAR 2109
ENCODING 8457
SWIDTH 916 0
DWIDTH 14 0
BBX 13 14 0 0
BITMAP
6000
97F8
97F8
6400
0400
0400
0400
07F8
0400
0400
0400
0400
0400
0400
ENDCHAR
STARTCHAR 2116
ENCODING 8470
SWIDTH 981 0
DWIDTH 15 0
BBX 14 14 0 0
BITMAP
8400
8400
C400
C400
C470
9488
9488
9488
9488
8C88
8C88
8488
8488
8474
ENDCHAR
STARTCHAR 2121
ENCODING 8481
SWIDTH 981 0
DWIDTH 15 0
BBX 14 14 0 0
BITMAP
E7A0
4420
4420
4420
4420
4420
4420
47A0
4420
4420
4420
4420
4420
47BC
ENDCHAR
STARTCHAR 2122
ENCODING 8482
SWIDTH 981 0
DWIDTH 15 0
BBX 14 5 0 9
BITMAP
FC84
10CC
10CC
10A4
1084
ENDCHAR
STARTCHAR 2150
ENCODING 8528
SWIDTH 981 0
DWIDTH 15 0
BBX 12 14 2 0
BITMAP
C000
4000
4020
4040
4080
4200
4000
44F0
0810
1020
4020
8040
0040
0040
ENDCHAR
STARTCHAR 2151
ENCODING 8529
SWIDTH 981 0
DWIDTH 15 0
BBX 12 14 2 0
BITMAP
C000
4000
4020
4040
4080
4200
4000
4460
0890
1090
4070
0010
8010
0060
ENDCHAR
STARTCHAR 2152
ENCODING 8530
SWIDTH 981 0
DWIDTH 15 0
BBX 12 14 2 0
BITMAP
C000
4000
4020
4040
4080
4200
4000
4400
0A20
1250
4250
0250
8250
0220
ENDCHAR
STARTCHAR 2153
ENCODING 8531
SWIDTH 981 0
DWIDTH 15 0
BBX 12 14 2 0
BITMAP
C000
4000
4020
4040
4080
4200
4000
44E0
0810
1060
4010
0010
8010
00E0
ENDCHAR
STARTCHAR 2154
ENCODING 8532
SWIDTH 981 0
DWIDTH 15 0
BBX 14 14 0 0
BITMAP
F000
0000
0810
1020
4040
8080
8000
FA70
0404
0830
1004
0004
4004
0070
ENDCHAR
STARTCHAR 2155
ENCODING 8533
SWIDTH 981 0
DWIDTH 15 0
BBX 12 14 2 0
BITMAP
C000
4000
4020
4040
4080
4200
4000
44F0
0880
10E0
4010
0010
8010
00E0
ENDCHAR
STARTCHAR 2156
ENCODING 8534
SWIDTH 981 0
DWIDTH 15 0
BBX 14 14 0 0
BITMAP
F000
0000
0810
1020
4040
8080
8000
FA7C
0440
0878
1004
0004
4004
0070
ENDCHAR
STARTCHAR 2157
ENCODING 8535
SWIDTH 981 0
DWIDTH 15 0
BBX 14 14 0 0
BITMAP
F000
0000
0808
3020
0840
0880
0000
F17C
0440
0878
1004
0004
2004
0078
ENDCHAR
STARTCHAR 2158
ENCODING 8536
SWIDTH 981 0
DWIDTH 15 0
BBX 14 14 0 0
BITMAP
0800
0800
1810
4820
8840
FC80
0800
0A7C
0440
0878
1004
0004
4004
0070
ENDCHAR
STARTCHAR 2159
ENCODING 8537
SWIDTH 981 0
DWIDTH 15 0
BBX 12 14 2 0
BITMAP
C000
4000
4020
4040
4080
4200
4000
4460
0880
10E0
4090
0090
8090
0060
ENDCHAR
STARTCHAR 215A
ENCODING 8538
SWIDTH 981 0
DWIDTH 15 0
BBX 14 14 0 0
BITMAP
F800
8000
8010
F020
0840
0880
0000
F230
0440
0878
1044
0044
4044
0030
ENDCHAR
STARTCHAR 215B
ENCODING 8539
SWIDTH 981 0
DWIDTH 15 0
BBX 12 14 2 0
BITMAP
C000
4000
4020
4040
4080
4200
4000
4460
0890
1060
4090
0090
8090
0060
ENDCHAR
STARTCHAR 215C
ENCODING 8540
SWIDTH 981 0
DWIDTH 15 0
BBX 14 14 0 0
BITMAP
F000
0000
0808
3020
0840
0880
0000
F138
0444
0838
1044
0044
2044
0038
ENDCHAR
STARTCHAR 215D
ENCODING 8541
SWIDTH 981 0
DWIDTH 15 0
BBX 14 14 0 0
BITMAP
F800
8000
8010
F020
0840
0880
0000
F230
0444
0830
1044
0044
4044
0030
ENDCHAR
STARTCHAR 215E
ENCODING 8542
SWIDTH 981 0
DWIDTH 15 0
BBX 12 14 2 0
BITMAP
F800
0800
0820
1040
1080
4200
4000
4460
0890
1060
4090
0090
8090
0060
ENDCHAR
STARTCHAR 215F
ENCODING 8543
SWIDTH 1047 0
DWIDTH 16 0
BBX 11 13 2 1
BITMAP
C000
4000
4020
4040
4080
4200
4000
4400
0800
1000
4000
0000
8000
ENDCHAR
STARTCHAR 2160
ENCODING 8544
SWIDTH 327 0
DWIDTH 5 0
BBX 4 14 0 0
BITMAP
F0
20
20
20
20
20
20
20
20
20
20
20
20
F0
ENDCHAR
STARTCHAR 2161
ENCODING 8545
SWIDTH 523 0
DWIDTH 8 0
BBX 7 14 0 0
BITMAP
FE
24
24
24
24
24
24
24
24
24
24
24
24
FE
ENDCHAR
STARTCHAR 2162
ENCODING 8546
SWIDTH 720 0
DWIDTH 11 0
BBX 9 14 0 0
BITMAP
FF80
2500
2500
2500
2500
2500
2500
2500
2500
2500
2500
2500
2500
FF80
ENDCHAR
STARTCHAR 2163
ENCODING 8547
SWIDTH 916 0
DWIDTH 14 0
BBX 13 14 0 0
BITMAP
F808
2808
2808
2808
2420
2420
2420
2420
2140
2140
2140
2080
2080
F080
ENDCHAR
STARTCHAR 2164
ENCODING 8548
SWIDTH 654 0
DWIDTH 10 0
BBX 9 14 0 0
BITMAP
8080
8080
8080
8080
4200
4200
4200
4200
1400
1400
1400
0800
0800
0800
ENDCHAR
STARTCHAR 2165
ENCODING 8549
SWIDTH 916 0
DWIDTH 14 0
BBX 13 14 0 0
BITMAP
80F8
80A0
80A0
80A0
4220
4220
4220
4220
1420
1420
1420
0820
0820
0878
ENDCHAR
STARTCHAR 2166
ENCODING 8550
SWIDTH 1112 0
DWIDTH 17 0
BBX 15 14 0 0
BITMAP
80FE
80A4
80A4
80A4
4224
4224
4224
4224
1424
1424
1424
0824
0824
087E
ENDCHAR
STARTCHAR 2167
ENCODING 8551
SWIDTH 1243 0
DWIDTH 19 0
BBX 18 14 0 0
BITMAP
80FFC0
80A500
80A500
80A500
422500
422500
422500
422500
142500
142500
142500
082500
082500
087FC0
ENDCHAR
STARTCHAR 2168
ENCODING 8552
SWIDTH 916 0
DWIDTH 14 0
BBX 13 14 0 0
BITMAP
FC08
2210
2210
2210
2120
2120
2120
2080
2120
2120
2210
2210
2210
FC08
ENDCHAR
STARTCHAR 2169
ENCODING 8553
SWIDTH 654 0
DWIDTH 10 0
BBX 9 14 0 0
BITMAP
8080
4200
4200
4200
1400
1400
1400
0800
1400
1400
4200
4200
4200
8080
ENDCHAR
STARTCHAR 216A
ENCODING 8554
SWIDTH 916 0
DWIDTH 14 0
BBX 12 14 0 0
BITMAP
81F0
4220
4220
4220
1420
1420
1420
0820
1420
1420
4220
4220
4220
81F0
ENDCHAR
STARTCHAR 216B
ENCODING 8555
SWIDTH 1112 0
DWIDTH 17 0
BBX 15 14 0 0
BITMAP
81FE
4224
4224
4224
1424
1424
1424
0824
1424
1424
4224
4224
4224
81FE
ENDCHAR
STARTCHAR 216C
ENCODING 8556
SWIDTH 589 0
DWIDTH 9 0
BBX 7 14 0 0
BITMAP
80
80
80
80
80
80
80
80
80
80
80
80
80
FE
ENDCHAR
STARTCHAR 216D
ENCODING 8557
SWIDTH 720 0
DWIDTH 11 0
BBX 10 14 0 0
BITMAP
3F00
0000
4080
8040
8000
8000
8000
8000
8000
8000
8040
0000
4080
3F00
ENDCHAR
STARTCHAR 216E
ENCODING 8558
SWIDTH 654 0
DWIDTH 10 0
BBX 9 14 0 0
BITMAP
FC00
8000
8200
8080
8080
8080
8080
8080
8080
8080
8080
8080
8200
FC00
ENDCHAR
STARTCHAR 216F
ENCODING 8559
SWIDTH 785 0
DWIDTH 12 0
BBX 11 14 0 0
BITMAP
8020
E060
E060
E060
90A0
90A0
90A0
90A0
8A20
8A20
8A20
8420
8420
8420
ENDCHAR
STARTCHAR 2170
ENCODING 8560
SWIDTH 392 0
DWIDTH 6 0
BBX 1 12 2 0
BITMAP
80
00
80
80
80
80
80
80
80
80
80
80
ENDCHAR
STARTCHAR 2171
ENCODING 8561
SWIDTH 327 0
DWIDTH 5 0
BBX 4 12 0 0
BITMAP
90
00
90
90
90
90
90
90
90
90
90
90
ENDCHAR
STARTCHAR 2172
ENCODING 8562
SWIDTH 523 0
DWIDTH 8 0
BBX 7 12 0 0
BITMAP
92
00
92
92
92
92
92
92
92
92
92
92
ENDCHAR
STARTCHAR 2173
ENCODING 8563
SWIDTH 785 0
DWIDTH 12 0
BBX 11 12 0 0
BITMAP
8000
0000
9020
9020
9860
8840
8840
8480
8480
8200
8200
8200
ENDCHAR
STARTCHAR 2174
ENCODING 8564
SWIDTH 654 0
DWIDTH 10 0
BBX 9 10 0 0
BITMAP
8080
8080
C280
4200
4200
1400
1400
0800
0800
0800
ENDCHAR
STARTCHAR 2175
ENCODING 8565
SWIDTH 785 0
DWIDTH 12 0
BBX 11 12 0 0
BITMAP
0020
0000
80A0
80A0
C2A0
4220
4220
1420
1420
0820
0820
0820
ENDCHAR
STARTCHAR 2176
ENCODING 8566
SWIDTH 981 0
DWIDTH 15 0
BBX 14 12 0 0
BITMAP
0024
0000
80A4
80A4
C2A4
4224
4224
1424
1424
0824
0824
0824
ENDCHAR
STARTCHAR 2177
ENCODING 8567
SWIDTH 1112 0
DWIDTH 17 0
BBX 16 12 0 0
BITMAP
0025
0000
80A5
80A5
C2A5
4225
4225
1425
1425
0825
0825
0825
ENDCHAR
STARTCHAR 2178
ENCODING 8568
SWIDTH 785 0
DWIDTH 12 0
BBX 11 12 0 0
BITMAP
8000
0000
9020
8840
8000
8480
8200
8200
8480
8000
8840
9020
ENDCHAR
STARTCHAR 2179
ENCODING 8569
SWIDTH 654 0
DWIDTH 10 0
BBX 9 10 0 0
BITMAP
8080
4200
0000
1400
0800
0800
1400
0000
4200
8080
ENDCHAR
STARTCHAR 217A
ENCODING 8570
SWIDTH 785 0
DWIDTH 12 0
BBX 11 12 0 0
BITMAP
0020
0000
80A0
4220
0020
1420
0820
0820
1420
0020
4220
80A0
ENDCHAR
STARTCHAR 217B
ENCODING 8571
SWIDTH 981 0
DWIDTH 15 0
BBX 14 12 0 0
BITMAP
0024
0000
80A4
4224
0024
1424
0824
0824
1424
0024
4224
80A4
ENDCHAR
STARTCHAR 217C
ENCODING 8572
SWIDTH 392 0
DWIDTH 6 0
BBX 1 14 2 0
BITMAP
80
80
80
80
80
80
80
80
80
80
80
80
80
80
ENDCHAR
STARTCHAR 217D
ENCODING 8573
SWIDTH 523 0
DWIDTH 8 0
BBX 7 10 0 0
BITMAP
3C
42
80
80
80
80
80
00
42
3C
ENDCHAR
STARTCHAR 217E
ENCODING 8574
SWIDTH 654 0
DWIDTH 10 0
BBX 9 14 0 0
BITMAP
0080
0080
0080
0080
3C80
4380
8080
8080
8080
8080
8080
0080
4380
3C80
ENDCHAR
STARTCHAR 217F
ENCODING 8575
SWIDTH 785 0
DWIDTH 12 0
BBX 11 10 0 0
BITMAP
B9C0
C620
8420
8420
8420
8420
8420
8420
8420
8420
ENDCHAR
STARTCHAR 2180
ENCODING 8576
SWIDTH 981 0
DWIDTH 15 0
BBX 14 14 0 0
BITMAP
3FE0
0200
4210
8204
8204
8204
8204
8204
8204
8204
8204
8204
4210
3FE0
ENDCHAR
STARTCHAR 2181
ENCODING 8577
SWIDTH 1047 0
DWIDTH 16 0
BBX 9 14 3 0
BITMAP
FC00
8000
8200
F880
8480
8480
8480
8480
8480
8480
F880
8000
8200
FC00
ENDCHAR
STARTCHAR 2182
ENCODING 8578
SWIDTH 981 0
DWIDTH 15 0
BBX 14 14 0 0
BITMAP
1FE0
0200
4210
8FC4
9224
9224
9224
9224
9224
9224
8FC4
0200
4210
1FE0
ENDCHAR
STARTCHAR 2189
ENCODING 8585
SWIDTH 981 0
DWIDTH 15 0
BBX 14 14 0 0
BITMAP
7000
0000
8810
8820
8840
8880
0000
7270
0404
0830
1004
0004
4004
0070
ENDCHAR
STARTCHAR 2190
ENCODING 8592
SWIDTH 981 0
DWIDTH 15 0
BBX 11 8 2 3
BITMAP
1800
2000
0000
4000
FFE0
4000
2000
1800
ENDCHAR
STARTCHAR 2191
ENCODING 8593
SWIDTH 981 0
DWIDTH 15 0
BBX 9 11 3 2
BITMAP
0800
1C00
1C00
6B00
8880
0800
0800
0800
0800
0800
0800
ENDCHAR
STARTCHAR 2192
ENCODING 8594
SWIDTH 981 0
DWIDTH 15 0
BBX 11 8 2 3
BITMAP
0200
0100
0000
00C0
FFE0
00C0
0100
0200
ENDCHAR
STARTCHAR 2193
ENCODING 8595
SWIDTH 981 0
DWIDTH 15 0
BBX 9 11 3 2
BITMAP
0800
0800
0800
0800
0800
0800
8880
8880
6B00
1C00
0800
ENDCHAR
STARTCHAR 2194
ENCODING 8596
SWIDTH 981 0
DWIDTH 15 0
BBX 14 8 0 3
BITMAP
0840
1020
0000
6018
FFFC
6018
1020
0840
ENDCHAR
STARTCHAR 2195
ENCODING 8597
SWIDTH 981 0
DWIDTH 15 0
BBX 9 14 3 0
BITMAP
0800
1C00
6B00
6B00
8880
0800
0800
0800
0800
8880
6B00
6B00
1C00
0800
ENDCHAR
STARTCHAR 2196
ENCODING 8598
SWIDTH 981 0
DWIDTH 15 0
BBX 9 8 3 3
BITMAP
FC00
C000
A000
9800
9800
8400
0300
0080
ENDCHAR
STARTCHAR 2197
ENCODING 8599
SWIDTH 981 0
DWIDTH 15 0
BBX 9 8 3 3
BITMAP
3F80
0180
0480
1880
1880
2080
4000
8000
ENDCHAR
STARTCHAR 2198
ENCODING 8600
SWIDTH 981 0
DWIDTH 15 0
BBX 9 8 3 3
BITMAP
8000
4000
2080
1880
1880
0480
0180
3F80
ENDCHAR
STARTCHAR 2199
ENCODING 8601
SWIDTH 981 0
DWIDTH 15 0
BBX 9 8 3 3
BITMAP
0080
0300
8400
9800
9800
A000
C000
FC00
ENDCHAR
STARTCHAR 219A
ENCODING 8602
SWIDTH 981 0
DWIDTH 15 0
BBX 11 6 2 4
BITMAP
2000
0000
4100
FFE0
4200
2000
ENDCHAR
STARTCHAR 219B
ENCODING 8603
SWIDTH 981 0
DWIDTH 15 0
BBX 11 6 2 4
BITMAP
0100
0000
18C0
FFE0
20C0
0100
ENDCHAR
STARTCHAR 219C
ENCODING 8604
SWIDTH 981 0
DWIDTH 15 0
BBX 12 5 1 5
BITMAP
F800
C1C0
9220
9220
8C10
ENDCHAR
STARTCHAR 219D
ENCODING 8605
SWIDTH 981 0
DWIDTH 15 0
BBX 13 5 0 5
BITMAP
00F8
3818
4468
4468
8388
ENDCHAR
STARTCHAR 219E
ENCODING 8606
SWIDTH 981 0
DWIDTH 15 0
BBX 11 6 2 4
BITMAP
2400
0000
5800
FFE0
5800
2400
ENDCHAR
STARTCHAR 219F
ENCODING 8607
SWIDTH 981 0
DWIDTH 15 0
BBX 6 11 4 2
BITMAP
20
70
70
A4
70
A4
20
20
20
20
20
ENDCHAR
STARTCHAR 21A0
ENCODING 8608
SWIDTH 981 0
DWIDTH 15 0
BBX 11 6 2 4
BITMAP
0500
0000
02C0
FFE0
02C0
0500
ENDCHAR
STARTCHAR 21A1
ENCODING 8609
SWIDTH 981 0
DWIDTH 15 0
BBX 6 11 4 2
BITMAP
20
20
20
20
20
A4
70
70
A4
70
20
ENDCHAR
STARTCHAR 21A2
ENCODING 8610
SWIDTH 981 0
DWIDTH 15 0
BBX 11 6 1 4
BITMAP
1020
0000
6040
FF80
6040
1020
ENDCHAR
STARTCHAR 21A3
ENCODING 8611
SWIDTH 981 0
DWIDTH 15 0
BBX 11 6 1 4
BITMAP
8100
40C0
40C0
3FE0
40C0
8100
ENDCHAR
STARTCHAR 21A4
ENCODING 8612
SWIDTH 981 0
DWIDTH 15 0
BBX 11 6 2 4
BITMAP
2020
4020
FFE0
FFE0
4020
2020
ENDCHAR
STARTCHAR 21A5
ENCODING 8613
SWIDTH 981 0
DWIDTH 15 0
BBX 6 11 4 1
BITMAP
30
78
B4
30
30
30
30
30
30
30
FC
ENDCHAR
STARTCHAR 21A6
ENCODING 8614
SWIDTH 981 0
DWIDTH 15 0
BBX 11 6 1 4
BITMAP
8080
8040
FFE0
FFE0
8040
8080
ENDCHAR
STARTCHAR 21A7
ENCODING 8615
SWIDTH 981 0
DWIDTH 15 0
BBX 6 11 4 2
BITMAP
FC
30
30
30
30
30
30
30
B4
78
30
ENDCHAR
STARTCHAR 21A8
ENCODING 8616
SWIDTH 981 0
DWIDTH 15 0
BBX 6 14 4 0
BITMAP
30
78
78
B4
30
30
30
30
30
B4
78
30
30
FC
ENDCHAR
STARTCHAR 21A9
ENCODING 8617
SWIDTH 981 0
DWIDTH 15 0
BBX 14 11 0 3
BITMAP
0018
0004
0804
0804
1004
6018
6018
FFE0
6000
1000
0800
ENDCHAR
STARTCHAR 21AA
ENCODING 8618
SWIDTH 981 0
DWIDTH 15 0
BBX 14 11 0 3
BITMAP
6000
8000
8040
8040
8020
6018
6018
1FFC
0018
0020
0040
ENDCHAR
STARTCHAR 21AB
ENCODING 8619
SWIDTH 1112 0
DWIDTH 17 0
BBX 15 11 0 1
BITMAP
003C
0842
1042
6042
FFFC
FFFC
6040
1040
0840
0840
0040
ENDCHAR
STARTCHAR 21AC
ENCODING 8620
SWIDTH 981 0
DWIDTH 15 0
BBX 14 11 0 1
BITMAP
7800
8440
8430
8408
7FFC
7FFC
0408
0430
0440
0440
0400
ENDCHAR
STARTCHAR 21AD
ENCODING 8621
SWIDTH 981 0
DWIDTH 15 0
BBX 14 6 0 4
BITMAP
1020
6218
FA7C
FA7C
6598
1020
ENDCHAR
STARTCHAR 21AE
ENCODING 8622
SWIDTH 981 0
DWIDTH 15 0
BBX 14 6 0 4
BITMAP
1020
6098
FFFC
FFFC
6418
1020
ENDCHAR
STARTCHAR 21AF
ENCODING 8623
SWIDTH 981 0
DWIDTH 15 0
BBX 9 14 4 0
BITMAP
8000
8000
8000
8000
8400
8C00
A400
A400
C400
8400
2480
2480
0E00
0400
ENDCHAR
STARTCHAR 21B0
ENCODING 8624
SWIDTH 981 0
DWIDTH 15 0
BBX 11 11 2 1
BITMAP
1000
2000
4000
FFE0
4020
2020
2020
1020
0020
0020
0020
ENDCHAR
STARTCHAR 21B1
ENCODING 8625
SWIDTH 981 0
DWIDTH 15 0
BBX 11 11 1 1
BITMAP
0200
0180
0040
FFE0
8040
8180
8180
8200
8000
8000
8000
ENDCHAR
STARTCHAR 21B2
ENCODING 8626
SWIDTH 981 0
DWIDTH 15 0
BBX 11 12 2 1
BITMAP
0020
0020
0020
1020
2020
0020
4020
FFE0
4000
2000
2000
1000
ENDCHAR
STARTCHAR 21B3
ENCODING 8627
SWIDTH 981 0
DWIDTH 15 0
BBX 11 12 1 1
BITMAP
8000
8000
8000
8200
8180
8000
8040
FFE0
0040
0180
0180
0200
ENDCHAR
STARTCHAR 21B4
ENCODING 8628
SWIDTH 981 0
DWIDTH 15 0
BBX 11 11 1 2
BITMAP
FF00
0100
0100
0100
0100
0100
0100
1120
0D40
0380
0100
ENDCHAR
STARTCHAR 21B5
ENCODING 8629
SWIDTH 981 0
DWIDTH 15 0
BBX 11 12 2 1
BITMAP
0020
0020
0020
1020
2020
0020
4020
FFE0
4000
2000
2000
1000
ENDCHAR
STARTCHAR 21B6
ENCODING 8630
SWIDTH 981 0
DWIDTH 15 0
BBX 14 12 0 1
BITMAP
03E0
0418
0418
0804
0804
0804
0804
8980
6A00
1C00
1C00
0800
ENDCHAR
STARTCHAR 21B7
ENCODING 8631
SWIDTH 981 0
DWIDTH 15 0
BBX 14 12 0 1
BITMAP
1F00
6080
6080
8040
8040
8040
8040
0644
0148
00E0
00E0
0040
ENDCHAR
STARTCHAR 21B8
ENCODING 8632
SWIDTH 981 0
DWIDTH 15 0
BBX 12 12 1 1
BITMAP
FFF0
0000
0000
F800
C000
8000
9000
8800
0400
0300
0300
0080
ENDCHAR
STARTCHAR 21B9
ENCODING 8633
SWIDTH 981 0
DWIDTH 15 0
BBX 11 12 1 1
BITMAP
8800
8000
9000
FFE0
9000
8000
8A20
01A0
FFE0
01A0
0220
0220
ENDCHAR
STARTCHAR 21BA
ENCODING 8634
SWIDTH 981 0
DWIDTH 15 0
BBX 11 13 1 1
BITMAP
03E0
1380
6240
6240
8220
8020
8020
8020
8020
8020
6040
6040
1F80
ENDCHAR
STARTCHAR 21BB
ENCODING 8635
SWIDTH 981 0
DWIDTH 15 0
BBX 11 13 1 1
BITMAP
F800
1880
6840
6840
8820
8020
8020
8020
8020
8020
6040
6040
1F80
ENDCHAR
STARTCHAR 21BC
ENCODING 8636
SWIDTH 981 0
DWIDTH 15 0
BBX 11 5 2 6
BITMAP
1800
2000
0000
4000
FFE0
ENDCHAR
STARTCHAR 21BD
ENCODING 8637
SWIDTH 981 0
DWIDTH 15 0
BBX 11 4 2 3
BITMAP
FFE0
4000
2000
1800
ENDCHAR
STARTCHAR 21BE
ENCODING 8638
SWIDTH 981 0
DWIDTH 15 0
BBX 5 11 6 2
BITMAP
80
C0
C0
90
88
80
80
80
80
80
80
ENDCHAR
STARTCHAR 21BF
ENCODING 8639
SWIDTH 981 0
DWIDTH 15 0
BBX 5 11 3 2
BITMAP
08
18
18
68
88
08
08
08
08
08
08
ENDCHAR
STARTCHAR 21C0
ENCODING 8640
SWIDTH 981 0
DWIDTH 15 0
BBX 11 5 2 6
BITMAP
0200
0100
0000
00C0
FFE0
ENDCHAR
STARTCHAR 21C1
ENCODING 8641
SWIDTH 981 0
DWIDTH 15 0
BBX 11 4 2 3
BITMAP
FFE0
00C0
0100
0200
ENDCHAR
STARTCHAR 21C2
ENCODING 8642
SWIDTH 981 0
DWIDTH 15 0
BBX 5 11 6 2
BITMAP
80
80
80
80
80
80
88
88
90
C0
80
ENDCHAR
STARTCHAR 21C3
ENCODING 8643
SWIDTH 981 0
DWIDTH 15 0
BBX 5 11 3 2
BITMAP
08
08
08
08
08
08
88
88
68
18
08
ENDCHAR
STARTCHAR 21C4
ENCODING 8644
SWIDTH 981 0
DWIDTH 15 0
BBX 11 12 2 1
BITMAP
0100
0000
00C0
FFE0
00C0
0000
2100
4000
FFE0
4000
0000
2000
ENDCHAR
STARTCHAR 21C5
ENCODING 8645
SWIDTH 981 0
DWIDTH 15 0
BBX 11 11 1 2
BITMAP
1080
3880
3880
9480
1080
1080
1080
1080
14A0
11C0
1080
ENDCHAR
STARTCHAR 21C6
ENCODING 8646
SWIDTH 981 0
DWIDTH 15 0
BBX 11 12 2 1
BITMAP
2000
0000
4000
FFE0
4000
0000
2100
00C0
FFE0
00C0
0000
0100
ENDCHAR
STARTCHAR 21C7
ENCODING 8647
SWIDTH 981 0
DWIDTH 15 0
BBX 11 12 2 1
BITMAP
2000
0000
4000
FFE0
4000
0000
2000
4000
FFE0
4000
0000
2000
ENDCHAR
STARTCHAR 21C8
ENCODING 8648
SWIDTH 981 0
DWIDTH 15 0
BBX 11 11 1 2
BITMAP
1080
39C0
39C0
94A0
1080
1080
1080
1080
1080
1080
1080
ENDCHAR
STARTCHAR 21C9
ENCODING 8649
SWIDTH 981 0
DWIDTH 15 0
BBX 11 12 2 1
BITMAP
0100
0000
00C0
FFE0
00C0
0000
0100
00C0
FFE0
00C0
0000
0100
ENDCHAR
STARTCHAR 21CA
ENCODING 8650
SWIDTH 981 0
DWIDTH 15 0
BBX 11 11 1 2
BITMAP
1080
1080
1080
1080
1080
1080
1080
1080
94A0
39C0
1080
ENDCHAR
STARTCHAR 21CB
ENCODING 8651
SWIDTH 981 0
DWIDTH 15 0
BBX 11 12 2 1
BITMAP
2000
0000
4000
FFE0
0000
0000
0000
0000
FFE0
00C0
0000
0100
ENDCHAR
STARTCHAR 21CC
ENCODING 8652
SWIDTH 981 0
DWIDTH 15 0
BBX 11 12 2 1
BITMAP
0100
0000
00C0
FFE0
0000
0000
0000
0000
FFE0
4000
0000
2000
ENDCHAR
STARTCHAR 21CD
ENCODING 8653
SWIDTH 981 0
DWIDTH 15 0
BBX 11 8 1 3
BITMAP
0800
1040
7FE0
8180
8180
7FE0
1200
0800
ENDCHAR
STARTCHAR 21CE
ENCODING 8654
SWIDTH 981 0
DWIDTH 15 0
BBX 14 8 0 3
BITMAP
0840
10A0
7FF8
8304
8304
7FF8
1420
0840
ENDCHAR
STARTCHAR 21CF
ENCODING 8655
SWIDTH 981 0
DWIDTH 15 0
BBX 11 8 1 3
BITMAP
0300
0880
FFC0
1020
1020
FFC0
6080
0300
ENDCHAR
STARTCHAR 21D0
ENCODING 8656
SWIDTH 981 0
DWIDTH 15 0
BBX 12 8 1 3
BITMAP
0800
1000
7FF0
8000
8000
7FF0
1000
0800
ENDCHAR
STARTCHAR 21D1
ENCODING 8657
SWIDTH 981 0
DWIDTH 15 0
BBX 9 11 3 1
BITMAP
1800
2400
6600
A480
A480
2400
2400
2400
2400
2400
2400
ENDCHAR
STARTCHAR 21D2
ENCODING 8658
SWIDTH 981 0
DWIDTH 15 0
BBX 11 8 1 3
BITMAP
0300
0080
FFC0
0020
0020
FFC0
0080
0300
ENDCHAR
STARTCHAR 21D3
ENCODING 8659
SWIDTH 981 0
DWIDTH 15 0
BBX 9 12 3 1
BITMAP
2400
2400
2400
2400
2400
2400
2400
A480
6600
2400
2400
1800
ENDCHAR
STARTCHAR 21D4
ENCODING 8660
SWIDTH 981 0
DWIDTH 15 0
BBX 14 8 0 3
BITMAP
0840
1020
7FF8
8004
8004
7FF8
1020
0840
ENDCHAR
STARTCHAR 21D5
ENCODING 8661
SWIDTH 981 0
DWIDTH 15 0
BBX 9 14 3 0
BITMAP
1800
2400
6600
6600
A480
2400
2400
2400
2400
A480
6600
2400
0000
1800
ENDCHAR
STARTCHAR 21D6
ENCODING 8662
SWIDTH 981 0
DWIDTH 15 0
BBX 9 8 3 3
BITMAP
FC00
A000
D800
A400
A400
9B00
0480
0300
ENDCHAR
STARTCHAR 21D7
ENCODING 8663
SWIDTH 981 0
DWIDTH 15 0
BBX 9 8 3 3
BITMAP
3F80
0480
1980
2480
2480
5880
A000
4000
ENDCHAR
STARTCHAR 21D8
ENCODING 8664
SWIDTH 981 0
DWIDTH 15 0
BBX 9 8 3 3
BITMAP
4000
A000
5880
2480
2480
1980
0480
3F80
ENDCHAR
STARTCHAR 21D9
ENCODING 8665
SWIDTH 981 0
DWIDTH 15 0
BBX 9 8 3 3
BITMAP
0300
0480
9B00
A400
A400
D800
A000
FC00
ENDCHAR
STARTCHAR 21DA
ENCODING 8666
SWIDTH 981 0
DWIDTH 15 0
BBX 11 8 2 3
BITMAP
1800
3FE0
0000
4000
FFE0
4000
3FE0
1800
ENDCHAR
STARTCHAR 21DB
ENCODING 8667
SWIDTH 981 0
DWIDTH 15 0
BBX 11 8 2 3
BITMAP
0200
FF00
0000
00C0
FFE0
00C0
FF00
0200
ENDCHAR
STARTCHAR 21DC
ENCODING 8668
SWIDTH 981 0
DWIDTH 15 0
BBX 12 6 1 4
BITMAP
1000
6180
FA70
FA70
6400
1000
ENDCHAR
STARTCHAR 21DD
ENCODING 8669
SWIDTH 981 0
DWIDTH 15 0
BBX 12 6 1 4
BITMAP
0080
1060
E9F0
E9F0
0660
0080
ENDCHAR
STARTCHAR 21DE
ENCODING 8670
SWIDTH 981 0
DWIDTH 15 0
BBX 6 11 4 2
BITMAP
30
78
78
B4
30
FC
30
30
FC
30
30
ENDCHAR
STARTCHAR 21DF
ENCODING 8671
SWIDTH 981 0
DWIDTH 15 0
BBX 6 11 4 2
BITMAP
30
30
30
FC
30
FC
30
30
B4
78
30
ENDCHAR
STARTCHAR 21E0
ENCODING 8672
SWIDTH 981 0
DWIDTH 15 0
BBX 11 8 1 3
BITMAP
0800
1000
6000
F4A0
F4A0
6000
1000
0800
ENDCHAR
STARTCHAR 21E1
ENCODING 8673
SWIDTH 981 0
DWIDTH 15 0
BBX 9 12 3 1
BITMAP
1800
3C00
3C00
5B00
8080
8080
1800
0000
1800
0000
0000
1800
ENDCHAR
STARTCHAR 21E2
ENCODING 8674
SWIDTH 981 0
DWIDTH 15 0
BBX 12 8 1 3
BITMAP
0300
0080
0060
94F0
94F0
0060
0080
0300
ENDCHAR
STARTCHAR 21E3
ENCODING 8675
SWIDTH 981 0
DWIDTH 15 0
BBX 9 12 3 1
BITMAP
1800
0000
0000
1800
0000
0000
1800
8080
5B00
3C00
3C00
1800
ENDCHAR
STARTCHAR 21E4
ENCODING 8676
SWIDTH 981 0
DWIDTH 15 0
BBX 14 9 0 3
BITMAP
8400
8400
8800
9000
FFFC
FFFC
9000
8800
8400
ENDCHAR
STARTCHAR 21E5
ENCODING 8677
SWIDTH 981 0
DWIDTH 15 0
BBX 14 9 0 3
BITMAP
0084
0084
0044
0024
FFFC
FFFC
0024
0044
0084
ENDCHAR
STARTCHAR 21E6
ENCODING 8678
SWIDTH 981 0
DWIDTH 15 0
BBX 14 14 0 0
BITMAP
0200
0600
0A00
0A00
13FC
6004
6004
8004
6004
13FC
0A00
0A00
0600
0200
ENDCHAR
STARTCHAR 21E7
ENCODING 8679
SWIDTH 981 0
DWIDTH 15 0
BBX 14 14 0 0
BITMAP
0200
0580
0840
0840
3020
0000
4010
F87C
0840
0840
0840
0840
0840
0FC0
ENDCHAR
STARTCHAR 21E8
ENCODING 8680
SWIDTH 981 0
DWIDTH 15 0
BBX 14 14 0 0
BITMAP
0200
0300
0240
0240
FE30
8008
8008
8004
8008
FE30
0240
0240
0300
0200
ENDCHAR
STARTCHAR 21E9
ENCODING 8681
SWIDTH 981 0
DWIDTH 15 0
BBX 14 14 0 0
BITMAP
0FC0
0840
0840
0840
0840
0840
0840
F87C
4010
3020
0840
0840
0580
0200
ENDCHAR
STARTCHAR 21EA
ENCODING 8682
SWIDTH 981 0
DWIDTH 15 0
BBX 14 14 0 0
BITMAP
0200
0580
0840
0840
3020
0000
4010
F87C
0840
0840
0FC0
0000
0000
0FC0
ENDCHAR
STARTCHAR 21EB
ENCODING 8683
SWIDTH 981 0
DWIDTH 15 0
BBX 14 14 0 0
BITMAP
0300
0480
0840
0840
1020
0000
6018
F87C
0840
0840
0840
0840
0840
FFFC
ENDCHAR
STARTCHAR 21EC
ENCODING 8684
SWIDTH 981 0
DWIDTH 15 0
BBX 14 14 0 0
BITMAP
0300
0480
0000
0840
1FE0
0000
6018
F87C
0840
0840
0840
0840
0840
FFFC
ENDCHAR
STARTCHAR 21ED
ENCODING 8685
SWIDTH 981 0
DWIDTH 15 0
BBX 14 14 0 0
BITMAP
0300
0780
0B40
0B40
1320
0300
6318
FB7C
0B40
0B40
0B40
0B40
0B40
FFFC
ENDCHAR
STARTCHAR 21EE
ENCODING 8686
SWIDTH 981 0
DWIDTH 15 0
BBX 14 14 0 0
BITMAP
0300
0480
0B40
0B40
14A0
6858
6858
9024
6018
F87C
0840
0840
0840
0FC0
ENDCHAR
STARTCHAR 21EF
ENCODING 8687
SWIDTH 981 0
DWIDTH 15 0
BBX 14 14 0 0
BITMAP
0300
0480
0B40
0B40
14A0
6858
6858
9024
6018
F87C
0840
0840
0840
FFFC
ENDCHAR
STARTCHAR 21F0
ENCODING 8688
SWIDTH 981 0
DWIDTH 15 0
BBX 14 14 0 0
BITMAP
8200
8300
8240
8240
FE30
8008
8008
8004
8008
FE30
8240
8240
8300
8200
ENDCHAR
STARTCHAR 21F1
ENCODING 8689
SWIDTH 981 0
DWIDTH 15 0
BBX 11 12 1 1
BITMAP
FFE0
8000
8000
9F00
9800
9000
9400
9300
8080
8040
8040
8020
ENDCHAR
STARTCHAR 21F2
ENCODING 8690
SWIDTH 981 0
DWIDTH 15 0
BBX 11 12 1 1
BITMAP
8020
6020
6020
1020
08A0
08A0
04A0
01A0
0FA0
0020
0020
FFE0
ENDCHAR
STARTCHAR 21F3
ENCODING 8691
SWIDTH 981 0
DWIDTH 15 0
BBX 12 14 1 0
BITMAP
0600
0900
0900
10C0
2020
F0F0
10C0
10C0
F0F0
2020
10C0
10C0
0900
0600
ENDCHAR
STARTCHAR 21F4
ENCODING 8692
SWIDTH 981 0
DWIDTH 15 0
BBX 14 6 0 4
BITMAP
0F20
0000
1098
FFFC
1098
0F20
ENDCHAR
STARTCHAR 21F5
ENCODING 8693
SWIDTH 981 0
DWIDTH 15 0
BBX 11 11 1 2
BITMAP
1080
11C0
11C0
14A0
1080
1080
1080
1080
9480
3880
1080
ENDCHAR
STARTCHAR 21F6
ENCODING 8694
SWIDTH 981 0
DWIDTH 15 0
BBX 11 14 2 0
BITMAP
0100
0000
00C0
FFE0
0100
0000
00C0
FFE0
00C0
0100
FFE0
00C0
0000
0100
ENDCHAR
STARTCHAR 21F7
ENCODING 8695
SWIDTH 981 0
DWIDTH 15 0
BBX 11 6 2 4
BITMAP
2200
4200
FFE0
FFE0
4200
2200
ENDCHAR
STARTCHAR 21F8
ENCODING 8696
SWIDTH 981 0
DWIDTH 15 0
BBX 11 6 2 4
BITMAP
1900
18C0
FFE0
FFE0
18C0
1900
ENDCHAR
STARTCHAR 21F9
ENCODING 8697
SWIDTH 981 0
DWIDTH 15 0
BBX 14 6 0 4
BITMAP
1320
6318
FFFC
FFFC
6318
1320
ENDCHAR
STARTCHAR 21FA
ENCODING 8698
SWIDTH 981 0
DWIDTH 15 0
BBX 11 6 2 4
BITMAP
2500
4500
FFE0
FFE0
4500
2500
ENDCHAR
STARTCHAR 21FB
ENCODING 8699
SWIDTH 981 0
DWIDTH 15 0
BBX 11 6 2 4
BITMAP
2500
24C0
FFE0
FFE0
24C0
2500
ENDCHAR
STARTCHAR 21FC
ENCODING 8700
SWIDTH 981 0
DWIDTH 15 0
BBX 14 6 0 4
BITMAP
14A0
6498
FFFC
FFFC
6498
14A0
ENDCHAR
STARTCHAR 21FD
ENCODING 8701
SWIDTH 981 0
DWIDTH 15 0
BBX 11 9 1 3
BITMAP
0800
1800
1800
6800
8FE0
6800
1800
1800
0800
ENDCHAR
STARTCHAR 21FE
ENCODING 8702
SWIDTH 981 0
DWIDTH 15 0
BBX 11 9 1 3
BITMAP
0100
0180
0180
0140
FF20
0140
0180
0180
0100
ENDCHAR
STARTCHAR 21FF
ENCODING 8703
SWIDTH 981 0
DWIDTH 15 0
BBX 14 9 0 3
BITMAP
0840
1860
1860
6848
8FC4
6848
1860
1860
0840
ENDCHAR
STARTCHAR 2200
ENCODING 8704
SWIDTH 981 0
DWIDTH 15 0
BBX 14 14 0 0
BITMAP
8004
8004
8004
6018
6018
1FE0
1020
0840
0840
0840
0480
0480
0480
0300
ENDCHAR
STARTCHAR 2202
ENCODING 8706
SWIDTH 981 0
DWIDTH 15 0
BBX 7 13 3 1
BITMAP
3C
42
02
02
02
3A
44
84
84
84
88
88
70
ENDCHAR
STARTCHAR 2203
ENCODING 8707
SWIDTH 981 0
DWIDTH 15 0
BBX 13 12 0 1
BITMAP
FFF8
0008
0008
0008
0008
0008
FFF8
0008
0008
0008
0008
FFF8
ENDCHAR
STARTCHAR 2205
ENCODING 8709
SWIDTH 981 0
DWIDTH 15 0
BBX 11 12 1 1
BITMAP
1FA0
6040
6040
80A0
8320
8420
8420
8820
9020
6040
6040
9F80
ENDCHAR
STARTCHAR 2206
ENCODING 8710
SWIDTH 981 0
DWIDTH 15 0
BBX 14 14 0 0
BITMAP
0300
0480
0480
0480
0840
0840
0840
1020
1020
6018
6018
6018
8004
FFFC
ENDCHAR
STARTCHAR 2207
ENCODING 8711
SWIDTH 981 0
DWIDTH 15 0
BBX 14 14 0 0
BITMAP
FFFC
8004
6018
6018
6018
1020
1020
1020
0840
0840
0480
0480
0480
0300
ENDCHAR
STARTCHAR 2208
ENCODING 8712
SWIDTH 981 0
DWIDTH 15 0
BBX 12 12 1 1
BITMAP
1FF0
6000
6000
8000
8000
FFF0
FFF0
8000
8000
6000
6000
1FF0
ENDCHAR
STARTCHAR 220B
ENCODING 8715
SWIDTH 981 0
DWIDTH 15 0
BBX 11 12 1 1
BITMAP
FF80
0040
0040
0020
0020
FFE0
FFE0
0020
0020
0040
0040
FF80
ENDCHAR
STARTCHAR 220F
ENCODING 8719
SWIDTH 981 0
DWIDTH 15 0
BBX 10 14 3 0
BITMAP
FFC0
4180
4180
4180
4180
4180
4180
4180
4180
4180
4180
4180
4180
4180
ENDCHAR
STARTCHAR 2210
ENCODING 8720
SWIDTH 981 0
DWIDTH 15 0
BBX 10 14 3 0
BITMAP
4180
4180
4180
4180
4180
4180
4180
4180
4180
4180
4180
4180
4180
FFC0
ENDCHAR
STARTCHAR 2211
ENCODING 8721
SWIDTH 981 0
DWIDTH 15 0
BBX 10 14 3 0
BITMAP
FFC0
4000
0000
2000
1800
0400
0200
0200
0400
1800
2000
0000
4000
FFC0
ENDCHAR
STARTCHAR 221A
ENCODING 8730
SWIDTH 981 0
DWIDTH 15 0
BBX 14 14 0 0
BITMAP
01FC
0180
0180
0180
0200
0200
0200
0200
0400
8400
E400
6400
1800
0800
ENDCHAR
STARTCHAR 221D
ENCODING 8733
SWIDTH 981 0
DWIDTH 15 0
BBX 13 6 0 4
BITMAP
7878
8480
8300
8300
8480
7878
ENDCHAR
STARTCHAR 221E
ENCODING 8734
SWIDTH 981 0
DWIDTH 15 0
BBX 14 6 0 4
BITMAP
7878
8484
8304
8304
8484
7878
ENDCHAR
STARTCHAR 221F
ENCODING 8735
SWIDTH 981 0
DWIDTH 15 0
BBX 11 11 1 1
BITMAP
8000
8000
8000
8000
8000
8000
8000
8000
8000
8000
FFE0
ENDCHAR
STARTCHAR 2220
ENCODING 8736
SWIDTH 981 0
DWIDTH 15 0
BBX 11 10 2 1
BITMAP
00C0
0100
0200
0200
0400
1800
2000
0000
4000
FFE0
ENDCHAR
STARTCHAR 2223
ENCODING 8739
SWIDTH 981 0
DWIDTH 15 0
BBX 1 14 6 0
BITMAP
80
80
80
80
80
80
80
80
80
80
80
80
80
80
ENDCHAR
STARTCHAR 2224
ENCODING 8740
SWIDTH 981 0
DWIDTH 15 0
BBX 6 14 4 0
BITMAP
20
20
20
20
24
30
20
20
60
A0
20
20
20
20
ENDCHAR
STARTCHAR 2225
ENCODING 8741
SWIDTH 981 0
DWIDTH 15 0
BBX 5 14 4 0
BITMAP
88
88
88
88
88
88
88
88
88
88
88
88
88
88
ENDCHAR
STARTCHAR 2226
ENCODING 8742
SWIDTH 981 0
DWIDTH 15 0
BBX 11 14 1 0
BITMAP
1100
1100
1100
1100
1100
11E0
1F00
1F00
F100
1100
1100
1100
1100
1100
ENDCHAR
STARTCHAR 2227
ENCODING 8743
SWIDTH 981 0
DWIDTH 15 0
BBX 11 12 1 1
BITMAP
0400
0400
0400
0B00
0B00
1080
1080
1080
6040
6040
6040
8020
ENDCHAR
STARTCHAR 2228
ENCODING 8744
SWIDTH 981 0
DWIDTH 15 0
BBX 11 12 1 1
BITMAP
8020
6040
6040
6040
1080
1080
1080
0B00
0B00
0400
0400
0400
ENDCHAR
STARTCHAR 2229
ENCODING 8745
SWIDTH 981 0
DWIDTH 15 0
BBX 11 12 1 1
BITMAP
1F80
6040
6040
8020
8020
8020
8020
8020
8020
8020
8020
8020
ENDCHAR
STARTCHAR 222A
ENCODING 8746
SWIDTH 981 0
DWIDTH 15 0
BBX 11 12 1 1
BITMAP
8020
8020
8020
8020
8020
8020
8020
8020
8020
6040
6040
1F80
ENDCHAR
STARTCHAR 222B
ENCODING 8747
SWIDTH 981 0
DWIDTH 15 0
BBX 6 14 4 0
BITMAP
18
24
20
20
20
20
20
20
20
20
20
20
A0
40
ENDCHAR
STARTCHAR 222C
ENCODING 8748
SWIDTH 981 0
DWIDTH 15 0
BBX 10 14 1 0
BITMAP
0880
1740
1300
1300
1300
1300
1300
1300
1300
1300
1300
1300
9B00
6400
ENDCHAR
STARTCHAR 222D
ENCODING 8749
SWIDTH 981 0
DWIDTH 15 0
BBX 11 14 1 0
BITMAP
0B40
14A0
1480
1480
1480
1480
1480
1480
1480
1480
1480
1480
9480
6B00
ENDCHAR
STARTCHAR 222E
ENCODING 8750
SWIDTH 981 0
DWIDTH 15 0
BBX 6 14 4 0
BITMAP
18
24
20
20
78
A4
A4
A4
78
20
20
20
A0
40
ENDCHAR
STARTCHAR 222F
ENCODING 8751
SWIDTH 981 0
DWIDTH 15 0
BBX 11 14 1 0
BITMAP
0880
1740
1300
1300
7FC0
9320
9320
9320
7FC0
1300
1300
1300
9B00
6400
ENDCHAR
STARTCHAR 2230
ENCODING 8752
SWIDTH 981 0
DWIDTH 15 0
BBX 11 14 1 0
BITMAP
0B40
14A0
1480
1480
7FC0
94A0
94A0
7FC0
7FC0
1480
1480
9480
0000
6B00
ENDCHAR
STARTCHAR 2234
ENCODING 8756
SWIDTH 981 0
DWIDTH 15 0
BBX 13 13 0 1
BITMAP
0700
0700
0700
0000
0000
0000
0000
0000
0000
0000
E038
E038
E038
ENDCHAR
STARTCHAR 2235
ENCODING 8757
SWIDTH 981 0
DWIDTH 15 0
BBX 13 13 0 0
BITMAP
E038
E038
E038
0000
0000
0000
0000
0000
0000
0000
0700
0700
0700
ENDCHAR
STARTCHAR 2236
ENCODING 8758
SWIDTH 981 0
DWIDTH 15 0
BBX 3 12 5 1
BITMAP
E0
E0
E0
00
00
00
00
00
00
E0
E0
E0
ENDCHAR
STARTCHAR 2237
ENCODING 8759
SWIDTH 981 0
DWIDTH 15 0
BBX 12 12 1 1
BITMAP
E070
E070
E070
0000
0000
0000
0000
0000
0000
E070
E070
E070
ENDCHAR
STARTCHAR 223D
ENCODING 8765
SWIDTH 981 0
DWIDTH 15 0
BBX 14 6 0 4
BITMAP
7878
8084
8304
8304
8404
7878
ENDCHAR
STARTCHAR 2252
ENCODING 8786
SWIDTH 981 0
DWIDTH 15 0
BBX 11 10 2 3
BITMAP
6000
0000
0000
FFE0
0000
0000
0000
FFE0
0000
01C0
ENDCHAR
STARTCHAR 2260
ENCODING 8800
SWIDTH 981 0
DWIDTH 15 0
BBX 11 11 2 2
BITMAP
0200
0200
0200
FFE0
0400
0400
0400
FFE0
1800
1800
1800
ENDCHAR
STARTCHAR 2261
ENCODING 8801
SWIDTH 981 0
DWIDTH 15 0
BBX 11 8 2 3
BITMAP
FFE0
0000
0000
0000
FFE0
0000
0000
FFE0
ENDCHAR
STARTCHAR 2264
ENCODING 8804
SWIDTH 981 0
DWIDTH 15 0
BBX 11 12 2 1
BITMAP
00E0
0700
0700
3800
C000
C000
3800
0700
00E0
0000
0000
FFE0
ENDCHAR
STARTCHAR 2265
ENCODING 8805
SWIDTH 981 0
DWIDTH 15 0
BBX 11 12 2 1
BITMAP
C000
3C00
3C00
0300
00E0
00E0
0300
3C00
C000
0000
0000
FFE0
ENDCHAR
STARTCHAR 2266
ENCODING 8806
SWIDTH 981 0
DWIDTH 15 0
BBX 11 12 2 1
BITMAP
01E0
1E00
1E00
E000
1E00
1E00
01E0
0000
FFE0
0000
0000
FFE0
ENDCHAR
STARTCHAR 2267
ENCODING 8807
SWIDTH 981 0
DWIDTH 15 0
BBX 11 12 2 1
BITMAP
E000
1E00
1E00
01E0
1E00
1E00
E000
0000
FFE0
0000
0000
FFE0
ENDCHAR
STARTCHAR 226A
ENCODING 8810
SWIDTH 981 0
DWIDTH 15 0
BBX 10 12 1 1
BITMAP
0440
0880
0880
1300
6400
6400
8800
6400
1300
0880
0880
0440
ENDCHAR
STARTCHAR 226B
ENCODING 8811
SWIDTH 981 0
DWIDTH 15 0
BBX 10 12 3 1
BITMAP
9800
4400
4400
2300
1880
1880
0440
1880
2300
4400
4400
9800
ENDCHAR
STARTCHAR 2282
ENCODING 8834
SWIDTH 981 0
DWIDTH 15 0
BBX 12 12 1 1
BITMAP
1FF0
6000
6000
8000
8000
8000
8000
8000
8000
6000
6000
1FF0
ENDCHAR
STARTCHAR 2283
ENCODING 8835
SWIDTH 981 0
DWIDTH 15 0
BBX 11 12 1 1
BITMAP
FF80
0040
0040
0020
0020
0020
0020
0020
0020
0040
0040
FF80
ENDCHAR
STARTCHAR 2286
ENCODING 8838
SWIDTH 981 0
DWIDTH 15 0
BBX 11 12 2 1
BITMAP
3FE0
4000
4000
8000
8000
8000
8000
4000
3FE0
0000
0000
FFE0
ENDCHAR
STARTCHAR 2287
ENCODING 8839
SWIDTH 981 0
DWIDTH 15 0
BBX 11 12 1 1
BITMAP
FF80
0040
0040
0020
0020
0020
0020
0040
FF80
0000
0000
FFE0
ENDCHAR
STARTCHAR 22A4
ENCODING 8868
SWIDTH 981 0
DWIDTH 15 0
BBX 11 10 2 1
BITMAP
FFE0
0400
0400
0400
0400
0400
0400
0400
0400
0400
ENDCHAR
STARTCHAR 22A5
ENCODING 8869
SWIDTH 981 0
DWIDTH 15 0
BBX 11 10 2 1
BITMAP
0400
0400
0400
0400
0400
0400
0400
0400
0400
FFE0
ENDCHAR
STARTCHAR 22BF
ENCODING 8895
SWIDTH 981 0
DWIDTH 15 0
BBX 11 11 2 1
BITMAP
0020
0060
01A0
0220
0220
0C20
1020
2020
0020
4020
FFE0
ENDCHAR
STARTCHAR 2460
ENCODING 9312
SWIDTH 981 0
DWIDTH 15 0
BBX 14 14 0 0
BITMAP
0FC0
1020
6218
6218
8604
8204
8204
8204
8204
8204
6718
6718
1020
0FC0
ENDCHAR
STARTCHAR 2461
ENCODING 9313
SWIDTH 981 0
DWIDTH 15 0
BBX 14 14 0 0
BITMAP
0FC0
1020
6798
6798
8844
8044
8084
8084
8304
8404
6FD8
6FD8
1020
0FC0
ENDCHAR
STARTCHAR 2462
ENCODING 9314
SWIDTH 981 0
DWIDTH 15 0
BBX 14 14 0 0
BITMAP
0FC0
1020
6798
6798
8844
8044
8384
8384
8044
8844
6798
6798
1020
0FC0
ENDCHAR
STARTCHAR 2463
ENCODING 9315
SWIDTH 981 0
DWIDTH 15 0
BBX 14 14 0 0
BITMAP
0FC0
3030
4088
4088
8384
8484
8884
8884
BFC4
8084
4088
4088
3030
0FC0
ENDCHAR
STARTCHAR 2464
ENCODING 9316
SWIDTH 981 0
DWIDTH 15 0
BBX 14 14 0 0
BITMAP
0FC0
1020
6FD8
6FD8
8804
8F84
8844
8844
8044
8844
6798
6798
1020
0FC0
ENDCHAR
STARTCHAR 2465
ENCODING 9317
SWIDTH 981 0
DWIDTH 15 0
BBX 14 14 0 0
BITMAP
0FC0
1020
6798
6798
8844
8804
8F84
8F84
8844
8844
6798
6798
1020
0FC0
ENDCHAR
STARTCHAR 2466
ENCODING 9318
SWIDTH 981 0
DWIDTH 15 0
BBX 14 14 0 0
BITMAP
0FC0
1030
6FC8
6FC8
8044
8184
8184
8184
8204
8204
6208
6208
1030
0FC0
ENDCHAR
STARTCHAR 2467
ENCODING 9319
SWIDTH 981 0
DWIDTH 15 0
BBX 14 14 0 0
BITMAP
0FC0
1020
6798
6798
8844
8844
8784
8784
8844
8844
6798
6798
1020
0FC0
ENDCHAR
STARTCHAR 2468
ENCODING 9320
SWIDTH 981 0
DWIDTH 15 0
BBX 14 14 0 0
BITMAP
0FC0
1020
6798
6798
8844
8844
87C4
87C4
8044
8844
6798
6798
1020
0FC0
ENDCHAR
STARTCHAR 2469
ENCODING 9321
SWIDTH 981 0
DWIDTH 15 0
BBX 14 14 0 0
BITMAP
0FC0
1020
69D8
69D8
9A24
8A24
8A24
8A24
8A24
8A24
69D8
69D8
1020
0FC0
ENDCHAR
STARTCHAR 246A
ENCODING 9322
SWIDTH 981 0
DWIDTH 15 0
BBX 14 14 0 0
BITMAP
0FC0
1030
6848
6848
98C4
8844
8844
8844
8844
8844
6848
6848
1030
0FC0
ENDCHAR
STARTCHAR 246B
ENCODING 9323
SWIDTH 981 0
DWIDTH 15 0
BBX 14 14 0 0
BITMAP
0FC0
1020
69D8
69D8
9A24
8824
8844
8844
8984
8A04
6BF8
6BF8
1020
0FC0
ENDCHAR
STARTCHAR 246C
ENCODING 9324
SWIDTH 981 0
DWIDTH 15 0
BBX 14 14 0 0
BITMAP
0FC0
1020
69D8
69D8
9A24
8824
89C4
89C4
8824
8A24
69D8
69D8
1020
0FC0
ENDCHAR
STARTCHAR 246D
ENCODING 9325
SWIDTH 981 0
DWIDTH 15 0
BBX 14 14 0 0
BITMAP
0FC0
1030
6848
6848
98C4
8A44
8A44
8A44
8BF4
8844
6848
6848
1030
0FC0
ENDCHAR
STARTCHAR 246E
ENCODING 9326
SWIDTH 981 0
DWIDTH 15 0
BBX 14 14 0 0
BITMAP
0FC0
1020
6BF8
6BF8
9A04
8BC4
8A24
8A24
8824
8A24
69D8
69D8
1020
0FC0
ENDCHAR
STARTCHAR 246F
ENCODING 9327
SWIDTH 981 0
DWIDTH 15 0
BBX 14 14 0 0
BITMAP
0FC0
1020
69D8
69D8
9A24
8A04
8BC4
8BC4
8A24
8A24
69D8
69D8
1020
0FC0
ENDCHAR
STARTCHAR 2470
ENCODING 9328
SWIDTH 981 0
DWIDTH 15 0
BBX 14 14 0 0
BITMAP
0FC0
1020
6BF0
6BF0
982C
884C
884C
884C
898C
898C
6990
6990
1020
0FC0
ENDCHAR
STARTCHAR 2471
ENCODING 9329
SWIDTH 981 0
DWIDTH 15 0
BBX 14 14 0 0
BITMAP
0FC0
1020
69D8
69D8
9A24
8A24
89C4
89C4
8A24
8A24
69D8
69D8
1020
0FC0
ENDCHAR
STARTCHAR 2472
ENCODING 9330
SWIDTH 981 0
DWIDTH 15 0
BBX 14 14 0 0
BITMAP
0FC0
1020
69D8
69D8
9A24
8A24
89E4
89E4
8824
8A24
69D8
69D8
1020
0FC0
ENDCHAR
STARTCHAR 2473
ENCODING 9331
SWIDTH 981 0
DWIDTH 15 0
BBX 14 14 0 0
BITMAP
0FC0
1020
6858
6858
94A4
84A4
88A4
88A4
88A4
90A4
7C58
7C58
1020
0FC0
ENDCHAR
STARTCHAR 24B6
ENCODING 9398
SWIDTH 981 0
DWIDTH 15 0
BBX 14 14 0 0
BITMAP
0FC0
1020
6318
6318
8484
8844
8844
8844
8FC4
8844
6858
6858
1020
0FC0
ENDCHAR
STARTCHAR 24B7
ENCODING 9399
SWIDTH 981 0
DWIDTH 15 0
BBX 14 14 0 0
BITMAP
0FC0
1030
6F88
6F88
8844
8844
8F84
8F84
8844
8844
6F88
6F88
1030
0FC0
ENDCHAR
STARTCHAR 24B8
ENCODING 9400
SWIDTH 981 0
DWIDTH 15 0
BBX 14 14 0 0
BITMAP
0FC0
1020
6798
6798
8844
8804
8804
8804
8804
8844
6798
6798
1020
0FC0
ENDCHAR
STARTCHAR 24B9
ENCODING 9401
SWIDTH 981 0
DWIDTH 15 0
BBX 14 14 0 0
BITMAP
0FC0
1030
6F88
6F88
8844
8844
8844
8844
8844
8844
6F88
6F88
1030
0FC0
ENDCHAR
STARTCHAR 24BA
ENCODING 9402
SWIDTH 981 0
DWIDTH 15 0
BBX 14 14 0 0
BITMAP
0FC0
1020
6FD8
6FD8
8804
8804
8F84
8F84
8804
8804
6FD8
6FD8
1020
0FC0
ENDCHAR
STARTCHAR 24BB
ENCODING 9403
SWIDTH 981 0
DWIDTH 15 0
BBX 14 14 0 0
BITMAP
0FC0
1020
6FD8
6FD8
8804
8804
8F84
8F84
8804
8804
6818
6818
1020
0FC0
ENDCHAR
STARTCHAR 24BC
ENCODING 9404
SWIDTH 981 0
DWIDTH 15 0
BBX 14 14 0 0
BITMAP
0FC0
1020
6798
6798
8844
8804
8BC4
8BC4
8844
8844
6798
6798
1020
0FC0
ENDCHAR
STARTCHAR 24BD
ENCODING 9405
SWIDTH 981 0
DWIDTH 15 0
BBX 14 14 0 0
BITMAP
0FC0
1030
6848
6848
8844
8844
8FC4
8FC4
8844
8844
6848
6848
1030
0FC0
ENDCHAR
STARTCHAR 24BE
ENCODING 9406
SWIDTH 981 0
DWIDTH 15 0
BBX 14 14 0 0
BITMAP
0FC0
1020
6718
6718
8204
8204
8204
8204
8204
8204
6718
6718
1020
0FC0
ENDCHAR
STARTCHAR 24BF
ENCODING 9407
SWIDTH 981 0
DWIDTH 15 0
BBX 14 14 0 0
BITMAP
0FC0
1020
6058
6058
8044
8044
8044
8044
8844
8844
6798
6798
1020
0FC0
ENDCHAR
STARTCHAR 24C0
ENCODING 9408
SWIDTH 981 0
DWIDTH 15 0
BBX 14 14 0 0
BITMAP
0FC0
1030
6848
6848
8984
8A04
8C04
8C04
8A04
8984
6848
6848
1030
0FC0
ENDCHAR
STARTCHAR 24C1
ENCODING 9409
SWIDTH 981 0
DWIDTH 15 0
BBX 14 14 0 0
BITMAP
0FC0
1020
6818
6818
8804
8804
8804
8804
8804
8804
6FD8
6FD8
1020
0FC0
ENDCHAR
STARTCHAR 24C2
ENCODING 9410
SWIDTH 981 0
DWIDTH 15 0
BBX 14 14 0 0
BITMAP
0FC0
1020
3030
3030
9864
9864
94A4
94A4
94A4
9324
3330
1020
0000
0FC0
ENDCHAR
STARTCHAR 24C3
ENCODING 9411
SWIDTH 981 0
DWIDTH 15 0
BBX 14 14 0 0
BITMAP
0FC0
1030
6848
6848
8C44
8C44
8A44
8A44
88C4
88C4
6848
6848
1030
0FC0
ENDCHAR
STARTCHAR 24C4
ENCODING 9412
SWIDTH 981 0
DWIDTH 15 0
BBX 14 14 0 0
BITMAP
0FC0
1020
6798
6798
8844
8844
8844
8844
8844
8844
6798
6798
1020
0FC0
ENDCHAR
STARTCHAR 24C5
ENCODING 9413
SWIDTH 981 0
DWIDTH 15 0
BBX 14 14 0 0
BITMAP
0FC0
1030
6F88
6F88
8844
8844
8F84
8F84
8804
8804
6808
6808
1030
0FC0
ENDCHAR
STARTCHAR 24C6
ENCODING 9414
SWIDTH 981 0
DWIDTH 15 0
BBX 14 14 0 0
BITMAP
0FC0
1020
6788
6788
8844
8844
8844
8844
8844
8B44
6788
6788
1060
0FC0
ENDCHAR
STARTCHAR 24C7
ENCODING 9415
SWIDTH 981 0
DWIDTH 15 0
BBX 14 14 0 0
BITMAP
0FC0
1020
6F98
6F98
8844
8844
8F84
8F84
8884
8844
6858
6858
1020
0FC0
ENDCHAR
STARTCHAR 24C8
ENCODING 9416
SWIDTH 981 0
DWIDTH 15 0
BBX 14 14 0 0
BITMAP
0FC0
1020
6798
6798
8844
8804
8784
8784
8044
8844
6798
6798
1020
0FC0
ENDCHAR
STARTCHAR 24C9
ENCODING 9417
SWIDTH 981 0
DWIDTH 15 0
BBX 14 14 0 0
BITMAP
0FC0
1020
6FD8
6FD8
8204
8204
8204
8204
8204
8204
6218
6218
1020
0FC0
ENDCHAR
STARTCHAR 24CA
ENCODING 9418
SWIDTH 981 0
DWIDTH 15 0
BBX 14 14 0 0
BITMAP
0FC0
1020
6858
6858
8844
8844
8844
8844
8844
8844
6798
6798
1020
0FC0
ENDCHAR
STARTCHAR 24CB
ENCODING 9419
SWIDTH 981 0
DWIDTH 15 0
BBX 14 14 0 0
BITMAP
0FC0
1020
6858
6858
8844
8844
8484
8484
8484
8304
6318
6318
1020
0FC0
ENDCHAR
STARTCHAR 24CC
ENCODING 9420
SWIDTH 981 0
DWIDTH 15 0
BBX 14 14 0 0
BITMAP
0FC0
1020
7038
7038
9324
9324
94A4
94A4
94A4
8844
6858
6858
1020
0FC0
ENDCHAR
STARTCHAR 24CD
ENCODING 9421
SWIDTH 981 0
DWIDTH 15 0
BBX 14 14 0 0
BITMAP
0FC0
1020
6858
6858
8844
8484
8304
8304
8484
8844
6858
6858
1020
0FC0
ENDCHAR
STARTCHAR 24CE
ENCODING 9422
SWIDTH 981 0
DWIDTH 15 0
BBX 14 14 0 0
BITMAP
0FC0
1020
6858
6858
8844
8844
8484
8484
8304
8304
6318
6318
1020
0FC0
ENDCHAR
STARTCHAR 24CF
ENCODING 9423
SWIDTH 981 0
DWIDTH 15 0
BBX 14 14 0 0
BITMAP
0FC0
1020
6FD8
6FD8
8044
8084
8304
8304
8404
8804
6FD8
6FD8
1020
0FC0
ENDCHAR
STARTCHAR 24EA
ENCODING 9450
SWIDTH 981 0
DWIDTH 15 0
BBX 14 14 0 0
BITMAP
0FC0
1020
6798
6798
8844
8844
8844
8844
8844
8844
6798
6798
1020
0FC0
ENDCHAR
STARTCHAR 24EB
ENCODING 9451
SWIDTH 981 0
DWIDTH 15 0
BBX 14 14 0 0
BITMAP
0FC0
7FF8
7FF8
77B8
E73C
F7BC
F7BC
F7BC
F7BC
F7BC
77B8
7FF8
0FC0
0FC0
ENDCHAR
STARTCHAR 24EC
ENCODING 9452
SWIDTH 981 0
DWIDTH 15 0
BBX 14 14 0 0
BITMAP
0FC0
7FF8
7FF8
7738
E4DC
F7DC
F7BC
F7BC
F77C
F4FC
7418
7418
7FF8
0FC0
ENDCHAR
STARTCHAR 24ED
ENCODING 9453
SWIDTH 981 0
DWIDTH 15 0
BBX 14 14 0 0
BITMAP
0FC0
7FF8
7FF8
7738
E4DC
F7DC
F73C
F73C
F7DC
F4DC
7738
7FF8
7FF8
0FC0
ENDCHAR
STARTCHAR 24EE
ENCODING 9454
SWIDTH 981 0
DWIDTH 15 0
BBX 14 14 0 0
BITMAP
0FC0
7FF8
7FF8
77B8
E73C
F4BC
F4BC
F41C
F41C
F7BC
77B8
7FF8
7FF8
0FC0
ENDCHAR
STARTCHAR 24EF
ENCODING 9455
SWIDTH 981 0
DWIDTH 15 0
BBX 14 14 0 0
BITMAP
0FC0
7FF8
7FF8
7418
E4FC
F43C
F4DC
F4DC
F7DC
F4DC
7738
7FF8
7FF8
0FC0
ENDCHAR
STARTCHAR 24F0
ENCODING 9456
SWIDTH 981 0
DWIDTH 15 0
BBX 14 14 0 0
BITMAP
0FC0
7FF8
7FF8
7738
E4DC
F4FC
F43C
F43C
F4DC
F4DC
7738
7FF8
7FF8
0FC0
ENDCHAR
STARTCHAR 24F1
ENCODING 9457
SWIDTH 981 0
DWIDTH 15 0
BBX 14 14 0 0
BITMAP
0FC0
7FF8
7FF8
7418
E7DC
F7BC
F7BC
F7BC
F77C
F77C
7778
7FF8
7FF8
0FC0
ENDCHAR
STARTCHAR 24F2
ENCODING 9458
SWIDTH 981 0
DWIDTH 15 0
BBX 14 14 0 0
BITMAP
0FC0
7FF8
7FF8
7738
E4DC
F4DC
F73C
F73C
F4DC
F4DC
7738
7FF8
7FF8
0FC0
ENDCHAR
STARTCHAR 24F3
ENCODING 9459
SWIDTH 981 0
DWIDTH 15 0
BBX 14 14 0 0
BITMAP
0FC0
7FF8
7FF8
7738
E4DC
F4DC
F71C
F71C
F7DC
F4DC
7738
7FF8
7FF8
0FC0
ENDCHAR
STARTCHAR 24F4
ENCODING 9460
SWIDTH 981 0
DWIDTH 15 0
BBX 14 14 0 0
BITMAP
0FC0
7FF8
7FF8
77B8
EB5C
FB5C
F75C
F75C
F75C
EF5C
63B8
7FF8
7FF8
0FC0
ENDCHAR
STARTCHAR 24FF
ENCODING 9471
SWIDTH 981 0
DWIDTH 15 0
BBX 14 14 0 0
BITMAP
0FC0
7FF8
7FF8
7878
F7BC
F7BC
F7BC
F7BC
F7BC
F7BC
7878
7FF8
0FC0
0FC0
ENDCHAR
STARTCHAR 2500
ENCODING 9472
SWIDTH 981 0
DWIDTH 15 0
BBX 15 1 0 6
BITMAP
FFFE
ENDCHAR
STARTCHAR 2501
ENCODING 9473
SWIDTH 981 0
DWIDTH 15 0
BBX 15 3 0 6
BITMAP
FFFE
FFFE
FFFE
ENDCHAR
STARTCHAR 2502
ENCODING 9474
SWIDTH 981 0
DWIDTH 15 0
BBX 1 15 6 0
BITMAP
80
80
80
80
80
80
80
80
80
80
80
80
80
80
80
ENDCHAR
STARTCHAR 2503
ENCODING 9475
SWIDTH 981 0
DWIDTH 15 0
BBX 3 15 6 0
BITMAP
E0
E0
E0
E0
E0
E0
E0
E0
E0
E0
E0
E0
E0
E0
E0
ENDCHAR
STARTCHAR 2504
ENCODING 9476
SWIDTH 981 0
DWIDTH 15 0
BBX 14 1 0 6
BITMAP
F7BC
ENDCHAR
STARTCHAR 2505
ENCODING 9477
SWIDTH 981 0
DWIDTH 15 0
BBX 14 3 0 6
BITMAP
F7BC
F7BC
F7BC
ENDCHAR
STARTCHAR 2506
ENCODING 9478
SWIDTH 981 0
DWIDTH 15 0
BBX 1 14 6 0
BITMAP
80
80
80
80
00
80
80
80
80
00
80
80
80
80
ENDCHAR
STARTCHAR 2507
ENCODING 9479
SWIDTH 981 0
DWIDTH 15 0
BBX 3 14 6 0
BITMAP
E0
E0
E0
E0
00
E0
E0
E0
E0
00
E0
E0
E0
E0
ENDCHAR
STARTCHAR 2508
ENCODING 9480
SWIDTH 981 0
DWIDTH 15 0
BBX 14 1 0 6
BITMAP
EFDC
ENDCHAR
STARTCHAR 2509
ENCODING 9481
SWIDTH 981 0
DWIDTH 15 0
BBX 14 3 0 6
BITMAP
EFDC
EFDC
EFDC
ENDCHAR
STARTCHAR 250A
ENCODING 9482
SWIDTH 981 0
DWIDTH 15 0
BBX 1 14 6 0
BITMAP
80
80
80
00
80
80
80
80
80
80
00
80
80
80
ENDCHAR
STARTCHAR 250B
ENCODING 9483
SWIDTH 981 0
DWIDTH 15 0
BBX 3 14 6 0
BITMAP
E0
E0
E0
00
E0
E0
E0
E0
E0
E0
00
E0
E0
E0
ENDCHAR
STARTCHAR 250C
ENCODING 9484
SWIDTH 981 0
DWIDTH 15 0
BBX 9 7 6 0
BITMAP
FF80
8000
8000
8000
8000
8000
8000
ENDCHAR
STARTCHAR 250D
ENCODING 9485
SWIDTH 981 0
DWIDTH 15 0
BBX 9 9 6 0
BITMAP
FF80
FF80
FF80
8000
8000
8000
8000
8000
8000
ENDCHAR
STARTCHAR 250E
ENCODING 9486
SWIDTH 981 0
DWIDTH 15 0
BBX 9 7 6 0
BITMAP
FF80
E000
E000
E000
E000
E000
E000
ENDCHAR
STARTCHAR 250F
ENCODING 9487
SWIDTH 981 0
DWIDTH 15 0
BBX 9 9 6 0
BITMAP
FF80
FF80
FF80
E000
E000
E000
E000
E000
E000
ENDCHAR
STARTCHAR 2510
ENCODING 9488
SWIDTH 981 0
DWIDTH 15 0
BBX 7 7 0 0
BITMAP
FE
02
02
02
02
02
02
ENDCHAR
STARTCHAR 2511
ENCODING 9489
SWIDTH 981 0
DWIDTH 15 0
BBX 7 9 0 0
BITMAP
FE
FE
FE
02
02
02
02
02
02
ENDCHAR
STARTCHAR 2512
ENCODING 9490
SWIDTH 981 0
DWIDTH 15 0
BBX 9 7 0 0
BITMAP
FF80
0380
0380
0380
0380
0380
0380
ENDCHAR
STARTCHAR 2513
ENCODING 9491
SWIDTH 981 0
DWIDTH 15 0
BBX 9 9 0 0
BITMAP
FF80
FF80
FF80
0380
0380
0380
0380
0380
0380
ENDCHAR
STARTCHAR 2514
ENCODING 9492
SWIDTH 981 0
DWIDTH 15 0
BBX 9 9 6 6
BITMAP
8000
8000
8000
8000
8000
8000
8000
8000
FF80
ENDCHAR
STARTCHAR 2515
ENCODING 9493
SWIDTH 981 0
DWIDTH 15 0
BBX 9 9 6 6
BITMAP
8000
8000
8000
8000
8000
8000
FF80
FF80
FF80
ENDCHAR
STARTCHAR 2516
ENCODING 9494
SWIDTH 981 0
DWIDTH 15 0
BBX 9 9 6 6
BITMAP
E000
E000
E000
E000
E000
E000
E000
E000
FF80
ENDCHAR
STARTCHAR 2517
ENCODING 9495
SWIDTH 981 0
DWIDTH 15 0
BBX 9 9 6 6
BITMAP
E000
E000
E000
E000
E000
E000
FF80
FF80
FF80
ENDCHAR
STARTCHAR 2518
ENCODING 9496
SWIDTH 981 0
DWIDTH 15 0
BBX 7 9 0 6
BITMAP
02
02
02
02
02
02
02
02
FE
ENDCHAR
STARTCHAR 2519
ENCODING 9497
SWIDTH 981 0
DWIDTH 15 0
BBX 7 9 0 6
BITMAP
02
02
02
02
02
02
FE
FE
FE
ENDCHAR
STARTCHAR 251A
ENCODING 9498
SWIDTH 981 0
DWIDTH 15 0
BBX 9 9 0 6
BITMAP
0380
0380
0380
0380
0380
0380
0380
0380
FF80
ENDCHAR
STARTCHAR 251B
ENCODING 9499
SWIDTH 981 0
DWIDTH 15 0
BBX 9 9 0 6
BITMAP
0380
0380
0380
0380
0380
0380
FF80
FF80
FF80
ENDCHAR
STARTCHAR 251C
ENCODING 9500
SWIDTH 981 0
DWIDTH 15 0
BBX 9 15 6 0
BITMAP
8000
8000
8000
8000
8000
8000
8000
8000
FF80
8000
8000
8000
8000
8000
8000
ENDCHAR
STARTCHAR 251D
ENCODING 9501
SWIDTH 981 0
DWIDTH 15 0
BBX 9 15 6 0
BITMAP
8000
8000
8000
8000
8000
8000
FF80
FF80
FF80
8000
8000
8000
8000
8000
8000
ENDCHAR
STARTCHAR 251E
ENCODING 9502
SWIDTH 981 0
DWIDTH 15 0
BBX 9 15 6 0
BITMAP
C000
C000
C000
C000
C000
C000
C000
C000
FF80
8000
8000
8000
8000
8000
8000
ENDCHAR
STARTCHAR 251F
ENCODING 9503
SWIDTH 981 0
DWIDTH 15 0
BBX 9 15 6 0
BITMAP
8000
8000
8000
8000
8000
8000
8000
8000
FF80
C000
C000
C000
C000
C000
C000
ENDCHAR
STARTCHAR 2520
ENCODING 9504
SWIDTH 981 0
DWIDTH 15 0
BBX 9 15 6 0
BITMAP
E000
E000
E000
E000
E000
E000
E000
E000
FF80
E000
E000
E000
E000
E000
E000
ENDCHAR
STARTCHAR 2521
ENCODING 9505
SWIDTH 981 0
DWIDTH 15 0
BBX 9 15 6 0
BITMAP
C000
C000
C000
C000
C000
C000
FF80
FF80
FF80
8000
8000
8000
8000
8000
8000
ENDCHAR
STARTCHAR 2522
ENCODING 9506
SWIDTH 981 0
DWIDTH 15 0
BBX 9 15 6 0
BITMAP
8000
8000
8000
8000
8000
8000
FF80
FF80
FF80
C000
C000
C000
C000
C000
C000
ENDCHAR
STARTCHAR 2523
ENCODING 9507
SWIDTH 981 0
DWIDTH 15 0
BBX 9 15 6 0
BITMAP
E000
E000
E000
E000
E000
E000
FF80
FF80
FF80
E000
E000
E000
E000
E000
E000
ENDCHAR
STARTCHAR 2524
ENCODING 9508
SWIDTH 981 0
DWIDTH 15 0
BBX 7 15 0 0
BITMAP
02
02
02
02
02
02
02
02
FE
02
02
02
02
02
02
ENDCHAR
STARTCHAR 2525
ENCODING 9509
SWIDTH 981 0
DWIDTH 15 0
BBX 7 15 0 0
BITMAP
02
02
02
02
02
02
FE
FE
FE
02
02
02
02
02
02
ENDCHAR
STARTCHAR 2526
ENCODING 9510
SWIDTH 981 0
DWIDTH 15 0
BBX 9 15 0 0
BITMAP
0380
0380
0380
0380
0380
0380
0380
0380
FF80
0300
0300
0300
0300
0300
0300
ENDCHAR
STARTCHAR 2527
ENCODING 9511
SWIDTH 981 0
DWIDTH 15 0
BBX 9 15 0 0
BITMAP
0300
0300
0300
0300
0300
0300
0300
0380
FF80
0380
0380
0380
0380
0380
0380
ENDCHAR
STARTCHAR 2528
ENCODING 9512
SWIDTH 981 0
DWIDTH 15 0
BBX 9 15 0 0
BITMAP
0380
0380
0380
0380
0380
0380
0380
0380
FF80
0380
0380
0380
0380
0380
0380
ENDCHAR
STARTCHAR 2529
ENCODING 9513
SWIDTH 981 0
DWIDTH 15 0
BBX 9 15 0 0
BITMAP
0380
0380
0380
0380
0380
0380
FF80
FF80
FF80
0300
0300
0300
0300
0300
0300
ENDCHAR
STARTCHAR 252A
ENCODING 9514
SWIDTH 981 0
DWIDTH 15 0
BBX 9 15 0 0
BITMAP
0300
0300
0300
0300
0300
0300
FF80
FF80
FF80
0380
0380
0380
0380
0380
0380
ENDCHAR
STARTCHAR 252B
ENCODING 9515
SWIDTH 981 0
DWIDTH 15 0
BBX 9 15 0 0
BITMAP
0380
0380
0380
0380
0380
0380
FF80
FF80
FF80
0380
0380
0380
0380
0380
0380
ENDCHAR
STARTCHAR 252C
ENCODING 9516
SWIDTH 981 0
DWIDTH 15 0
BBX 15 7 0 0
BITMAP
FFFE
0300
0300
0300
0300
0300
0300
ENDCHAR
STARTCHAR 252D
ENCODING 9517
SWIDTH 981 0
DWIDTH 15 0
BBX 15 9 0 0
BITMAP
FF00
FFFE
FFFE
0300
0300
0300
0300
0300
0300
ENDCHAR
STARTCHAR 252E
ENCODING 9518
SWIDTH 981 0
DWIDTH 15 0
BBX 15 9 0 0
BITMAP
03FE
FFFE
FFFE
0200
0200
0200
0200
0200
0200
ENDCHAR
STARTCHAR 252F
ENCODING 9519
SWIDTH 981 0
DWIDTH 15 0
BBX 15 9 0 0
BITMAP
FFFE
FFFE
FFFE
0300
0300
0300
0300
0300
0300
ENDCHAR
STARTCHAR 2530
ENCODING 9520
SWIDTH 981 0
DWIDTH 15 0
BBX 15 7 0 0
BITMAP
FFFE
0380
0380
0380
0380
0380
0380
ENDCHAR
STARTCHAR 2531
ENCODING 9521
SWIDTH 981 0
DWIDTH 15 0
BBX 15 9 0 0
BITMAP
FF80
FFFE
FFFE
0380
0380
0380
0380
0380
0380
ENDCHAR
STARTCHAR 2532
ENCODING 9522
SWIDTH 981 0
DWIDTH 15 0
BBX 15 9 0 0
BITMAP
03FE
FFFE
FFFE
0380
0380
0380
0380
0380
0380
ENDCHAR
STARTCHAR 2533
ENCODING 9523
SWIDTH 981 0
DWIDTH 15 0
BBX 15 9 0 0
BITMAP
FFFE
FFFE
FFFE
0380
0380
0380
0380
0380
0380
ENDCHAR
STARTCHAR 2534
ENCODING 9524
SWIDTH 981 0
DWIDTH 15 0
BBX 15 9 0 6
BITMAP
0300
0300
0300
0300
0300
0300
0300
0300
FFFE
ENDCHAR
STARTCHAR 2535
ENCODING 9525
SWIDTH 981 0
DWIDTH 15 0
BBX 15 9 0 6
BITMAP
0200
0200
0200
0200
0200
0200
0200
FE00
FFFE
ENDCHAR
STARTCHAR 2536
ENCODING 9526
SWIDTH 981 0
DWIDTH 15 0
BBX 15 9 0 6
BITMAP
0200
0200
0200
0200
0200
0200
0200
03FE
FFFE
ENDCHAR
STARTCHAR 2537
ENCODING 9527
SWIDTH 981 0
DWIDTH 15 0
BBX 15 9 0 6
BITMAP
0300
0300
0300
0300
0300
0300
FFFE
FFFE
FFFE
ENDCHAR
STARTCHAR 2538
ENCODING 9528
SWIDTH 981 0
DWIDTH 15 0
BBX 15 9 0 6
BITMAP
0380
0380
0380
0380
0380
0380
0380
0380
FFFE
ENDCHAR
STARTCHAR 2539
ENCODING 9529
SWIDTH 981 0
DWIDTH 15 0
BBX 15 9 0 6
BITMAP
0380
0380
0380
0380
0380
0380
0380
FF80
FFFE
ENDCHAR
STARTCHAR 253A
ENCODING 9530
SWIDTH 981 0
DWIDTH 15 0
BBX 15 9 0 6
BITMAP
0380
0380
0380
0380
0380
0380
0380
03FE
FFFE
ENDCHAR
STARTCHAR 253B
ENCODING 9531
SWIDTH 981 0
DWIDTH 15 0
BBX 15 9 0 6
BITMAP
0380
0380
0380
0380
0380
0380
FFFE
FFFE
FFFE
ENDCHAR
STARTCHAR 253C
ENCODING 9532
SWIDTH 981 0
DWIDTH 15 0
BBX 15 15 0 0
BITMAP
0300
0300
0300
0300
0300
0300
0300
0300
FFFE
0300
0300
0300
0300
0300
0300
ENDCHAR
STARTCHAR 253D
ENCODING 9533
SWIDTH 981 0
DWIDTH 15 0
BBX 15 15 0 0
BITMAP
0200
0200
0200
0200
0200
0200
FE00
FFFE
FFFE
0200
0200
0200
0200
0200
0200
ENDCHAR
STARTCHAR 253E
ENCODING 9534
SWIDTH 981 0
DWIDTH 15 0
BBX 15 15 0 0
BITMAP
0200
0200
0200
0200
0200
0200
03FE
FFFE
FFFE
0200
0200
0200
0200
0200
0200
ENDCHAR
STARTCHAR 253F
ENCODING 9535
SWIDTH 981 0
DWIDTH 15 0
BBX 15 15 0 0
BITMAP
0300
0300
0300
0300
0300
0300
FFFE
FFFE
FFFE
0300
0300
0300
0300
0300
0300
ENDCHAR
STARTCHAR 2540
ENCODING 9536
SWIDTH 981 0
DWIDTH 15 0
BBX 15 15 0 0
BITMAP
0380
0380
0380
0380
0380
0380
0380
0380
FFFE
0300
0300
0300
0300
0300
0300
ENDCHAR
STARTCHAR 2541
ENCODING 9537
SWIDTH 981 0
DWIDTH 15 0
BBX 15 15 0 0
BITMAP
0300
0300
0300
0300
0300
0300
0300
0300
FFFE
0380
0380
0380
0380
0380
0380
ENDCHAR
STARTCHAR 2542
ENCODING 9538
SWIDTH 981 0
DWIDTH 15 0
BBX 15 15 0 0
BITMAP
0380
0380
0380
0380
0380
0380
0380
0380
FFFE
0380
0380
0380
0380
0380
0380
ENDCHAR
STARTCHAR 2543
ENCODING 9539
SWIDTH 981 0
DWIDTH 15 0
BBX 15 15 0 0
BITMAP
0380
0380
0380
0380
0380
0380
FF80
FFFE
FFFE
0300
0300
0300
0300
0300
0300
ENDCHAR
STARTCHAR 2544
ENCODING 9540
SWIDTH 981 0
DWIDTH 15 0
BBX 15 15 0 0
BITMAP
0380
0380
0380
0380
0380
0380
03FE
FFFE
FFFE
0300
0300
0300
0300
0300
0300
ENDCHAR
STARTCHAR 2545
ENCODING 9541
SWIDTH 981 0
DWIDTH 15 0
BBX 15 15 0 0
BITMAP
0300
0300
0300
0300
0300
0300
FF80
FFFE
FFFE
0380
0380
0380
0380
0380
0380
ENDCHAR
STARTCHAR 2546
ENCODING 9542
SWIDTH 981 0
DWIDTH 15 0
BBX 15 15 0 0
BITMAP
0300
0300
0300
0300
0300
0300
03FE
FFFE
FFFE
0380
0380
0380
0380
0380
0380
ENDCHAR
STARTCHAR 2547
ENCODING 9543
SWIDTH 981 0
DWIDTH 15 0
BBX 15 15 0 0
BITMAP
0380
0380
0380
0380
0380
0380
FFFE
FFFE
FFFE
0300
0300
0300
0300
0300
0300
ENDCHAR
STARTCHAR 2548
ENCODING 9544
SWIDTH 981 0
DWIDTH 15 0
BBX 15 15 0 0
BITMAP
0300
0300
0300
0300
0300
0300
FFFE
FFFE
FFFE
0380
0380
0380
0380
0380
0380
ENDCHAR
STARTCHAR 2549
ENCODING 9545
SWIDTH 981 0
DWIDTH 15 0
BBX 15 15 0 0
BITMAP
0380
0380
0380
0380
0380
0380
FF80
FFFE
FFFE
0380
0380
0380
0380
0380
0380
ENDCHAR
STARTCHAR 254A
ENCODING 9546
SWIDTH 981 0
DWIDTH 15 0
BBX 15 15 0 0
BITMAP
0380
0380
0380
0380
0380
0380
03FE
FFFE
FFFE
0380
0380
0380
0380
0380
0380
ENDCHAR
STARTCHAR 254B
ENCODING 9547
SWIDTH 981 0
DWIDTH 15 0
BBX 15 15 0 0
BITMAP
0380
0380
0380
0380
0380
0380
FFFE
FFFE
FFFE
0380
0380
0380
0380
0380
0380
ENDCHAR
STARTCHAR 254C
ENCODING 9548
SWIDTH 981 0
DWIDTH 15 0
BBX 14 1 0 6
BITMAP
FCFC
ENDCHAR
STARTCHAR 254D
ENCODING 9549
SWIDTH 981 0
DWIDTH 15 0
BBX 14 3 0 6
BITMAP
FCFC
FCFC
FCFC
ENDCHAR
STARTCHAR 254E
ENCODING 9550
SWIDTH 981 0
DWIDTH 15 0
BBX 1 14 6 0
BITMAP
80
80
80
80
80
80
00
00
80
80
80
80
80
80
ENDCHAR
STARTCHAR 254F
ENCODING 9551
SWIDTH 981 0
DWIDTH 15 0
BBX 3 14 6 0
BITMAP
E0
E0
E0
E0
E0
E0
00
00
E0
E0
E0
E0
E0
E0
ENDCHAR
STARTCHAR 2550
ENCODING 9552
SWIDTH 981 0
DWIDTH 15 0
BBX 15 4 0 5
BITMAP
FFFE
0000
0000
FFFE
ENDCHAR
STARTCHAR 2551
ENCODING 9553
SWIDTH 981 0
DWIDTH 15 0
BBX 4 15 5 0
BITMAP
90
90
90
90
90
90
90
90
90
90
90
90
90
90
90
ENDCHAR
STARTCHAR 2552
ENCODING 9554
SWIDTH 981 0
DWIDTH 15 0
BBX 9 9 6 0
BITMAP
FF80
8000
8000
FF80
8000
8000
8000
8000
8000
ENDCHAR
STARTCHAR 2553
ENCODING 9555
SWIDTH 981 0
DWIDTH 15 0
BBX 10 7 5 0
BITMAP
FFC0
9000
9000
9000
9000
9000
9000
ENDCHAR
STARTCHAR 2554
ENCODING 9556
SWIDTH 981 0
DWIDTH 15 0
BBX 10 9 5 0
BITMAP
FFC0
8000
8000
9FC0
9000
9000
9000
9000
9000
ENDCHAR
STARTCHAR 2555
ENCODING 9557
SWIDTH 981 0
DWIDTH 15 0
BBX 7 9 0 0
BITMAP
FE
02
02
FE
02
02
02
02
02
ENDCHAR
STARTCHAR 2556
ENCODING 9558
SWIDTH 981 0
DWIDTH 15 0
BBX 9 7 0 0
BITMAP
FF80
0480
0480
0480
0480
0480
0480
ENDCHAR
STARTCHAR 2557
ENCODING 9559
SWIDTH 981 0
DWIDTH 15 0
BBX 9 9 0 0
BITMAP
FF80
0080
0080
FC80
0480
0480
0480
0480
0480
ENDCHAR
STARTCHAR 2558
ENCODING 9560
SWIDTH 981 0
DWIDTH 15 0
BBX 9 10 6 5
BITMAP
8000
8000
8000
8000
8000
8000
FF80
8000
8000
FF80
ENDCHAR
STARTCHAR 2559
ENCODING 9561
SWIDTH 981 0
DWIDTH 15 0
BBX 10 9 5 6
BITMAP
9000
9000
9000
9000
9000
9000
9000
9000
FFC0
ENDCHAR
STARTCHAR 255A
ENCODING 9562
SWIDTH 981 0
DWIDTH 15 0
BBX 10 10 5 5
BITMAP
9000
9000
9000
9000
9000
9000
9FC0
8000
8000
FFC0
ENDCHAR
STARTCHAR 255B
ENCODING 9563
SWIDTH 981 0
DWIDTH 15 0
BBX 7 10 0 5
BITMAP
02
02
02
02
02
02
FE
02
02
FE
ENDCHAR
STARTCHAR 255C
ENCODING 9564
SWIDTH 981 0
DWIDTH 15 0
BBX 9 9 0 6
BITMAP
0480
0480
0480
0480
0480
0480
0480
0480
FF80
ENDCHAR
STARTCHAR 255D
ENCODING 9565
SWIDTH 981 0
DWIDTH 15 0
BBX 9 10 0 5
BITMAP
0480
0480
0480
0480
0480
0480
FC80
0080
0080
FF80
ENDCHAR
STARTCHAR 255E
ENCODING 9566
SWIDTH 981 0
DWIDTH 15 0
BBX 9 15 6 0
BITMAP
8000
8000
8000
8000
8000
8000
FF80
8000
8000
FF80
8000
8000
8000
8000
8000
ENDCHAR
STARTCHAR 255F
ENCODING 9567
SWIDTH 981 0
DWIDTH 15 0
BBX 10 15 5 0
BITMAP
9000
9000
9000
9000
9000
9000
9000
9000
9FC0
9000
9000
9000
9000
9000
9000
ENDCHAR
STARTCHAR 2560
ENCODING 9568
SWIDTH 981 0
DWIDTH 15 0
BBX 10 15 5 0
BITMAP
9000
9000
9000
9000
9000
9000
9FC0
8000
8000
9FC0
9000
9000
9000
9000
9000
ENDCHAR
STARTCHAR 2561
ENCODING 9569
SWIDTH 981 0
DWIDTH 15 0
BBX 7 15 0 0
BITMAP
02
02
02
02
02
02
FE
02
02
FE
02
02
02
02
02
ENDCHAR
STARTCHAR 2562
ENCODING 9570
SWIDTH 981 0
DWIDTH 15 0
BBX 9 15 0 0
BITMAP
0480
0480
0480
0480
0480
0480
0480
0480
FC80
0480
0480
0480
0480
0480
0480
ENDCHAR
STARTCHAR 2563
ENCODING 9571
SWIDTH 981 0
DWIDTH 15 0
BBX 9 15 0 0
BITMAP
0480
0480
0480
0480
0480
0480
FC80
0080
0080
FC80
0480
0480
0480
0480
0480
ENDCHAR
STARTCHAR 2564
ENCODING 9572
SWIDTH 981 0
DWIDTH 15 0
BBX 15 9 0 0
BITMAP
FFFE
0000
0000
FFFE
0300
0300
0300
0300
0300
ENDCHAR
STARTCHAR 2565
ENCODING 9573
SWIDTH 981 0
DWIDTH 15 0
BBX 15 7 0 0
BITMAP
FFFE
0480
0480
0480
0480
0480
0480
ENDCHAR
STARTCHAR 2566
ENCODING 9574
SWIDTH 981 0
DWIDTH 15 0
BBX 15 9 0 0
BITMAP
FFFE
0000
0000
FCFE
0480
0480
0480
0480
0480
ENDCHAR
STARTCHAR 2567
ENCODING 9575
SWIDTH 981 0
DWIDTH 15 0
BBX 15 10 0 5
BITMAP
0300
0300
0300
0300
0300
0300
FFFE
0000
0000
FFFE
ENDCHAR
STARTCHAR 2568
ENCODING 9576
SWIDTH 981 0
DWIDTH 15 0
BBX 15 9 0 6
BITMAP
0480
0480
0480
0480
0480
0480
0480
0480
FFFE
ENDCHAR
STARTCHAR 2569
ENCODING 9577
SWIDTH 981 0
DWIDTH 15 0
BBX 15 10 0 5
BITMAP
0480
0480
0480
0480
0480
0480
FCFE
0000
0000
FFFE
ENDCHAR
STARTCHAR 256A
ENCODING 9578
SWIDTH 981 0
DWIDTH 15 0
BBX 15 15 0 0
BITMAP
0300
0300
0300
0300
0300
0300
FFFE
0300
0300
FFFE
0300
0300
0300
0300
0300
ENDCHAR
STARTCHAR 256B
ENCODING 9579
SWIDTH 981 0
DWIDTH 15 0
BBX 15 15 0 0
BITMAP
0480
0480
0480
0480
0480
0480
0480
0480
FFFE
0480
0480
0480
0480
0480
0480
ENDCHAR
STARTCHAR 256C
ENCODING 9580
SWIDTH 981 0
DWIDTH 15 0
BBX 15 15 0 0
BITMAP
0480
0480
0480
0480
0480
0480
FCFE
0000
0000
FCFE
0480
0480
0480
0480
0480
ENDCHAR
STARTCHAR 256D
ENCODING 9581
SWIDTH 981 0
DWIDTH 15 0
BBX 9 7 6 0
BITMAP
0380
0C00
1000
6000
6000
6000
8000
ENDCHAR
STARTCHAR 256E
ENCODING 9582
SWIDTH 981 0
DWIDTH 15 0
BBX 7 7 0 0
BITMAP
80
70
08
04
04
04
02
ENDCHAR
STARTCHAR 256F
ENCODING 9583
SWIDTH 981 0
DWIDTH 15 0
BBX 7 10 0 6
BITMAP
02
02
02
04
04
04
08
70
70
80
ENDCHAR
STARTCHAR 2570
ENCODING 9584
SWIDTH 981 0
DWIDTH 15 0
BBX 9 10 6 6
BITMAP
8000
8000
8000
6000
6000
6000
1000
0C00
0C00
0380
ENDCHAR
STARTCHAR 2571
ENCODING 9585
SWIDTH 981 0
DWIDTH 15 0
BBX 15 15 0 0
BITMAP
0002
0004
0018
0020
0020
0040
0080
0080
0300
0400
0800
1000
1000
6000
8000
ENDCHAR
STARTCHAR 2572
ENCODING 9586
SWIDTH 981 0
DWIDTH 15 0
BBX 14 14 0 0
BITMAP
8000
6000
1000
1000
0800
0400
0400
0300
0080
0040
0020
0020
0018
0004
ENDCHAR
STARTCHAR 2573
ENCODING 9587
SWIDTH 981 0
DWIDTH 15 0
BBX 15 15 0 0
BITMAP
0002
8004
6018
1020
1020
0840
0480
0480
0300
0480
0840
1020
1020
6018
8004
ENDCHAR
STARTCHAR 2574
ENCODING 9588
SWIDTH 981 0
DWIDTH 15 0
BBX 8 1 0 6
BITMAP
FF
ENDCHAR
STARTCHAR 2575
ENCODING 9589
SWIDTH 981 0
DWIDTH 15 0
BBX 1 9 6 6
BITMAP
80
80
80
80
80
80
80
80
80
ENDCHAR
STARTCHAR 2576
ENCODING 9590
SWIDTH 981 0
DWIDTH 15 0
BBX 9 1 6 6
BITMAP
FF80
ENDCHAR
STARTCHAR 2577
ENCODING 9591
SWIDTH 981 0
DWIDTH 15 0
BBX 1 8 6 0
BITMAP
80
80
80
80
80
80
80
80
ENDCHAR
STARTCHAR 2578
ENCODING 9592
SWIDTH 981 0
DWIDTH 15 0
BBX 8 3 0 6
BITMAP
FF
FF
FF
ENDCHAR
STARTCHAR 2579
ENCODING 9593
SWIDTH 981 0
DWIDTH 15 0
BBX 3 9 6 6
BITMAP
E0
E0
E0
E0
E0
E0
E0
E0
E0
ENDCHAR
STARTCHAR 257A
ENCODING 9594
SWIDTH 981 0
DWIDTH 15 0
BBX 9 3 6 6
BITMAP
FF80
FF80
FF80
ENDCHAR
STARTCHAR 257B
ENCODING 9595
SWIDTH 981 0
DWIDTH 15 0
BBX 3 8 6 0
BITMAP
E0
E0
E0
E0
E0
E0
E0
E0
ENDCHAR
STARTCHAR 257C
ENCODING 9596
SWIDTH 981 0
DWIDTH 15 0
BBX 15 2 0 6
BITMAP
03FE
FFFE
ENDCHAR
STARTCHAR 257D
ENCODING 9597
SWIDTH 981 0
DWIDTH 15 0
BBX 2 15 6 0
BITMAP
80
80
80
80
80
80
80
C0
C0
C0
C0
C0
C0
C0
C0
ENDCHAR
STARTCHAR 257E
ENCODING 9598
SWIDTH 981 0
DWIDTH 15 0
BBX 15 2 0 6
BITMAP
FF00
FFFE
ENDCHAR
STARTCHAR 257F
ENCODING 9599
SWIDTH 981 0
DWIDTH 15 0
BBX 2 15 6 0
BITMAP
C0
C0
C0
C0
C0
C0
C0
C0
C0
80
80
80
80
80
80
ENDCHAR
STARTCHAR 2580
ENCODING 9600
SWIDTH 981 0
DWIDTH 15 0
BBX 15 8 0 7
BITMAP
FFFE
FFFE
FFFE
FFFE
FFFE
FFFE
FFFE
FFFE
ENDCHAR
STARTCHAR 2581
ENCODING 9601
SWIDTH 981 0
DWIDTH 15 0
BBX 15 3 0 0
BITMAP
FFFE
FFFE
FFFE
ENDCHAR
STARTCHAR 2582
ENCODING 9602
SWIDTH 981 0
DWIDTH 15 0
BBX 15 4 0 0
BITMAP
FFFE
FFFE
FFFE
FFFE
ENDCHAR
STARTCHAR 2583
ENCODING 9603
SWIDTH 981 0
DWIDTH 15 0
BBX 15 6 0 0
BITMAP
FFFE
FFFE
FFFE
FFFE
FFFE
FFFE
ENDCHAR
STARTCHAR 2584
ENCODING 9604
SWIDTH 981 0
DWIDTH 15 0
BBX 15 8 0 0
BITMAP
FFFE
FFFE
FFFE
FFFE
FFFE
FFFE
FFFE
FFFE
ENDCHAR
STARTCHAR 2585
ENCODING 9605
SWIDTH 981 0
DWIDTH 15 0
BBX 15 10 0 0
BITMAP
FFFE
FFFE
FFFE
FFFE
FFFE
FFFE
FFFE
FFFE
FFFE
FFFE
ENDCHAR
STARTCHAR 2586
ENCODING 9606
SWIDTH 981 0
DWIDTH 15 0
BBX 15 11 0 0
BITMAP
FFFE
FFFE
FFFE
FFFE
FFFE
FFFE
FFFE
FFFE
FFFE
FFFE
FFFE
ENDCHAR
STARTCHAR 2587
ENCODING 9607
SWIDTH 981 0
DWIDTH 15 0
BBX 15 14 0 0
BITMAP
FFFE
FFFE
FFFE
FFFE
FFFE
FFFE
FFFE
FFFE
FFFE
FFFE
FFFE
FFFE
FFFE
FFFE
ENDCHAR
STARTCHAR 2588
ENCODING 9608
SWIDTH 981 0
DWIDTH 15 0
BBX 15 15 0 0
BITMAP
FFFE
FFFE
FFFE
FFFE
FFFE
FFFE
FFFE
FFFE
FFFE
FFFE
FFFE
FFFE
FFFE
FFFE
FFFE
ENDCHAR
STARTCHAR 2589
ENCODING 9609
SWIDTH 981 0
DWIDTH 15 0
BBX 14 15 0 0
BITMAP
FFFC
FFFC
FFFC
FFFC
FFFC
FFFC
FFFC
FFFC
FFFC
FFFC
FFFC
FFFC
FFFC
FFFC
FFFC
ENDCHAR
STARTCHAR 258A
ENCODING 9610
SWIDTH 981 0
DWIDTH 15 0
BBX 11 15 0 0
BITMAP
FFE0
FFE0
FFE0
FFE0
FFE0
FFE0
FFE0
FFE0
FFE0
FFE0
FFE0
FFE0
FFE0
FFE0
FFE0
ENDCHAR
STARTCHAR 258B
ENCODING 9611
SWIDTH 981 0
DWIDTH 15 0
BBX 10 15 0 0
BITMAP
FFC0
FFC0
FFC0
FFC0
FFC0
FFC0
FFC0
FFC0
FFC0
FFC0
FFC0
FFC0
FFC0
FFC0
FFC0
ENDCHAR
STARTCHAR 258C
ENCODING 9612
SWIDTH 981 0
DWIDTH 15 0
BBX 8 15 0 0
BITMAP
FF
FF
FF
FF
FF
FF
FF
FF
FF
FF
FF
FF
FF
FF
FF
ENDCHAR
STARTCHAR 258D
ENCODING 9613
SWIDTH 981 0
DWIDTH 15 0
BBX 6 15 0 0
BITMAP
FC
FC
FC
FC
FC
FC
FC
FC
FC
FC
FC
FC
FC
FC
FC
ENDCHAR
STARTCHAR 258E
ENCODING 9614
SWIDTH 981 0
DWIDTH 15 0
BBX 4 15 0 0
BITMAP
F0
F0
F0
F0
F0
F0
F0
F0
F0
F0
F0
F0
F0
F0
F0
ENDCHAR
STARTCHAR 258F
ENCODING 9615
SWIDTH 981 0
DWIDTH 15 0
BBX 3 15 0 0
BITMAP
E0
E0
E0
E0
E0
E0
E0
E0
E0
E0
E0
E0
E0
E0
E0
ENDCHAR
STARTCHAR 2590
ENCODING 9616
SWIDTH 981 0
DWIDTH 15 0
BBX 8 15 7 0
BITMAP
FF
FF
FF
FF
FF
FF
FF
FF
FF
FF
FF
FF
FF
FF
FF
ENDCHAR
STARTCHAR 2591
ENCODING 9617
SWIDTH 981 0
DWIDTH 15 0
BBX 14 14 0 1
BITMAP
94A4
0000
94A4
0000
0000
94A4
0000
0000
94A4
0000
94A4
0000
0000
94A4
ENDCHAR
STARTCHAR 2592
ENCODING 9618
SWIDTH 981 0
DWIDTH 15 0
BBX 15 15 0 0
BITMAP
94A4
6B5A
94A4
6B5A
6B5A
94A4
6B5A
6B5A
94A4
6B5A
94A4
6B5A
6B5A
94A4
6B5A
ENDCHAR
STARTCHAR 2593
ENCODING 9619
SWIDTH 981 0
DWIDTH 15 0
BBX 15 15 0 0
BITMAP
94A4
FFFE
94A4
94A4
FFFE
94A4
FFFE
94A4
94A4
FFFE
94A4
FFFE
94A4
94A4
FFFE
ENDCHAR
STARTCHAR 2594
ENCODING 9620
SWIDTH 981 0
DWIDTH 15 0
BBX 15 3 0 13
BITMAP
FFFE
FFFE
FFFE
ENDCHAR
STARTCHAR 2595
ENCODING 9621
SWIDTH 981 0
DWIDTH 15 0
BBX 3 15 13 0
BITMAP
E0
E0
E0
E0
E0
E0
E0
E0
E0
E0
E0
E0
E0
E0
E0
ENDCHAR
STARTCHAR 2596
ENCODING 9622
SWIDTH 981 0
DWIDTH 15 0
BBX 8 8 0 0
BITMAP
FF
FF
FF
FF
FF
FF
FF
FF
ENDCHAR
STARTCHAR 2597
ENCODING 9623
SWIDTH 981 0
DWIDTH 15 0
BBX 8 8 7 0
BITMAP
FF
FF
FF
FF
FF
FF
FF
FF
ENDCHAR
STARTCHAR 2598
ENCODING 9624
SWIDTH 981 0
DWIDTH 15 0
BBX 8 8 0 7
BITMAP
FF
FF
FF
FF
FF
FF
FF
FF
ENDCHAR
STARTCHAR 2599
ENCODING 9625
SWIDTH 981 0
DWIDTH 15 0
BBX 15 15 0 0
BITMAP
FF00
FF00
FF00
FF00
FF00
FF00
FF00
FFFE
FFFE
FFFE
FFFE
FFFE
FFFE
FFFE
FFFE
ENDCHAR
STARTCHAR 259A
ENCODING 9626
SWIDTH 981 0
DWIDTH 15 0
BBX 15 15 0 0
BITMAP
FF00
FF00
FF00
FF00
FF00
FF00
FF00
FFFE
00FE
00FE
00FE
00FE
00FE
00FE
00FE
ENDCHAR
STARTCHAR 259B
ENCODING 9627
SWIDTH 981 0
DWIDTH 15 0
BBX 15 15 0 0
BITMAP
FFFE
FFFE
FFFE
FFFE
FFFE
FFFE
FFFE
FFFE
FF00
FF00
FF00
FF00
FF00
FF00
FF00
ENDCHAR
STARTCHAR 259C
ENCODING 9628
SWIDTH 981 0
DWIDTH 15 0
BBX 15 15 0 0
BITMAP
FFFE
FFFE
FFFE
FFFE
FFFE
FFFE
FFFE
FFFE
01FE
01FE
01FE
01FE
01FE
01FE
01FE
ENDCHAR
STARTCHAR 259D
ENCODING 9629
SWIDTH 981 0
DWIDTH 15 0
BBX 8 8 7 7
BITMAP
FF
FF
FF
FF
FF
FF
FF
FF
ENDCHAR
STARTCHAR 259E
ENCODING 9630
SWIDTH 981 0
DWIDTH 15 0
BBX 15 15 0 0
BITMAP
00FE
00FE
00FE
00FE
00FE
00FE
00FE
FFFE
FF00
FF00
FF00
FF00
FF00
FF00
FF00
ENDCHAR
STARTCHAR 259F
ENCODING 9631
SWIDTH 981 0
DWIDTH 15 0
BBX 15 15 0 0
BITMAP
01FE
01FE
01FE
01FE
01FE
01FE
01FE
FFFE
FFFE
FFFE
FFFE
FFFE
FFFE
FFFE
FFFE
ENDCHAR
STARTCHAR 25A0
ENCODING 9632
SWIDTH 981 0
DWIDTH 15 0
BBX 14 14 0 0
BITMAP
FFFC
FFFC
FFFC
FFFC
FFFC
FFFC
FFFC
FFFC
FFFC
FFFC
FFFC
FFFC
FFFC
FFFC
ENDCHAR
STARTCHAR 25A1
ENCODING 9633
SWIDTH 981 0
DWIDTH 15 0
BBX 14 14 0 0
BITMAP
FFFC
8004
8004
8004
8004
8004
8004
8004
8004
8004
8004
8004
8004
FFFC
ENDCHAR
STARTCHAR 25A2
ENCODING 9634
SWIDTH 981 0
DWIDTH 15 0
BBX 14 14 0 0
BITMAP
7FF8
8004
8004
8004
8004
8004
8004
8004
8004
8004
8004
8004
0000
7FF8
ENDCHAR
STARTCHAR 25A3
ENCODING 9635
SWIDTH 981 0
DWIDTH 15 0
BBX 14 14 0 0
BITMAP
FFFC
8004
8004
8004
8FC4
8FC4
8FC4
8FC4
8FC4
8FC4
8004
8004
8004
FFFC
ENDCHAR
STARTCHAR 25A4
ENCODING 9636
SWIDTH 981 0
DWIDTH 15 0
BBX 14 14 0 0
BITMAP
FFFC
8004
8004
FFFC
8004
FFFC
8004
8004
FFFC
8004
FFFC
8004
8004
FFFC
ENDCHAR
STARTCHAR 25A5
ENCODING 9637
SWIDTH 981 0
DWIDTH 15 0
BBX 14 14 0 0
BITMAP
FFFC
94A4
94A4
94A4
94A4
94A4
94A4
94A4
94A4
94A4
94A4
94A4
94A4
FFFC
ENDCHAR
STARTCHAR 25A6
ENCODING 9638
SWIDTH 981 0
DWIDTH 15 0
BBX 14 14 0 0
BITMAP
FFFC
94A4
94A4
FFFC
94A4
FFFC
94A4
94A4
FFFC
94A4
FFFC
94A4
94A4
FFFC
ENDCHAR
STARTCHAR 25A7
ENCODING 9639
SWIDTH 981 0
DWIDTH 15 0
BBX 14 14 0 0
BITMAP
FFFC
C444
8004
9324
888C
C444
9324
9324
888C
C444
9324
8004
888C
FFFC
ENDCHAR
STARTCHAR 25A8
ENCODING 9640
SWIDTH 981 0
DWIDTH 15 0
BBX 14 14 0 0
BITMAP
FFFC
888C
8004
9324
C444
888C
9324
9324
C444
888C
9324
8004
C444
FFFC
ENDCHAR
STARTCHAR 25A9
ENCODING 9641
SWIDTH 981 0
DWIDTH 15 0
BBX 14 14 0 0
BITMAP
FFFC
CDCC
8004
9224
CDCC
CDCC
CDCC
9224
CDCC
CDCC
9224
8004
CDCC
FFFC
ENDCHAR
STARTCHAR 25AA
ENCODING 9642
SWIDTH 981 0
DWIDTH 15 0
BBX 6 6 4 4
BITMAP
FC
FC
FC
FC
FC
FC
ENDCHAR
STARTCHAR 25AB
ENCODING 9643
SWIDTH 981 0
DWIDTH 15 0
BBX 6 6 4 4
BITMAP
FC
84
84
84
84
FC
ENDCHAR
STARTCHAR 25AC
ENCODING 9644
SWIDTH 981 0
DWIDTH 15 0
BBX 14 6 0 4
BITMAP
FFFC
FFFC
FFFC
FFFC
FFFC
FFFC
ENDCHAR
STARTCHAR 25AD
ENCODING 9645
SWIDTH 981 0
DWIDTH 15 0
BBX 14 6 0 4
BITMAP
FFFC
8004
8004
8004
8004
FFFC
ENDCHAR
STARTCHAR 25AE
ENCODING 9646
SWIDTH 981 0
DWIDTH 15 0
BBX 6 14 4 0
BITMAP
FC
FC
FC
FC
FC
FC
FC
FC
FC
FC
FC
FC
FC
FC
ENDCHAR
STARTCHAR 25AF
ENCODING 9647
SWIDTH 981 0
DWIDTH 15 0
BBX 6 14 4 0
BITMAP
FC
84
84
84
84
84
84
84
84
84
84
84
84
FC
ENDCHAR
STARTCHAR 25B0
ENCODING 9648
SWIDTH 981 0
DWIDTH 15 0
BBX 14 6 0 4
BITMAP
7FFC
7FFC
FFFC
FFF8
FFF8
FFF8
ENDCHAR
STARTCHAR 25B1
ENCODING 9649
SWIDTH 981 0
DWIDTH 15 0
BBX 14 6 0 4
BITMAP
7FFC
6004
8004
8004
8008
FFF8
ENDCHAR
STARTCHAR 25B2
ENCODING 9650
SWIDTH 981 0
DWIDTH 15 0
BBX 14 14 0 0
BITMAP
0300
0780
0780
0780
0FC0
0FC0
1FE0
1FE0
1FE0
7FF8
7FF8
FFFC
FFFC
FFFC
ENDCHAR
STARTCHAR 25B3
ENCODING 9651
SWIDTH 981 0
DWIDTH 15 0
BBX 14 14 0 0
BITMAP
0300
0480
0480
0480
0840
0840
0840
1020
1020
6018
6018
6018
8004
FFFC
ENDCHAR
STARTCHAR 25B4
ENCODING 9652
SWIDTH 981 0
DWIDTH 15 0
BBX 6 6 4 4
BITMAP
30
78
78
FC
FC
FC
ENDCHAR
STARTCHAR 25B5
ENCODING 9653
SWIDTH 981 0
DWIDTH 15 0
BBX 6 6 4 4
BITMAP
20
58
58
58
84
FC
ENDCHAR
STARTCHAR 25B6
ENCODING 9654
SWIDTH 981 0
DWIDTH 15 0
BBX 14 14 0 0
BITMAP
E000
F800
FF00
FF00
FFC0
FFF8
FFFC
FFF8
FFF8
FFC0
FF00
F800
E000
E000
ENDCHAR
STARTCHAR 25B7
ENCODING 9655
SWIDTH 981 0
DWIDTH 15 0
BBX 14 14 0 0
BITMAP
C000
B800
8600
8600
81C0
8038
8038
8004
8038
81C0
8600
8600
B800
C000
ENDCHAR
STARTCHAR 25B8
ENCODING 9656
SWIDTH 981 0
DWIDTH 15 0
BBX 6 6 4 4
BITMAP
E0
F8
FC
FC
F8
E0
ENDCHAR
STARTCHAR 25B9
ENCODING 9657
SWIDTH 981 0
DWIDTH 15 0
BBX 6 6 4 4
BITMAP
C0
B8
B8
84
B8
C0
ENDCHAR
STARTCHAR 25BA
ENCODING 9658
SWIDTH 981 0
DWIDTH 15 0
BBX 14 9 0 3
BITMAP
F000
FF00
FF00
FFE0
FFFC
FFE0
FF00
FF00
F000
ENDCHAR
STARTCHAR 25BB
ENCODING 9659
SWIDTH 981 0
DWIDTH 15 0
BBX 14 8 0 3
BITMAP
F000
8F00
80E0
801C
801C
80E0
8F00
F000
ENDCHAR
STARTCHAR 25BC
ENCODING 9660
SWIDTH 981 0
DWIDTH 15 0
BBX 14 14 0 0
BITMAP
FFFC
FFFC
FFFC
7FF8
7FF8
1FE0
1FE0
1FE0
0FC0
0FC0
0780
0780
0780
0300
ENDCHAR
STARTCHAR 25BD
ENCODING 9661
SWIDTH 981 0
DWIDTH 15 0
BBX 14 14 0 0
BITMAP
FFFC
8004
6018
6018
6018
1020
1020
1020
0840
0840
0480
0480
0480
0300
ENDCHAR
STARTCHAR 25BE
ENCODING 9662
SWIDTH 981 0
DWIDTH 15 0
BBX 6 6 4 4
BITMAP
FC
FC
FC
78
78
30
ENDCHAR
STARTCHAR 25BF
ENCODING 9663
SWIDTH 981 0
DWIDTH 15 0
BBX 6 6 4 4
BITMAP
FC
84
58
58
58
20
ENDCHAR
STARTCHAR 25C0
ENCODING 9664
SWIDTH 981 0
DWIDTH 15 0
BBX 14 14 0 0
BITMAP
001C
007C
03FC
03FC
0FFC
7FFC
FFFC
7FFC
7FFC
0FFC
03FC
007C
001C
001C
ENDCHAR
STARTCHAR 25C1
ENCODING 9665
SWIDTH 981 0
DWIDTH 15 0
BBX 14 14 0 0
BITMAP
000C
0074
0184
0184
0E04
7004
7004
8004
7004
0E04
0184
0184
0074
000C
ENDCHAR
STARTCHAR 25C2
ENCODING 9666
SWIDTH 981 0
DWIDTH 15 0
BBX 6 6 4 4
BITMAP
1C
7C
FC
FC
7C
1C
ENDCHAR
STARTCHAR 25C3
ENCODING 9667
SWIDTH 981 0
DWIDTH 15 0
BBX 6 6 4 4
BITMAP
0C
74
74
84
74
0C
ENDCHAR
STARTCHAR 25C4
ENCODING 9668
SWIDTH 981 0
DWIDTH 15 0
BBX 14 9 0 3
BITMAP
003C
03FC
03FC
1FFC
FFFC
1FFC
03FC
03FC
003C
ENDCHAR
STARTCHAR 25C5
ENCODING 9669
SWIDTH 981 0
DWIDTH 15 0
BBX 14 8 0 3
BITMAP
003C
03C4
1C04
E004
E004
1C04
03C4
003C
ENDCHAR
STARTCHAR 25C6
ENCODING 9670
SWIDTH 981 0
DWIDTH 15 0
BBX 14 14 0 0
BITMAP
0300
0780
0FC0
0FC0
1FE0
7FF8
FFFC
7FF8
7FF8
1FE0
0FC0
0780
0300
0300
ENDCHAR
STARTCHAR 25C7
ENCODING 9671
SWIDTH 981 0
DWIDTH 15 0
BBX 14 14 0 0
BITMAP
0300
0480
0840
0840
1020
6018
6018
8004
6018
1020
0840
0840
0480
0300
ENDCHAR
STARTCHAR 25C8
ENCODING 9672
SWIDTH 981 0
DWIDTH 15 0
BBX 14 14 0 0
BITMAP
0300
0480
0840
0840
1320
6798
8FC4
8FC4
6798
1320
0840
0840
0480
0300
ENDCHAR
STARTCHAR 25C9
ENCODING 9673
SWIDTH 981 0
DWIDTH 15 0
BBX 14 14 0 0
BITMAP
0780
3870
4008
4008
4788
8FC4
8FC4
8FC4
8FC4
4788
4008
4008
3870
0780
ENDCHAR
STARTCHAR 25CA
ENCODING 9674
SWIDTH 981 0
DWIDTH 15 0
BBX 14 14 0 0
BITMAP
0300
0480
0840
0840
1020
6018
6018
8004
6018
1020
0840
0840
0480
0300
ENDCHAR
STARTCHAR 25CB
ENCODING 9675
SWIDTH 981 0
DWIDTH 15 0
BBX 14 14 0 0
BITMAP
0780
3870
4008
4008
4008
8004
8004
8004
8004
4008
4008
4008
3870
0780
ENDCHAR
STARTCHAR 25CC
ENCODING 9676
SWIDTH 981 0
DWIDTH 15 0
BBX 14 14 0 0
BITMAP
0480
1020
1020
6018
0000
8004
0000
0000
8004
0000
6018
6018
1020
0480
ENDCHAR
STARTCHAR 25CD
ENCODING 9677
SWIDTH 981 0
DWIDTH 15 0
BBX 14 14 0 0
BITMAP
0780
1CE0
34B0
34B0
34B0
94A4
94A4
94A4
94A4
34B0
34B0
34B0
1CE0
0780
ENDCHAR
STARTCHAR 25CE
ENCODING 9678
SWIDTH 981 0
DWIDTH 15 0
BBX 14 14 0 0
BITMAP
0780
1860
0000
6008
6788
8844
8844
8844
8844
6788
6008
0000
1860
0780
ENDCHAR
STARTCHAR 25CF
ENCODING 9679
SWIDTH 981 0
DWIDTH 15 0
BBX 14 14 0 0
BITMAP
0780
1FE0
7FF8
7FF8
7FF8
FFFC
FFFC
FFFC
FFFC
7FF8
7FF8
1FE0
0780
0780
ENDCHAR
STARTCHAR 25D0
ENCODING 9680
SWIDTH 981 0
DWIDTH 15 0
BBX 13 14 0 0
BITMAP
0700
3CE0
7C10
7C10
7C10
FC08
FC08
FC08
FC08
7C10
7C10
3CE0
0400
0700
ENDCHAR
STARTCHAR 25D1
ENCODING 9681
SWIDTH 981 0
DWIDTH 15 0
BBX 14 14 0 0
BITMAP
0700
39E0
41F0
41F0
41F0
81FC
81FC
81FC
81FC
41F0
41F0
39E0
0100
0700
ENDCHAR
STARTCHAR 25D2
ENCODING 9682
SWIDTH 981 0
DWIDTH 15 0
BBX 14 14 0 0
BITMAP
0700
38E0
4018
4018
4018
8004
8004
8004
FFFC
7FF8
7FF8
7FF8
3FE0
0700
ENDCHAR
STARTCHAR 25D3
ENCODING 9683
SWIDTH 981 0
DWIDTH 15 0
BBX 14 14 0 0
BITMAP
0700
3FE0
3FE0
7FF8
7FF8
FFFC
8004
8004
8004
4018
4018
4018
38E0
0700
ENDCHAR
STARTCHAR 25D4
ENCODING 9684
SWIDTH 981 0
DWIDTH 15 0
BBX 14 14 0 0
BITMAP
0780
3BE0
43F8
43F8
43F8
83FC
83FC
83FC
8004
4018
4018
4018
3860
0780
ENDCHAR
STARTCHAR 25D5
ENCODING 9685
SWIDTH 981 0
DWIDTH 15 0
BBX 14 14 0 0
BITMAP
0700
39E0
41F8
41F8
41F8
81FC
81FC
FFFC
FFFC
7FF8
7FF8
3FE0
0700
0700
ENDCHAR
STARTCHAR 25D6
ENCODING 9686
SWIDTH 981 0
DWIDTH 15 0
BBX 8 14 0 0
BITMAP
07
3F
7F
7F
7F
FF
FF
FF
FF
7F
7F
3F
07
07
ENDCHAR
STARTCHAR 25D7
ENCODING 9687
SWIDTH 981 0
DWIDTH 15 0
BBX 8 14 6 0
BITMAP
E0
FC
FE
FE
FE
FF
FF
FF
FF
FE
FE
FC
E0
E0
ENDCHAR
STARTCHAR 25D8
ENCODING 9688
SWIDTH 981 0
DWIDTH 15 0
BBX 14 14 0 0
BITMAP
FFFC
FFFC
FFFC
F87C
F03C
E01C
E01C
E01C
E01C
F03C
F87C
FFFC
FFFC
FFFC
ENDCHAR
STARTCHAR 25D9
ENCODING 9689
SWIDTH 981 0
DWIDTH 15 0
BBX 14 14 0 0
BITMAP
FFFC
FFFC
FFFC
F87C
F7BC
EFDC
EFDC
EFDC
EFDC
F7BC
F87C
FFFC
FFFC
FFFC
ENDCHAR
STARTCHAR 25DA
ENCODING 9690
SWIDTH 981 0
DWIDTH 15 0
BBX 14 8 0 6
BITMAP
FFFC
FFFC
FFFC
F87C
F7BC
EFDC
EFDC
EFDC
ENDCHAR
STARTCHAR 25DB
ENCODING 9691
SWIDTH 981 0
DWIDTH 15 0
BBX 14 8 0 0
BITMAP
EFDC
EFDC
EFDC
F7BC
F87C
FFFC
FFFC
FFFC
ENDCHAR
STARTCHAR 25DC
ENCODING 9692
SWIDTH 981 0
DWIDTH 15 0
BBX 8 8 0 6
BITMAP
07
38
40
40
40
80
80
80
ENDCHAR
STARTCHAR 25DD
ENCODING 9693
SWIDTH 981 0
DWIDTH 15 0
BBX 8 8 6 6
BITMAP
E0
1C
02
02
02
01
01
01
ENDCHAR
STARTCHAR 25DE
ENCODING 9694
SWIDTH 981 0
DWIDTH 15 0
BBX 8 8 6 0
BITMAP
01
01
01
02
02
02
1C
E0
ENDCHAR
STARTCHAR 25DF
ENCODING 9695
SWIDTH 981 0
DWIDTH 15 0
BBX 8 8 0 0
BITMAP
80
80
80
40
40
40
38
07
ENDCHAR
STARTCHAR 25E0
ENCODING 9696
SWIDTH 981 0
DWIDTH 15 0
BBX 14 8 0 6
BITMAP
0780
3870
4008
4008
4008
8004
8004
8004
ENDCHAR
STARTCHAR 25E1
ENCODING 9697
SWIDTH 981 0
DWIDTH 15 0
BBX 14 8 0 0
BITMAP
8004
8004
8004
4008
4008
4008
3870
0780
ENDCHAR
STARTCHAR 25E2
ENCODING 9698
SWIDTH 981 0
DWIDTH 15 0
BBX 14 14 0 0
BITMAP
0004
000C
000C
003C
007C
00FC
03FC
03FC
07FC
0FFC
1FFC
1FFC
7FFC
FFFC
ENDCHAR
STARTCHAR 25E3
ENCODING 9699
SWIDTH 981 0
DWIDTH 15 0
BBX 14 14 0 0
BITMAP
8000
C000
C000
F000
F800
FC00
FF00
FF00
FF80
FFC0
FFE0
FFE0
FFF8
FFFC
ENDCHAR
STARTCHAR 25E4
ENCODING 9700
SWIDTH 981 0
DWIDTH 15 0
BBX 14 14 0 0
BITMAP
FFFC
FFF8
FFE0
FFE0
FFC0
FF80
FF00
FF00
FC00
F800
F000
C000
C000
8000
ENDCHAR
STARTCHAR 25E5
ENCODING 9701
SWIDTH 981 0
DWIDTH 15 0
BBX 14 14 0 0
BITMAP
FFFC
7FFC
1FFC
1FFC
0FFC
07FC
03FC
03FC
00FC
007C
003C
000C
000C
0004
ENDCHAR
STARTCHAR 25E6
ENCODING 9702
SWIDTH 523 0
DWIDTH 8 0
BBX 6 6 0 4
BITMAP
78
84
84
84
84
78
ENDCHAR
STARTCHAR 25E7
ENCODING 9703
SWIDTH 981 0
DWIDTH 15 0
BBX 14 14 0 0
BITMAP
FFFC
FC04
FC04
FC04
FC04
FC04
FC04
FC04
FC04
FC04
FC04
FC04
FC04
FFFC
ENDCHAR
STARTCHAR 25E8
ENCODING 9704
SWIDTH 981 0
DWIDTH 15 0
BBX 14 14 0 0
BITMAP
FFFC
80FC
80FC
80FC
80FC
80FC
80FC
80FC
80FC
80FC
80FC
80FC
80FC
FFFC
ENDCHAR
STARTCHAR 25E9
ENCODING 9705
SWIDTH 981 0
DWIDTH 15 0
BBX 14 14 0 0
BITMAP
FFFC
FFE4
FFC4
FFC4
FF84
FF04
FC04
FC04
F804
F004
C004
8004
8004
FFFC
ENDCHAR
STARTCHAR 25EA
ENCODING 9706
SWIDTH 981 0
DWIDTH 15 0
BBX 14 14 0 0
BITMAP
FFFC
8004
8004
800C
803C
807C
80FC
80FC
83FC
87FC
8FFC
8FFC
9FFC
FFFC
ENDCHAR
STARTCHAR 25EB
ENCODING 9707
SWIDTH 981 0
DWIDTH 15 0
BBX 13 14 0 0
BITMAP
FFF8
8208
8208
8208
8208
8208
8208
8208
8208
8208
8208
8208
8208
FFF8
ENDCHAR
STARTCHAR 25EC
ENCODING 9708
SWIDTH 981 0
DWIDTH 15 0
BBX 14 14 0 0
BITMAP
0300
0480
0480
0480
0840
0840
0840
1020
1020
6318
6018
6018
8004
FFFC
ENDCHAR
STARTCHAR 25ED
ENCODING 9709
SWIDTH 981 0
DWIDTH 15 0
BBX 14 14 0 0
BITMAP
0300
0480
0480
0480
0C40
0C40
0C40
3C20
3C20
7C18
7C18
7C18
FC04
FFFC
ENDCHAR
STARTCHAR 25EE
ENCODING 9710
SWIDTH 981 0
DWIDTH 15 0
BBX 14 14 0 0
BITMAP
0300
0480
0480
0480
08C0
08C0
08C0
10F0
10F0
60F8
60F8
60F8
80FC
FFFC
ENDCHAR
STARTCHAR 25EF
ENCODING 9711
SWIDTH 981 0
DWIDTH 15 0
BBX 14 14 0 0
BITMAP
0780
3870
4008
4008
4008
8004
8004
8004
8004
4008
4008
4008
3870
0780
ENDCHAR
STARTCHAR 25F0
ENCODING 9712
SWIDTH 981 0
DWIDTH 15 0
BBX 13 14 0 0
BITMAP
FFF8
8208
8208
8208
8208
8208
8208
FE08
8008
8008
8008
8008
8008
FFF8
ENDCHAR
STARTCHAR 25F1
ENCODING 9713
SWIDTH 981 0
DWIDTH 15 0
BBX 13 14 0 0
BITMAP
FFF8
8008
8008
8008
8008
8008
8008
FE08
8208
8208
8208
8208
8208
FFF8
ENDCHAR
STARTCHAR 25F2
ENCODING 9714
SWIDTH 981 0
DWIDTH 15 0
BBX 13 14 0 0
BITMAP
FFF8
8008
8008
8008
8008
8008
8008
83F8
8208
8208
8208
8208
8208
FFF8
ENDCHAR
STARTCHAR 25F3
ENCODING 9715
SWIDTH 981 0
DWIDTH 15 0
BBX 13 14 0 0
BITMAP
FFF8
8208
8208
8208
8208
8208
8208
83F8
8008
8008
8008
8008
8008
FFF8
ENDCHAR
STARTCHAR 25F4
ENCODING 9716
SWIDTH 981 0
DWIDTH 15 0
BBX 14 14 0 0
BITMAP
0700
3A70
4208
4208
4208
0200
8204
FE04
8004
4008
4008
4008
3870
0700
ENDCHAR
STARTCHAR 25F5
ENCODING 9717
SWIDTH 981 0
DWIDTH 15 0
BBX 14 14 0 0
BITMAP
0700
3870
4008
4008
4008
0000
8004
FE04
8204
4208
4208
4208
3A70
0700
ENDCHAR
STARTCHAR 25F6
ENCODING 9718
SWIDTH 981 0
DWIDTH 15 0
BBX 14 14 0 0
BITMAP
0700
3870
4008
4008
4008
0000
8004
83FC
8204
4208
4208
4208
3A70
0700
ENDCHAR
STARTCHAR 25F7
ENCODING 9719
SWIDTH 981 0
DWIDTH 15 0
BBX 14 14 0 0
BITMAP
0700
3A70
4208
4208
4208
0200
8204
83FC
8004
4008
4008
4008
3870
0700
ENDCHAR
STARTCHAR 25F8
ENCODING 9720
SWIDTH 981 0
DWIDTH 15 0
BBX 14 14 0 0
BITMAP
FFFC
8018
8020
8020
8040
8080
8080
8300
8400
8800
9000
9000
C000
8000
ENDCHAR
STARTCHAR 25F9
ENCODING 9721
SWIDTH 981 0
DWIDTH 15 0
BBX 14 14 0 0
BITMAP
FFFC
4004
3004
3004
0804
0404
0404
0204
0184
0044
0034
0034
000C
0004
ENDCHAR
STARTCHAR 25FA
ENCODING 9722
SWIDTH 981 0
DWIDTH 15 0
BBX 14 14 0 0
BITMAP
8000
C000
C000
9000
8800
8400
8300
8300
8080
8040
8020
8000
8018
FFFC
ENDCHAR
STARTCHAR 25FB
ENCODING 9723
SWIDTH 981 0
DWIDTH 15 0
BBX 11 12 1 1
BITMAP
FFE0
8020
8020
8020
8020
8020
8020
8020
8020
8020
8020
FFE0
ENDCHAR
STARTCHAR 25FC
ENCODING 9724
SWIDTH 981 0
DWIDTH 15 0
BBX 11 11 2 2
BITMAP
FFE0
FFE0
FFE0
FFE0
FFE0
FFE0
FFE0
FFE0
FFE0
FFE0
FFE0
ENDCHAR
STARTCHAR 25FD
ENCODING 9725
SWIDTH 981 0
DWIDTH 15 0
BBX 9 8 3 3
BITMAP
FF80
8080
8080
8080
8080
8080
8080
FF80
ENDCHAR
STARTCHAR 25FE
ENCODING 9726
SWIDTH 981 0
DWIDTH 15 0
BBX 9 9 3 3
BITMAP
FF80
FF80
FF80
FF80
FF80
FF80
FF80
FF80
FF80
ENDCHAR
STARTCHAR 25FF
ENCODING 9727
SWIDTH 981 0
DWIDTH 15 0
BBX 14 14 0 0
BITMAP
0004
000C
000C
0034
0044
0184
0204
0204
0404
0804
3004
0004
4004
FFFC
ENDCHAR
STARTCHAR 2600
ENCODING 9728
SWIDTH 981 0
DWIDTH 15 0
BBX 14 14 0 0
BITMAP
0200
4018
0700
0700
1FC0
3FE0
BFE4
BFE4
3FE0
1FC0
0700
0700
4018
0200
ENDCHAR
STARTCHAR 2601
ENCODING 9729
SWIDTH 981 0
DWIDTH 15 0
BBX 14 13 0 1
BITMAP
0700
0000
18C0
38E0
4018
8004
8004
8004
80C4
8104
4218
4218
3DE0
ENDCHAR
STARTCHAR 2602
ENCODING 9730
SWIDTH 981 0
DWIDTH 15 0
BBX 14 14 0 0
BITMAP
0300
0FC0
1FE0
1FE0
7FF8
FFFC
0300
0300
0300
0300
0300
0300
0320
00C0
ENDCHAR
STARTCHAR 2603
ENCODING 9731
SWIDTH 981 0
DWIDTH 15 0
BBX 11 14 1 0
BITMAP
0F00
1080
6040
6040
6040
70C0
8020
8020
8020
8020
8020
8020
6040
1F80
ENDCHAR
STARTCHAR 2605
ENCODING 9733
SWIDTH 981 0
DWIDTH 15 0
BBX 14 14 0 0
BITMAP
0300
0300
0780
0780
0780
FFFC
7FF8
7FF8
1FE0
0FC0
1CE0
1860
1860
1020
ENDCHAR
STARTCHAR 2606
ENCODING 9734
SWIDTH 981 0
DWIDTH 15 0
BBX 14 14 0 0
BITMAP
0200
0200
0200
0580
0580
F87C
6018
1020
1020
0A40
15A0
1860
1860
1020
ENDCHAR
STARTCHAR 2610
ENCODING 9744
SWIDTH 981 0
DWIDTH 15 0
BBX 11 12 1 1
BITMAP
FFE0
8020
8020
8020
8020
8020
8020
8020
8020
8020
8020
FFE0
ENDCHAR
STARTCHAR 2611
ENCODING 9745
SWIDTH 981 0
DWIDTH 15 0
BBX 11 12 1 1
BITMAP
FFE0
8020
8020
8060
80A0
80A0
C320
9420
8820
8020
8020
FFE0
ENDCHAR
STARTCHAR 2612
ENCODING 9746
SWIDTH 981 0
DWIDTH 15 0
BBX 11 12 1 1
BITMAP
FFE0
8020
8020
90A0
8B20
8B20
8420
8B20
90A0
8020
8020
FFE0
ENDCHAR
STARTCHAR 262E
ENCODING 9774
SWIDTH 981 0
DWIDTH 15 0
BBX 14 14 0 0
BITMAP
0700
3A70
4208
4208
4208
8204
8704
8704
8A44
7238
4208
0200
3A70
0700
ENDCHAR
STARTCHAR 2630
ENCODING 9776
SWIDTH 981 0
DWIDTH 15 0
BBX 11 8 2 3
BITMAP
FFE0
0000
0000
0000
FFE0
0000
0000
FFE0
ENDCHAR
STARTCHAR 2631
ENCODING 9777
SWIDTH 981 0
DWIDTH 15 0
BBX 11 8 2 3
BITMAP
FBE0
0000
0000
0000
FFE0
0000
0000
FFE0
ENDCHAR
STARTCHAR 2632
ENCODING 9778
SWIDTH 981 0
DWIDTH 15 0
BBX 11 8 2 3
BITMAP
FFE0
0000
0000
0000
FBE0
0000
0000
FFE0
ENDCHAR
STARTCHAR 2633
ENCODING 9779
SWIDTH 981 0
DWIDTH 15 0
BBX 11 8 2 3
BITMAP
FBE0
0000
0000
0000
FBE0
0000
0000
FFE0
ENDCHAR
STARTCHAR 2634
ENCODING 9780
SWIDTH 981 0
DWIDTH 15 0
BBX 11 8 1 3
BITMAP
FFE0
0000
0000
0000
FFE0
0000
0000
FBE0
ENDCHAR
STARTCHAR 2635
ENCODING 9781
SWIDTH 981 0
DWIDTH 15 0
BBX 11 8 1 3
BITMAP
FBE0
0000
0000
0000
FFE0
0000
0000
FBE0
ENDCHAR
STARTCHAR 2636
ENCODING 9782
SWIDTH 981 0
DWIDTH 15 0
BBX 11 8 1 3
BITMAP
FFE0
0000
0000
0000
FBE0
0000
0000
FBE0
ENDCHAR
STARTCHAR 2637
ENCODING 9783
SWIDTH 981 0
DWIDTH 15 0
BBX 11 8 1 3
BITMAP
FBE0
0000
0000
0000
FBE0
0000
0000
FBE0
ENDCHAR
STARTCHAR 2639
ENCODING 9785
SWIDTH 981 0
DWIDTH 15 0
BBX 14 14 0 0
BITMAP
FFFC
8004
8844
8844
8844
8844
8004
8004
8004
8FC4
9024
8004
8004
FFFC
ENDCHAR
STARTCHAR 263A
ENCODING 9786
SWIDTH 981 0
DWIDTH 15 0
BBX 14 14 0 0
BITMAP
FFFC
8004
8844
8844
8844
8844
8004
8004
8004
9024
8FC4
8004
8004
FFFC
ENDCHAR
STARTCHAR 263B
ENCODING 9787
SWIDTH 981 0
DWIDTH 15 0
BBX 14 14 0 0
BITMAP
FFFC
FFFC
FFFC
F7BC
F7BC
F7BC
FFFC
FFFC
FFFC
EFDC
F03C
FFFC
FFFC
FFFC
ENDCHAR
STARTCHAR 263C
ENCODING 9788
SWIDTH 981 0
DWIDTH 15 0
BBX 14 14 0 0
BITMAP
0300
6018
0780
0780
0840
1020
9024
9024
1020
0840
0780
0780
6018
0300
ENDCHAR
STARTCHAR 2640
ENCODING 9792
SWIDTH 981 0
DWIDTH 15 0
BBX 9 14 3 0
BITMAP
1C00
6300
8080
8080
8080
8080
6300
6300
1C00
0800
FF80
0800
0800
0800
ENDCHAR
STARTCHAR 2641
ENCODING 9793
SWIDTH 981 0
DWIDTH 15 0
BBX 9 14 3 0
BITMAP
0800
0800
0800
FF80
0800
1C00
1C00
6300
8080
8080
8080
8080
6300
1C00
ENDCHAR
STARTCHAR 2642
ENCODING 9794
SWIDTH 981 0
DWIDTH 15 0
BBX 13 13 0 0
BITMAP
03F8
0018
0008
0068
3C88
3C88
4308
8080
8080
8080
8080
4300
3C00
ENDCHAR
STARTCHAR 2660
ENCODING 9824
SWIDTH 981 0
DWIDTH 15 0
BBX 14 14 0 0
BITMAP
0300
0780
0FC0
0FC0
1FE0
7FF8
FFFC
FFFC
FFFC
FB7C
7338
0300
0780
0FC0
ENDCHAR
STARTCHAR 2661
ENCODING 9825
SWIDTH 981 0
DWIDTH 15 0
BBX 14 12 0 0
BITMAP
7878
8484
8304
8004
8004
8004
4008
3030
0840
0840
0480
0300
ENDCHAR
STARTCHAR 2662
ENCODING 9826
SWIDTH 981 0
DWIDTH 15 0
BBX 14 14 0 0
BITMAP
0300
0480
0840
0840
1020
6018
6018
8004
6018
1020
0840
0840
0480
0300
ENDCHAR
STARTCHAR 2663
ENCODING 9827
SWIDTH 981 0
DWIDTH 15 0
BBX 14 14 0 0
BITMAP
0780
0FC0
0FC0
0FC0
0780
7B78
FFFC
FFFC
FFFC
7B78
0300
0300
0780
0FC0
ENDCHAR
STARTCHAR 2664
ENCODING 9828
SWIDTH 981 0
DWIDTH 15 0
BBX 14 14 0 0
BITMAP
0300
0480
0480
0840
3020
4018
8004
8004
8484
8B44
7338
7338
0480
0FC0
ENDCHAR
STARTCHAR 2665
ENCODING 9829
SWIDTH 981 0
DWIDTH 15 0
BBX 14 12 0 0
BITMAP
7878
FCFC
FFFC
FFFC
FFFC
FFFC
7FF8
1FE0
0FC0
0780
0780
0300
ENDCHAR
STARTCHAR 2666
ENCODING 9830
SWIDTH 981 0
DWIDTH 15 0
BBX 14 14 0 0
BITMAP
0300
0780
0FC0
0FC0
1FE0
7FF8
FFFC
7FF8
7FF8
1FE0
0FC0
0780
0300
0300
ENDCHAR
STARTCHAR 2667
ENCODING 9831
SWIDTH 981 0
DWIDTH 15 0
BBX 14 14 0 0
BITMAP
0780
0840
0840
0840
0480
7878
8004
8004
8784
7B78
0300
0300
0480
0FC0
ENDCHAR
STARTCHAR 2669
ENCODING 9833
SWIDTH 981 0
DWIDTH 15 0
BBX 5 14 4 0
BITMAP
08
08
08
08
08
08
08
08
08
08
78
F8
F8
F0
ENDCHAR
STARTCHAR 266A
ENCODING 9834
SWIDTH 981 0
DWIDTH 15 0
BBX 9 14 2 0
BITMAP
0800
0E00
0F00
0F00
0980
0880
0880
0880
0900
0800
3800
F800
F800
F000
ENDCHAR
STARTCHAR 266B
ENCODING 9835
SWIDTH 981 0
DWIDTH 15 0
BBX 14 14 0 0
BITMAP
0FFC
0FFC
0FFC
0804
0804
0804
0804
0804
0804
0804
783C
F87C
F87C
F078
ENDCHAR
STARTCHAR 266C
ENCODING 9836
SWIDTH 981 0
DWIDTH 15 0
BBX 14 14 0 0
BITMAP
0FFC
0804
0804
0FFC
0804
0804
0804
0804
0804
0804
783C
F87C
F87C
F078
ENDCHAR
STARTCHAR 266D
ENCODING 9837
SWIDTH 981 0
DWIDTH 15 0
BBX 7 14 4 0
BITMAP
80
80
80
80
80
BC
CE
CE
86
86
84
88
B8
C0
ENDCHAR
STARTCHAR 266E
ENCODING 9838
SWIDTH 981 0
DWIDTH 15 0
BBX 7 14 4 0
BITMAP
80
82
82
9E
FE
F2
F2
82
9E
FE
F2
F2
82
02
ENDCHAR
STARTCHAR 266F
ENCODING 9839
SWIDTH 981 0
DWIDTH 15 0
BBX 12 14 1 0
BITMAP
0080
10F0
10F0
1FF0
FF80
F080
F080
1080
10F0
1FF0
FF80
F080
F080
1000
ENDCHAR
STARTCHAR 2680
ENCODING 9856
SWIDTH 981 0
DWIDTH 15 0
BBX 11 12 1 1
BITMAP
FFE0
8020
8020
8020
8020
8020
8420
8020
8020
8020
8020
FFE0
ENDCHAR
STARTCHAR 2681
ENCODING 9857
SWIDTH 981 0
DWIDTH 15 0
BBX 11 12 1 1
BITMAP
FFE0
8020
8020
80A0
8020
8020
8020
8020
9020
8020
8020
FFE0
ENDCHAR
STARTCHAR 2682
ENCODING 9858
SWIDTH 981 0
DWIDTH 15 0
BBX 11 12 1 1
BITMAP
FFE0
8020
8020
80A0
8020
8020
8420
8020
9020
8020
8020
FFE0
ENDCHAR
STARTCHAR 2683
ENCODING 9859
SWIDTH 981 0
DWIDTH 15 0
BBX 11 12 1 1
BITMAP
FFE0
8020
8020
90A0
8020
8020
8020
8020
90A0
8020
8020
FFE0
ENDCHAR
STARTCHAR 2684
ENCODING 9860
SWIDTH 981 0
DWIDTH 15 0
BBX 11 12 1 1
BITMAP
FFE0
8020
8020
90A0
8020
8020
8420
8020
90A0
8020
8020
FFE0
ENDCHAR
STARTCHAR 2685
ENCODING 9861
SWIDTH 981 0
DWIDTH 15 0
BBX 11 12 1 1
BITMAP
FFE0
8020
8020
90A0
8020
8020
90A0
8020
90A0
8020
8020
FFE0
ENDCHAR
STARTCHAR 2686
ENCODING 9862
SWIDTH 981 0
DWIDTH 15 0
BBX 14 14 0 0
BITMAP
0780
3870
4008
4008
4008
8004
8044
8044
8004
4008
4008
4008
3870
0780
ENDCHAR
STARTCHAR 2687
ENCODING 9863
SWIDTH 981 0
DWIDTH 15 0
BBX 14 14 0 0
BITMAP
0780
3870
4008
4008
4008
8004
8844
8844
8004
4008
4008
4008
3870
0780
ENDCHAR
STARTCHAR 2688
ENCODING 9864
SWIDTH 981 0
DWIDTH 15 0
BBX 14 14 0 0
BITMAP
0780
1FE0
7FF8
7FF8
7FF8
FFFC
FFBC
FFBC
FFFC
7FF8
7FF8
7FF8
1FE0
0780
ENDCHAR
STARTCHAR 2689
ENCODING 9865
SWIDTH 981 0
DWIDTH 15 0
BBX 14 14 0 0
BITMAP
0780
1FE0
7FF8
7FF8
7FF8
FFFC
F7BC
F7BC
FFFC
7FF8
7FF8
7FF8
1FE0
0780
ENDCHAR
STARTCHAR 26A0
ENCODING 9888
SWIDTH 981 0
DWIDTH 15 0
BBX 14 14 0 0
BITMAP
FFFC
FCFC
FCFC
FCFC
FCFC
FCFC
FCFC
FCFC
FCFC
FFFC
FCFC
FCFC
FCFC
FFFC
ENDCHAR
STARTCHAR 26C4
ENCODING 9924
SWIDTH 981 0
DWIDTH 15 0
BBX 11 14 1 0
BITMAP
0F00
1080
6040
6040
6040
70C0
8020
8020
8020
8020
8020
8020
6040
1F80
ENDCHAR
STARTCHAR 26D4
ENCODING 9940
SWIDTH 981 0
DWIDTH 15 0
BBX 14 14 0 0
BITMAP
0780
1FE0
7FF8
7FF8
7FF8
E01C
E01C
E01C
FFFC
7FF8
7FF8
7FF8
1FE0
0780
ENDCHAR
STARTCHAR 2706
ENCODING 9990
SWIDTH 981 0
DWIDTH 15 0
BBX 9 15 3 0
BITMAP
0080
FF80
8080
8080
8080
8080
FF80
A480
8080
D980
A480
D980
C080
A480
FF80
ENDCHAR
STARTCHAR 2709
ENCODING 9993
SWIDTH 981 0
DWIDTH 15 0
BBX 14 12 0 1
BITMAP
FFFC
C00C
9024
9024
8844
8484
8484
8304
8004
8004
8004
FFFC
ENDCHAR
STARTCHAR 2753
ENCODING 10067
SWIDTH 981 0
DWIDTH 15 0
BBX 14 14 0 0
BITMAP
FFFC
F87C
F7BC
F7BC
FFBC
FF7C
FCFC
FCFC
FCFC
FFFC
FCFC
FCFC
FCFC
FFFC
ENDCHAR
STARTCHAR 2757
ENCODING 10071
SWIDTH 981 0
DWIDTH 15 0
BBX 14 14 0 0
BITMAP
FFFC
FCFC
FCFC
FCFC
FCFC
FCFC
FCFC
FCFC
FCFC
FFFC
FCFC
FCFC
FCFC
FFFC
ENDCHAR
STARTCHAR 2776
ENCODING 10102
SWIDTH 981 0
DWIDTH 15 0
BBX 14 14 0 0
BITMAP
0FC0
7FF8
7FF8
7EF8
F8FC
FEFC
FEFC
FEFC
FEFC
FEFC
7878
7FF8
0FC0
0FC0
ENDCHAR
STARTCHAR 2777
ENCODING 10103
SWIDTH 981 0
DWIDTH 15 0
BBX 14 14 0 0
BITMAP
0FC0
7FF8
7FF8
7878
F7BC
FFBC
FF7C
FF7C
FCFC
FBFC
7038
7FF8
0FC0
0FC0
ENDCHAR
STARTCHAR 2778
ENCODING 10104
SWIDTH 981 0
DWIDTH 15 0
BBX 14 14 0 0
BITMAP
0FC0
7FF8
7FF8
7878
F7BC
FFBC
FC7C
FC7C
FFBC
F7BC
7878
7FF8
0FC0
0FC0
ENDCHAR
STARTCHAR 2779
ENCODING 10105
SWIDTH 981 0
DWIDTH 15 0
BBX 14 14 0 0
BITMAP
0FC0
7FF8
7FF8
7F78
FC7C
FB7C
F77C
F77C
E03C
FF7C
7F78
7FF8
0FC0
0FC0
ENDCHAR
STARTCHAR 277A
ENCODING 10106
SWIDTH 981 0
DWIDTH 15 0
BBX 14 14 0 0
BITMAP
0FC0
7FF8
7FF8
7038
F7FC
F07C
F7BC
F7BC
FFBC
F7BC
7878
7FF8
0FC0
0FC0
ENDCHAR
STARTCHAR 277B
ENCODING 10107
SWIDTH 981 0
DWIDTH 15 0
BBX 14 14 0 0
BITMAP
0FC0
7FF8
7FF8
7878
F7BC
F7FC
F07C
F07C
F7BC
F7BC
7878
7FF8
0FC0
0FC0
ENDCHAR
STARTCHAR 277C
ENCODING 10108
SWIDTH 981 0
DWIDTH 15 0
BBX 13 14 0 0
BITMAP
0FC0
7FF0
7FF0
7030
FF38
FEF8
FEF8
FEF8
FDF8
FDF8
7DF0
7FF0
0FC0
0FC0
ENDCHAR
STARTCHAR 277D
ENCODING 10109
SWIDTH 981 0
DWIDTH 15 0
BBX 14 14 0 0
BITMAP
0FC0
7FF8
7FF8
7878
F7BC
F7BC
F87C
F87C
F7BC
F7BC
7878
7FF8
0FC0
0FC0
ENDCHAR
STARTCHAR 277E
ENCODING 10110
SWIDTH 981 0
DWIDTH 15 0
BBX 14 14 0 0
BITMAP
0FC0
7FF8
7FF8
7878
F7BC
F7BC
F83C
F83C
FFBC
F7BC
7878
7FF8
0FC0
0FC0
ENDCHAR
STARTCHAR 277F
ENCODING 10111
SWIDTH 981 0
DWIDTH 15 0
BBX 14 14 0 0
BITMAP
0FC0
7FF8
7FF8
7638
E5DC
F5DC
F5DC
F5DC
F5DC
F5DC
7638
7FF8
7FF8
0FC0
ENDCHAR
STARTCHAR 2780
ENCODING 10112
SWIDTH 981 0
DWIDTH 15 0
BBX 14 14 0 0
BITMAP
0FC0
1020
6218
6218
8604
8204
8204
8204
8204
8204
6718
6718
1020
0FC0
ENDCHAR
STARTCHAR 2781
ENCODING 10113
SWIDTH 981 0
DWIDTH 15 0
BBX 14 14 0 0
BITMAP
0FC0
1020
6798
6798
8844
8044
8084
8084
8304
8404
6FD8
6FD8
1020
0FC0
ENDCHAR
STARTCHAR 2782
ENCODING 10114
SWIDTH 981 0
DWIDTH 15 0
BBX 14 14 0 0
BITMAP
0FC0
1020
6798
6798
8844
8044
8384
8384
8044
8844
6798
6798
1020
0FC0
ENDCHAR
STARTCHAR 2783
ENCODING 10115
SWIDTH 981 0
DWIDTH 15 0
BBX 14 14 0 0
BITMAP
0FC0
3030
4088
4088
8384
8484
8884
8884
BFC4
8084
4088
4088
3030
0FC0
ENDCHAR
STARTCHAR 2784
ENCODING 10116
SWIDTH 981 0
DWIDTH 15 0
BBX 14 14 0 0
BITMAP
0FC0
1020
6FD8
6FD8
8804
8F84
8844
8844
8044
8844
6798
6798
1020
0FC0
ENDCHAR
STARTCHAR 2785
ENCODING 10117
SWIDTH 981 0
DWIDTH 15 0
BBX 14 14 0 0
BITMAP
0FC0
1020
6798
6798
8844
8804
8F84
8F84
8844
8844
6798
6798
1020
0FC0
ENDCHAR
STARTCHAR 2786
ENCODING 10118
SWIDTH 981 0
DWIDTH 15 0
BBX 14 14 0 0
BITMAP
0FC0
1030
6FC8
6FC8
8044
8184
8184
8184
8204
8204
6208
6208
1030
0FC0
ENDCHAR
STARTCHAR 2787
ENCODING 10119
SWIDTH 981 0
DWIDTH 15 0
BBX 14 14 0 0
BITMAP
0FC0
1020
6798
6798
8844
8844
8784
8784
8844
8844
6798
6798
1020
0FC0
ENDCHAR
STARTCHAR 2788
ENCODING 10120
SWIDTH 981 0
DWIDTH 15 0
BBX 14 14 0 0
BITMAP
0FC0
1020
6798
6798
8844
8844
87C4
87C4
8044
8844
6798
6798
1020
0FC0
ENDCHAR
STARTCHAR 2789
ENCODING 10121
SWIDTH 981 0
DWIDTH 15 0
BBX 14 14 0 0
BITMAP
0FC0
1020
69D8
69D8
9A24
8A24
8A24
8A24
8A24
8A24
69D8
69D8
1020
0FC0
ENDCHAR
STARTCHAR 278A
ENCODING 10122
SWIDTH 981 0
DWIDTH 15 0
BBX 14 14 0 0
BITMAP
0FC0
7FF8
7FF8
7EF8
F8FC
FEFC
FEFC
FEFC
FEFC
FEFC
7878
7FF8
0FC0
0FC0
ENDCHAR
STARTCHAR 278B
ENCODING 10123
SWIDTH 981 0
DWIDTH 15 0
BBX 14 14 0 0
BITMAP
0FC0
7FF8
7FF8
7878
F7BC
FFBC
FF7C
FF7C
FCFC
FBFC
7038
7FF8
0FC0
0FC0
ENDCHAR
STARTCHAR 278C
ENCODING 10124
SWIDTH 981 0
DWIDTH 15 0
BBX 14 14 0 0
BITMAP
0FC0
7FF8
7FF8
7878
F7BC
FFBC
FC7C
FC7C
FFBC
F7BC
7878
7FF8
0FC0
0FC0
ENDCHAR
STARTCHAR 278D
ENCODING 10125
SWIDTH 981 0
DWIDTH 15 0
BBX 14 14 0 0
BITMAP
0FC0
7FF8
7FF8
7F78
FC7C
FB7C
F77C
F77C
E03C
FF7C
7F78
7FF8
0FC0
0FC0
ENDCHAR
STARTCHAR 278E
ENCODING 10126
SWIDTH 981 0
DWIDTH 15 0
BBX 14 14 0 0
BITMAP
0FC0
7FF8
7FF8
7038
F7FC
F07C
F7BC
F7BC
FFBC
F7BC
7878
7FF8
0FC0
0FC0
ENDCHAR
STARTCHAR 278F
ENCODING 10127
SWIDTH 981 0
DWIDTH 15 0
BBX 14 14 0 0
BITMAP
0FC0
7FF8
7FF8
7878
F7BC
F7FC
F07C
F07C
F7BC
F7BC
7878
7FF8
0FC0
0FC0
ENDCHAR
STARTCHAR 2790
ENCODING 10128
SWIDTH 981 0
DWIDTH 15 0
BBX 13 14 0 0
BITMAP
0FC0
7FF0
7FF0
7030
FF38
FEF8
FEF8
FEF8
FDF8
FDF8
7DF0
7FF0
0FC0
0FC0
ENDCHAR
STARTCHAR 2791
ENCODING 10129
SWIDTH 981 0
DWIDTH 15 0
BBX 14 14 0 0
BITMAP
0FC0
7FF8
7FF8
7878
F7BC
F7BC
F87C
F87C
F7BC
F7BC
7878
7FF8
0FC0
0FC0
ENDCHAR
STARTCHAR 2792
ENCODING 10130
SWIDTH 981 0
DWIDTH 15 0
BBX 14 14 0 0
BITMAP
0FC0
7FF8
7FF8
7878
F7BC
F7BC
F83C
F83C
FFBC
F7BC
7878
7FF8
0FC0
0FC0
ENDCHAR
STARTCHAR 2793
ENCODING 10131
SWIDTH 981 0
DWIDTH 15 0
BBX 14 14 0 0
BITMAP
0FC0
7FF8
7FF8
7638
E5DC
F5DC
F5DC
F5DC
F5DC
F5DC
7638
7FF8
7FF8
0FC0
ENDCHAR
STARTCHAR 2800
ENCODING 10240
SWIDTH 523 0
DWIDTH 8 0
BBX 0 0 0 0
BITMAP
ENDCHAR
STARTCHAR 2801
ENCODING 10241
SWIDTH 523 0
DWIDTH 8 0
BBX 3 3 0 11
BITMAP
E0
E0
E0
ENDCHAR
STARTCHAR 2802
ENCODING 10242
SWIDTH 523 0
DWIDTH 8 0
BBX 3 3 0 7
BITMAP
E0
E0
E0
ENDCHAR
STARTCHAR 2803
ENCODING 10243
SWIDTH 523 0
DWIDTH 8 0
BBX 3 7 0 7
BITMAP
E0
E0
E0
00
E0
E0
E0
ENDCHAR
STARTCHAR 2804
ENCODING 10244
SWIDTH 523 0
DWIDTH 8 0
BBX 3 3 0 4
BITMAP
E0
E0
E0
ENDCHAR
STARTCHAR 2805
ENCODING 10245
SWIDTH 523 0
DWIDTH 8 0
BBX 3 10 0 4
BITMAP
E0
E0
E0
00
00
00
00
E0
E0
E0
ENDCHAR
STARTCHAR 2806
ENCODING 10246
SWIDTH 523 0
DWIDTH 8 0
BBX 3 6 0 4
BITMAP
E0
E0
E0
E0
E0
E0
ENDCHAR
STARTCHAR 2807
ENCODING 10247
SWIDTH 523 0
DWIDTH 8 0
BBX 3 10 0 4
BITMAP
E0
E0
E0
00
E0
E0
E0
E0
E0
E0
ENDCHAR
STARTCHAR 2808
ENCODING 10248
SWIDTH 523 0
DWIDTH 8 0
BBX 3 3 4 11
BITMAP
E0
E0
E0
ENDCHAR
STARTCHAR 2809
ENCODING 10249
SWIDTH 523 0
DWIDTH 8 0
BBX 7 3 0 11
BITMAP
EE
EE
EE
ENDCHAR
STARTCHAR 280A
ENCODING 10250
SWIDTH 523 0
DWIDTH 8 0
BBX 7 7 0 7
BITMAP
0E
0E
0E
00
E0
E0
E0
ENDCHAR
STARTCHAR 280B
ENCODING 10251
SWIDTH 523 0
DWIDTH 8 0
BBX 7 7 0 7
BITMAP
EE
EE
EE
00
E0
E0
E0
ENDCHAR
STARTCHAR 280C
ENCODING 10252
SWIDTH 523 0
DWIDTH 8 0
BBX 7 10 0 4
BITMAP
0E
0E
0E
00
00
00
00
E0
E0
E0
ENDCHAR
STARTCHAR 280D
ENCODING 10253
SWIDTH 523 0
DWIDTH 8 0
BBX 7 10 0 4
BITMAP
EE
EE
EE
00
00
00
00
E0
E0
E0
ENDCHAR
STARTCHAR 280E
ENCODING 10254
SWIDTH 523 0
DWIDTH 8 0
BBX 7 10 0 4
BITMAP
0E
0E
0E
00
E0
E0
E0
E0
E0
E0
ENDCHAR
STARTCHAR 280F
ENCODING 10255
SWIDTH 523 0
DWIDTH 8 0
BBX 7 10 0 4
BITMAP
EE
EE
EE
00
E0
E0
E0
E0
E0
E0
ENDCHAR
STARTCHAR 2810
ENCODING 10256
SWIDTH 523 0
DWIDTH 8 0
BBX 3 3 4 7
BITMAP
E0
E0
E0
ENDCHAR
STARTCHAR 2811
ENCODING 10257
SWIDTH 523 0
DWIDTH 8 0
BBX 7 7 0 7
BITMAP
E0
E0
E0
00
0E
0E
0E
ENDCHAR
STARTCHAR 2812
ENCODING 10258
SWIDTH 523 0
DWIDTH 8 0
BBX 7 3 0 7
BITMAP
EE
EE
EE
ENDCHAR
STARTCHAR 2813
ENCODING 10259
SWIDTH 523 0
DWIDTH 8 0
BBX 7 7 0 7
BITMAP
E0
E0
E0
00
EE
EE
EE
ENDCHAR
STARTCHAR 2814
ENCODING 10260
SWIDTH 523 0
DWIDTH 8 0
BBX 7 6 0 4
BITMAP
0E
0E
0E
E0
E0
E0
ENDCHAR
STARTCHAR 2815
ENCODING 10261
SWIDTH 523 0
DWIDTH 8 0
BBX 7 10 0 4
BITMAP
E0
E0
E0
00
0E
0E
0E
E0
E0
E0
ENDCHAR
STARTCHAR 2816
ENCODING 10262
SWIDTH 523 0
DWIDTH 8 0
BBX 7 6 0 4
BITMAP
EE
EE
EE
E0
E0
E0
ENDCHAR
STARTCHAR 2817
ENCODING 10263
SWIDTH 523 0
DWIDTH 8 0
BBX 7 10 0 4
BITMAP
E0
E0
E0
00
EE
EE
EE
E0
E0
E0
ENDCHAR
STARTCHAR 2818
ENCODING 10264
SWIDTH 523 0
DWIDTH 8 0
BBX 3 7 4 7
BITMAP
E0
E0
E0
00
E0
E0
E0
ENDCHAR
STARTCHAR 2819
ENCODING 10265
SWIDTH 523 0
DWIDTH 8 0
BBX 7 7 0 7
BITMAP
EE
EE
EE
00
0E
0E
0E
ENDCHAR
STARTCHAR 281A
ENCODING 10266
SWIDTH 523 0
DWIDTH 8 0
BBX 7 7 0 7
BITMAP
0E
0E
0E
00
EE
EE
EE
ENDCHAR
STARTCHAR 281B
ENCODING 10267
SWIDTH 523 0
DWIDTH 8 0
BBX 7 7 0 7
BITMAP
EE
EE
EE
00
EE
EE
EE
ENDCHAR
STARTCHAR 281C
ENCODING 10268
SWIDTH 523 0
DWIDTH 8 0
BBX 7 10 0 4
BITMAP
0E
0E
0E
00
0E
0E
0E
E0
E0
E0
ENDCHAR
STARTCHAR 281D
ENCODING 10269
SWIDTH 523 0
DWIDTH 8 0
BBX 7 10 0 4
BITMAP
EE
EE
EE
00
0E
0E
0E
E0
E0
E0
ENDCHAR
STARTCHAR 281E
ENCODING 10270
SWIDTH 523 0
DWIDTH 8 0
BBX 7 10 0 4
BITMAP
0E
0E
0E
00
EE
EE
EE
E0
E0
E0
ENDCHAR
STARTCHAR 281F
ENCODING 10271
SWIDTH 523 0
DWIDTH 8 0
BBX 7 10 0 4
BITMAP
EE
EE
EE
00
EE
EE
EE
E0
E0
E0
ENDCHAR
STARTCHAR 2820
ENCODING 10272
SWIDTH 523 0
DWIDTH 8 0
BBX 3 3 4 4
BITMAP
E0
E0
E0
ENDCHAR
STARTCHAR 2821
ENCODING 10273
SWIDTH 523 0
DWIDTH 8 0
BBX 7 10 0 4
BITMAP
E0
E0
E0
00
00
00
00
0E
0E
0E
ENDCHAR
STARTCHAR 2822
ENCODING 10274
SWIDTH 523 0
DWIDTH 8 0
BBX 7 6 0 4
BITMAP
E0
E0
E0
0E
0E
0E
ENDCHAR
STARTCHAR 2823
ENCODING 10275
SWIDTH 523 0
DWIDTH 8 0
BBX 7 10 0 4
BITMAP
E0
E0
E0
00
E0
E0
E0
0E
0E
0E
ENDCHAR
STARTCHAR 2824
ENCODING 10276
SWIDTH 523 0
DWIDTH 8 0
BBX 7 3 0 4
BITMAP
EE
EE
EE
ENDCHAR
STARTCHAR 2825
ENCODING 10277
SWIDTH 523 0
DWIDTH 8 0
BBX 7 10 0 4
BITMAP
E0
E0
E0
00
00
00
00
EE
EE
EE
ENDCHAR
STARTCHAR 2826
ENCODING 10278
SWIDTH 523 0
DWIDTH 8 0
BBX 7 6 0 4
BITMAP
E0
E0
E0
EE
EE
EE
ENDCHAR
STARTCHAR 2827
ENCODING 10279
SWIDTH 523 0
DWIDTH 8 0
BBX 7 10 0 4
BITMAP
E0
E0
E0
00
E0
E0
E0
EE
EE
EE
ENDCHAR
STARTCHAR 2828
ENCODING 10280
SWIDTH 523 0
DWIDTH 8 0
BBX 3 10 4 4
BITMAP
E0
E0
E0
00
00
00
00
E0
E0
E0
ENDCHAR
STARTCHAR 2829
ENCODING 10281
SWIDTH 523 0
DWIDTH 8 0
BBX 7 10 0 4
BITMAP
EE
EE
EE
00
00
00
00
0E
0E
0E
ENDCHAR
STARTCHAR 282A
ENCODING 10282
SWIDTH 523 0
DWIDTH 8 0
BBX 7 10 0 4
BITMAP
0E
0E
0E
00
E0
E0
E0
0E
0E
0E
ENDCHAR
STARTCHAR 282B
ENCODING 10283
SWIDTH 523 0
DWIDTH 8 0
BBX 7 10 0 4
BITMAP
EE
EE
EE
00
E0
E0
E0
0E
0E
0E
ENDCHAR
STARTCHAR 282C
ENCODING 10284
SWIDTH 523 0
DWIDTH 8 0
BBX 7 10 0 4
BITMAP
0E
0E
0E
00
00
00
00
EE
EE
EE
ENDCHAR
STARTCHAR 282D
ENCODING 10285
SWIDTH 523 0
DWIDTH 8 0
BBX 7 10 0 4
BITMAP
EE
EE
EE
00
00
00
00
EE
EE
EE
ENDCHAR
STARTCHAR 282E
ENCODING 10286
SWIDTH 523 0
DWIDTH 8 0
BBX 7 10 0 4
BITMAP
0E
0E
0E
00
E0
E0
E0
EE
EE
EE
ENDCHAR
STARTCHAR 282F
ENCODING 10287
SWIDTH 523 0
DWIDTH 8 0
BBX 7 10 0 4
BITMAP
EE
EE
EE
00
E0
E0
E0
EE
EE
EE
ENDCHAR
STARTCHAR 2830
ENCODING 10288
SWIDTH 523 0
DWIDTH 8 0
BBX 3 6 4 4
BITMAP
E0
E0
E0
E0
E0
E0
ENDCHAR
STARTCHAR 2831
ENCODING 10289
SWIDTH 523 0
DWIDTH 8 0
BBX 7 10 0 4
BITMAP
E0
E0
E0
00
0E
0E
0E
0E
0E
0E
ENDCHAR
STARTCHAR 2832
ENCODING 10290
SWIDTH 523 0
DWIDTH 8 0
BBX 7 6 0 4
BITMAP
EE
EE
EE
0E
0E
0E
ENDCHAR
STARTCHAR 2833
ENCODING 10291
SWIDTH 523 0
DWIDTH 8 0
BBX 7 10 0 4
BITMAP
E0
E0
E0
00
EE
EE
EE
0E
0E
0E
ENDCHAR
STARTCHAR 2834
ENCODING 10292
SWIDTH 523 0
DWIDTH 8 0
BBX 7 6 0 4
BITMAP
0E
0E
0E
EE
EE
EE
ENDCHAR
STARTCHAR 2835
ENCODING 10293
SWIDTH 523 0
DWIDTH 8 0
BBX 7 10 0 4
BITMAP
E0
E0
E0
00
0E
0E
0E
EE
EE
EE
ENDCHAR
STARTCHAR 2836
ENCODING 10294
SWIDTH 523 0
DWIDTH 8 0
BBX 7 6 0 4
BITMAP
EE
EE
EE
EE
EE
EE
ENDCHAR
STARTCHAR 2837
ENCODING 10295
SWIDTH 523 0
DWIDTH 8 0
BBX 7 10 0 4
BITMAP
E0
E0
E0
00
EE
EE
EE
EE
EE
EE
ENDCHAR
STARTCHAR 2838
ENCODING 10296
SWIDTH 523 0
DWIDTH 8 0
BBX 3 10 4 4
BITMAP
E0
E0
E0
00
E0
E0
E0
E0
E0
E0
ENDCHAR
STARTCHAR 2839
ENCODING 10297
SWIDTH 523 0
DWIDTH 8 0
BBX 7 10 0 4
BITMAP
EE
EE
EE
00
0E
0E
0E
0E
0E
0E
ENDCHAR
STARTCHAR 283A
ENCODING 10298
SWIDTH 523 0
DWIDTH 8 0
BBX 7 10 0 4
BITMAP
0E
0E
0E
00
EE
EE
EE
0E
0E
0E
ENDCHAR
STARTCHAR 283B
ENCODING 10299
SWIDTH 523 0
DWIDTH 8 0
BBX 7 10 0 4
BITMAP
EE
EE
EE
00
EE
EE
EE
0E
0E
0E
ENDCHAR
STARTCHAR 283C
ENCODING 10300
SWIDTH 523 0
DWIDTH 8 0
BBX 7 10 0 4
BITMAP
0E
0E
0E
00
0E
0E
0E
EE
EE
EE
ENDCHAR
STARTCHAR 283D
ENCODING 10301
SWIDTH 523 0
DWIDTH 8 0
BBX 7 10 0 4
BITMAP
EE
EE
EE
00
0E
0E
0E
EE
EE
EE
ENDCHAR
STARTCHAR 283E
ENCODING 10302
SWIDTH 523 0
DWIDTH 8 0
BBX 7 10 0 4
BITMAP
0E
0E
0E
00
EE
EE
EE
EE
EE
EE
ENDCHAR
STARTCHAR 283F
ENCODING 10303
SWIDTH 523 0
DWIDTH 8 0
BBX 7 10 0 4
BITMAP
EE
EE
EE
00
EE
EE
EE
EE
EE
EE
ENDCHAR
STARTCHAR 2840
ENCODING 10304
SWIDTH 523 0
DWIDTH 8 0
BBX 3 3 0 0
BITMAP
E0
E0
E0
ENDCHAR
STARTCHAR 2841
ENCODING 10305
SWIDTH 523 0
DWIDTH 8 0
BBX 3 14 0 0
BITMAP
E0
E0
E0
00
00
00
00
00
00
00
00
E0
E0
E0
ENDCHAR
STARTCHAR 2842
ENCODING 10306
SWIDTH 523 0
DWIDTH 8 0
BBX 3 10 0 0
BITMAP
E0
E0
E0
00
00
00
00
E0
E0
E0
ENDCHAR
STARTCHAR 2843
ENCODING 10307
SWIDTH 523 0
DWIDTH 8 0
BBX 3 14 0 0
BITMAP
E0
E0
E0
00
E0
E0
E0
00
00
00
00
E0
E0
E0
ENDCHAR
STARTCHAR 2844
ENCODING 10308
SWIDTH 523 0
DWIDTH 8 0
BBX 3 7 0 0
BITMAP
E0
E0
E0
00
E0
E0
E0
ENDCHAR
STARTCHAR 2845
ENCODING 10309
SWIDTH 523 0
DWIDTH 8 0
BBX 3 14 0 0
BITMAP
E0
E0
E0
00
00
00
00
E0
E0
E0
00
E0
E0
E0
ENDCHAR
STARTCHAR 2846
ENCODING 10310
SWIDTH 523 0
DWIDTH 8 0
BBX 3 10 0 0
BITMAP
E0
E0
E0
E0
E0
E0
00
E0
E0
E0
ENDCHAR
STARTCHAR 2847
ENCODING 10311
SWIDTH 523 0
DWIDTH 8 0
BBX 3 14 0 0
BITMAP
E0
E0
E0
00
E0
E0
E0
E0
E0
E0
00
E0
E0
E0
ENDCHAR
STARTCHAR 2848
ENCODING 10312
SWIDTH 523 0
DWIDTH 8 0
BBX 7 14 0 0
BITMAP
0E
0E
0E
00
00
00
00
00
00
00
00
E0
E0
E0
ENDCHAR
STARTCHAR 2849
ENCODING 10313
SWIDTH 523 0
DWIDTH 8 0
BBX 7 14 0 0
BITMAP
EE
EE
EE
00
00
00
00
00
00
00
00
E0
E0
E0
ENDCHAR
ENDFONT
